<svg width="146" height="146" viewBox="0 0 146 146" fill="none" xmlns="http://www.w3.org/2000/svg">
<rect x="13.6875" y="127.741" width="50.1875" height="6.08646" fill="#353535"/>
<rect x="69.9584" y="127.741" width="6.08334" height="6.08646" fill="#353535"/>
<path d="M135.05 146H10.95L0 135.044V127.741H9.125V54.7033C9.125 48.0082 14.6 42.5304 21.2917 42.5304H24.9417V48.6168H21.2917C17.9458 48.6168 15.2083 51.3557 15.2083 54.7033V133.827H7.3L13.3833 139.914H132.617L138.7 133.827H82.125V127.741H146V135.044L135.05 146Z" fill="#353535"/>
<path d="M136.875 130.784H130.792V54.7033C130.792 51.3557 128.054 48.6168 124.708 48.6168H121.363V42.5304H124.708C131.4 42.5304 136.875 48.0082 136.875 54.7033V130.784Z" fill="#353535"/>
<path d="M124.417 121.878H118.387V33.3978H112.357V27.2957H124.417V121.878Z" fill="#353535"/>
<path d="M27.1409 121.878H20.9479L21.8768 27.2957H33.6435V33.3978H27.7602L27.1409 121.878Z" fill="#353535"/>
<path d="M73.3174 121.878C68.1016 121.878 64.113 117.917 64.113 112.737V63.986C64.113 62.1579 65.3403 60.9391 67.1812 60.9391C69.022 60.9391 70.2493 62.1579 70.2493 63.986V112.737C70.2493 114.566 71.4765 115.784 73.3174 115.784C75.1583 115.784 76.3855 114.566 76.3855 112.737V82.2678C76.3855 80.4396 77.6127 79.2208 79.4536 79.2208C81.2945 79.2208 82.5217 80.4396 82.5217 82.2678V112.737C82.5217 117.917 78.5332 121.878 73.3174 121.878Z" fill="#353535"/>
<ellipse cx="79.4536" cy="73.1269" rx="3.06812" ry="3.04696" fill="#353535"/>
<path d="M112.991 93.9478H79.421V87.9174H106.888V75.8565H88.5765V69.826H112.991V93.9478Z" fill="#353535"/>
<path d="M58.0581 93.9478H33.6434V69.826H67.2137V75.8565H39.7471V87.9174H58.0581V93.9478Z" fill="#353535"/>
<path fill-rule="evenodd" clip-rule="evenodd" d="M39.9913 33.3261C39.9913 51.8069 54.8366 66.6522 73.3174 66.6522C91.7982 66.6522 106.644 51.8069 106.644 33.3261C106.644 14.8453 91.7982 0 73.3174 0C54.8366 0 39.9913 14.8453 39.9913 33.3261ZM46.0506 33.3261C46.0506 18.1779 58.1692 6.05929 73.3174 6.05929C88.4657 6.05929 100.584 18.1779 100.584 33.3261C100.584 48.4743 88.4657 60.5929 73.3174 60.5929C58.1692 60.5929 46.0506 48.4743 46.0506 33.3261Z" fill="#353535"/>
<path d="M85.1879 30.4695H60.8122C58.984 30.4695 57.7653 29.2 57.7653 27.2956C57.7653 25.3913 58.984 24.1217 60.8122 24.1217H85.1879C87.016 24.1217 88.2348 25.3913 88.2348 27.2956C88.2348 29.2 87.016 30.4695 85.1879 30.4695Z" fill="#353535"/>
<path d="M85.1879 42.5304H60.8122C58.984 42.5304 57.7653 41.2609 57.7653 39.3565C57.7653 37.4522 58.984 36.1826 60.8122 36.1826H85.1879C87.016 36.1826 88.2348 37.4522 88.2348 39.3565C88.2348 41.2609 87.016 42.5304 85.1879 42.5304Z" fill="#353535"/>
</svg>
