<svg width="152" height="152" viewBox="0 0 152 152" fill="none" xmlns="http://www.w3.org/2000/svg">
<path fill-rule="evenodd" clip-rule="evenodd" d="M6 75.5C6 113.725 37.275 145 75.5 145C113.725 145 145 113.725 145 75.5C145 37.275 113.725 6 75.5 6C37.275 6 6 37.275 6 75.5ZM12.3182 75.5C12.3182 40.75 40.75 12.3182 75.5 12.3182C110.25 12.3182 138.682 40.75 138.682 75.5C138.682 110.25 110.25 138.682 75.5 138.682C40.75 138.682 12.3182 110.25 12.3182 75.5Z" fill="#353535"/>
<rect y="72.8334" width="19" height="6.33333" fill="#353535"/>
<rect x="133" y="72.8334" width="19" height="6.33333" fill="#353535"/>
<rect x="72.8333" width="6.33333" height="19" fill="#353535"/>
<rect x="72.8333" y="133" width="6.33333" height="19" fill="#353535"/>
<rect y="72.8334" width="19" height="6.33333" fill="#353535"/>
<rect x="133" y="72.8334" width="19" height="6.33333" fill="#353535"/>
<rect x="72.8333" width="6.33333" height="19" fill="#353535"/>
<rect x="72.8333" y="133" width="6.33333" height="19" fill="#353535"/>
<path d="M76 82.2078V75.882C82.9385 75.882 88.6154 70.1887 88.6154 63.2302H94.9231C94.9231 73.6679 86.4077 82.2078 76 82.2078Z" fill="#353535"/>
<path d="M113.846 117C111.954 117 110.692 115.735 110.692 113.837V105.93C110.692 100.553 107.223 95.8084 102.492 93.9106L84.5154 88.5336C83.2538 88.2173 82.3077 86.9522 82.3077 85.3707V75.8819C82.3077 74.933 82.6231 73.9841 83.5692 73.3515C86.7231 71.1375 88.6154 67.342 88.6154 63.2302V53.7414C88.6154 53.4251 88.6154 52.7925 88.6154 52.4762C87.9846 45.5178 81.6769 40.4571 74.7385 41.0896C68.1154 42.0385 63.3846 47.7318 63.3846 54.374V63.2302C63.3846 67.0257 65.2769 70.8212 68.4308 73.3515C69.3769 73.9841 69.6923 74.933 69.6923 75.8819V85.687C69.6923 86.9522 68.7462 88.2173 67.4846 88.8499L49.5077 94.2269C44.7769 96.1247 41.3077 100.869 41.3077 105.93V113.837C41.3077 115.735 40.0462 117 38.1538 117C36.2615 117 35 115.735 35 113.837V105.93C35 98.0224 40.0462 90.7477 47.3 88.2173L63.3846 83.4729V77.4634C59.2846 73.9841 57.0769 68.6072 57.0769 63.5465V54.6903C56.7615 44.8852 64.3308 36.3453 74.1077 35.0801C84.5154 34.1312 93.9769 41.7222 94.9231 52.1599C94.9231 52.7925 94.9231 53.4251 94.9231 54.0577V63.5465C94.9231 68.9234 92.7154 73.9841 88.6154 77.7797V83.7892L104.385 88.5336C111.954 91.3803 117 98.3387 117 106.246V113.837C117 115.735 115.738 117 113.846 117Z" fill="#353535"/>
<path d="M75.5 104C74.45 104 73.75 103.65 73.05 102.95C72.7 102.6 72.35 102.25 72.35 101.9C72.35 101.55 72 101.2 72 100.5C72 99.45 72.35 98.75 73.05 98.05C73.75 97.35 75.15 97 76.2 97C76.55 97 76.55 97 76.9 97.35C77.25 97.35 77.25 97.35 77.6 97.7L77.95 98.05C78.65 98.75 79 99.8 79 100.5C79 100.85 79 101.55 78.65 101.9C78.3 102.25 78.3 102.6 77.95 102.95C77.25 103.65 76.55 104 75.5 104Z" fill="#353535"/>
<path d="M75.5 117C74.45 117 73.75 116.65 73.05 115.95C72.35 115.25 72 114.55 72 113.5C72 113.15 72 112.45 72.35 112.1C72.7 111.75 72.7 111.4 73.05 111.05C74.45 109.65 76.55 109.65 77.95 111.05C78.3 111.4 78.65 111.75 78.65 112.1C79 112.45 79 113.15 79 113.5C79 114.55 78.65 115.25 77.95 115.95C77.6 116.3 77.25 116.65 76.9 116.65C76.55 116.65 75.85 117 75.5 117Z" fill="#353535"/>
</svg>
