<svg width="144" height="144" viewBox="0 0 144 144" fill="none" xmlns="http://www.w3.org/2000/svg">
<path d="M72.6666 90.0598V84.0664C79.323 84.0664 84.7692 78.6724 84.7692 72.0797H90.8205C90.8205 81.9688 82.6512 90.0598 72.6666 90.0598Z" fill="#353535"/>
<path d="M108.974 144C107.159 144 105.949 142.801 105.949 141.003V112.535C105.949 107.441 102.62 102.946 98.082 101.148L80.8359 96.0531C79.6256 95.7535 78.7179 94.5548 78.7179 93.0565V84.0664C78.7179 83.1674 79.0205 82.2684 79.9282 81.6691C82.9538 79.5714 84.7692 75.9754 84.7692 72.0797V63.0897C84.7692 62.79 84.7692 62.1907 84.7692 61.891C84.1641 55.2983 78.1128 50.5036 71.4564 51.1029C65.1025 52.0019 60.5641 57.396 60.5641 63.689V72.0797C60.5641 75.6757 62.3795 79.2717 65.4051 81.6691C66.3128 82.2684 66.6154 83.1674 66.6154 84.0664V93.3561C66.6154 94.5548 65.7077 95.7535 64.4974 96.3528L47.2513 101.447C42.7128 103.245 39.3846 107.74 39.3846 112.535V141.003C39.3846 142.801 38.1743 144 36.359 144C34.5436 144 33.3333 142.801 33.3333 141.003V112.535C33.3333 105.043 38.1743 98.1508 45.1333 95.7535L60.5641 91.2585V85.5648C56.6307 82.2684 54.5128 77.1741 54.5128 72.3794V63.9887C54.2102 54.699 61.4718 46.6079 70.8513 45.4092C80.8359 44.5102 89.9128 51.7023 90.8205 61.5913C90.8205 62.1907 90.8205 62.79 90.8205 63.3893V72.3794C90.8205 77.4737 88.7025 82.2684 84.7692 85.8644V91.5581L99.8974 96.0531C107.159 98.7502 112 105.343 112 112.835V141.003C112 142.801 110.79 144 108.974 144Z" fill="#353535"/>
<path d="M51.4872 144C49.6718 144 48.4615 142.801 48.4615 141.003V123.023C48.4615 121.225 49.6718 120.027 51.4872 120.027C53.3026 120.027 54.5128 121.225 54.5128 123.023V141.003C54.5128 142.801 53.3026 144 51.4872 144Z" fill="#353535"/>
<path d="M93.8461 144C92.0308 144 90.8205 142.801 90.8205 141.003V123.023C90.8205 121.225 92.0308 120.027 93.8461 120.027C95.6615 120.027 96.8718 121.225 96.8718 123.023V141.003C96.8718 142.801 95.6615 144 93.8461 144Z" fill="#353535"/>
<path d="M72.6666 105.043C72.3641 105.043 71.7589 105.043 71.4564 104.743C71.1538 104.743 70.8512 104.444 70.5487 104.144C69.9436 103.545 69.641 102.945 69.641 102.046C69.641 101.747 69.641 101.147 69.9436 100.848C70.2461 100.548 70.2461 100.248 70.5487 99.9488C71.7589 98.7501 73.5743 98.7501 74.7846 99.9488C75.3897 100.548 75.6923 101.447 75.6923 102.046C75.6923 102.945 75.3897 103.545 74.7846 104.144C74.1794 104.743 73.5743 105.043 72.6666 105.043Z" fill="#353535"/>
<path d="M72.6666 117.03C71.7589 117.03 71.1538 116.73 70.5487 116.131C69.9436 115.532 69.641 114.932 69.641 114.033C69.641 113.734 69.641 113.134 69.9436 112.835C70.2461 112.535 70.2461 112.235 70.5487 111.936C71.4564 111.037 72.6666 110.737 73.8769 111.336C74.1794 111.336 74.482 111.636 74.7846 111.936C75.0871 112.235 75.3897 112.535 75.3897 112.835C75.3897 113.134 75.6923 113.434 75.6923 114.033C75.6923 114.932 75.3897 115.532 74.7846 116.131C74.1794 116.73 73.5743 117.03 72.6666 117.03Z" fill="#353535"/>
<path d="M72.6666 129.017C71.7589 129.017 71.1538 128.717 70.5487 128.118C70.2461 127.818 69.9436 127.518 69.9436 127.219C69.9436 126.919 69.641 126.619 69.641 126.02C69.641 125.121 69.9436 124.522 70.5487 123.922C71.7589 122.724 73.5743 122.724 74.7846 123.922C75.3897 124.522 75.6923 125.421 75.6923 126.02C75.6923 126.32 75.6923 126.919 75.3897 127.219C75.0871 127.518 75.0871 127.818 74.7846 128.118C74.1794 128.717 73.5743 129.017 72.6666 129.017Z" fill="#353535"/>
<path fill-rule="evenodd" clip-rule="evenodd" d="M0 62.6666C0 69.2666 5.4 74.6666 12 74.6666C18.6 74.6666 24 69.2666 24 62.6666C24 56.0666 18.6 50.6666 12 50.6666C5.4 50.6666 0 56.0666 0 62.6666ZM6 62.6666C6 59.3666 8.7 56.6666 12 56.6666C15.3 56.6666 18 59.3666 18 62.6666C18 65.9666 15.3 68.6666 12 68.6666C8.7 68.6666 6 65.9666 6 62.6666Z" fill="#353535"/>
<path fill-rule="evenodd" clip-rule="evenodd" d="M90.6667 12C90.6667 18.6 96.0667 24 102.667 24C109.267 24 114.667 18.6 114.667 12C114.667 5.4 109.267 0 102.667 0C96.0667 0 90.6667 5.4 90.6667 12ZM96.6667 12C96.6667 8.7 99.3667 6 102.667 6C105.967 6 108.667 8.7 108.667 12C108.667 15.3 105.967 18 102.667 18C99.3667 18 96.6667 15.3 96.6667 12Z" fill="#353535"/>
<path fill-rule="evenodd" clip-rule="evenodd" d="M30.6667 12C30.6667 18.6 36.0667 24 42.6667 24C49.2667 24 54.6667 18.6 54.6667 12C54.6667 5.4 49.2667 0 42.6667 0C36.0667 0 30.6667 5.4 30.6667 12ZM36.6667 12C36.6667 8.7 39.3667 6 42.6667 6C45.9667 6 48.6667 8.7 48.6667 12C48.6667 15.3 45.9667 18 42.6667 18C39.3667 18 36.6667 15.3 36.6667 12Z" fill="#353535"/>
<path d="M47.642 66.6667H21.0247C19.2099 66.6667 18 65.3333 18 63.3333C18 61.3333 19.2099 60 21.0247 60H47.642C49.4568 60 50.6667 61.3333 50.6667 63.3333C50.6667 65.3333 49.4568 66.6667 47.642 66.6667Z" fill="#353535"/>
<path d="M123.636 66.6667H96.3636C94.5454 66.6667 93.3333 65.3333 93.3333 63.3333C93.3333 61.3333 94.5454 60 96.3636 60H123.636C125.455 60 126.667 61.3333 126.667 63.3333C126.667 65.3333 125.455 66.6667 123.636 66.6667Z" fill="#353535"/>
<path d="M17.1157 58.6667C16.5171 58.6667 16.2178 58.6667 15.6192 58.3648C14.1226 57.4591 13.524 55.6476 14.4219 54.44L28.4897 26.9665C29.3877 25.457 31.1836 24.8532 32.3808 25.7589C33.8774 26.6646 34.476 28.4761 33.5781 29.6837L19.5103 57.1572C19.2109 58.0629 18.0137 58.6667 17.1157 58.6667Z" fill="#353535"/>
<path d="M84.347 45.3334C83.7422 45.3334 83.4398 45.3334 82.835 45.0385C81.323 44.154 81.0205 42.3849 81.6254 40.9107L94.9313 18.7975C95.8385 17.3233 97.6529 17.0284 99.165 17.6181C100.677 18.5026 100.979 20.2717 100.375 21.7459L87.0687 43.8592C86.4639 44.7437 85.2542 45.3334 84.347 45.3334Z" fill="#353535"/>
<path d="M126.864 58.6667C125.659 58.6667 124.756 58.0607 124.153 57.1516L109.091 28.6692C108.188 26.8511 108.79 25.0331 110.296 24.4271C111.802 23.5181 113.61 24.1241 114.514 25.6391L129.575 54.1216C130.479 55.6366 129.877 57.4546 128.37 58.3637C127.768 58.3637 127.166 58.6667 126.864 58.6667Z" fill="#353535"/>
<path d="M58.9324 45.3333C57.7537 45.3333 56.8696 44.7324 56.2802 43.831L45.0821 20.9961C44.198 19.4938 44.7874 17.6911 46.2608 17.0901C47.7343 16.1888 49.5024 16.7897 50.0918 18.292L61.5846 41.1269C62.4687 42.6292 61.8793 44.4319 60.4059 45.0328C59.8165 45.3333 59.5218 45.3333 58.9324 45.3333Z" fill="#353535"/>
<path d="M83.6923 16H50.9744C49.1897 16 48 14.6667 48 12.6667C48 10.6667 49.1897 9.33337 50.9744 9.33337H83.6923C85.4769 9.33337 86.6667 10.6667 86.6667 12.6667C86.6667 14.6667 85.4769 16 83.6923 16Z" fill="#353535"/>
<path d="M31.4945 97.3333C30.5803 97.3333 29.3614 96.7285 28.752 95.8213L14.4295 71.3265C13.5153 69.8145 14.1248 68.0001 15.6485 67.0929C17.1721 66.1857 19.0005 66.7905 19.9147 68.3025L34.2371 92.7972C35.1513 94.3092 34.5419 96.1237 33.0182 97.0309C32.4087 97.3333 31.7993 97.3333 31.4945 97.3333Z" fill="#353535"/>
<path d="M111.603 98.6667C110.997 98.6667 110.694 98.6667 110.088 98.3645C108.572 97.458 108.269 95.6448 109.178 94.1339L124.335 68.7499C125.245 67.2389 127.063 66.9367 128.579 67.8433C130.095 68.7499 130.398 70.563 129.488 72.074L114.332 97.458C113.422 98.0623 112.513 98.6667 111.603 98.6667Z" fill="#353535"/>
<path fill-rule="evenodd" clip-rule="evenodd" d="M120 62.6666C120 69.2666 125.4 74.6666 132 74.6666C138.6 74.6666 144 69.2666 144 62.6666C144 56.0666 138.6 50.6666 132 50.6666C125.4 50.6666 120 56.0666 120 62.6666ZM126 62.6666C126 59.3666 128.7 56.6666 132 56.6666C135.3 56.6666 138 59.3666 138 62.6666C138 65.9666 135.3 68.6666 132 68.6666C128.7 68.6666 126 65.9666 126 62.6666Z" fill="#353535"/>
</svg>
