<svg width="1920" height="1092" viewBox="0 0 1920 1092" fill="none" xmlns="http://www.w3.org/2000/svg">
<path fill-rule="evenodd" clip-rule="evenodd" d="M-62.5798 1051.95L23.7833 1096.83L24.1146 1096.19L-62.2486 1051.32L-62.5798 1051.95Z" fill="#181716"/>
<path fill-rule="evenodd" clip-rule="evenodd" d="M-62.5513 1051.79L38.3557 1189.56L38.936 1189.13L-61.971 1051.37L-62.5513 1051.79Z" fill="#181716"/>
<path fill-rule="evenodd" clip-rule="evenodd" d="M255.849 475.199L255.961 475.437L288.067 459.644L287.955 459.405L255.849 475.199Z" fill="#181716"/>
<path fill-rule="evenodd" clip-rule="evenodd" d="M255.934 474.717L268.958 502.869L269.194 502.76L256.17 474.606L255.934 474.717Z" fill="#181716"/>
<path fill-rule="evenodd" clip-rule="evenodd" d="M269.185 502.816L269.41 502.949L287.546 472.43L287.322 472.297L269.185 502.816Z" fill="#181716"/>
<path fill-rule="evenodd" clip-rule="evenodd" d="M288.049 459.745L309.655 464.965L309.724 464.654L288.117 459.433L288.049 459.745Z" fill="#181716"/>
<path fill-rule="evenodd" clip-rule="evenodd" d="M282.246 438.576L287.882 459.392L288.124 459.318L282.489 438.502L282.246 438.576Z" fill="#181716"/>
<path fill-rule="evenodd" clip-rule="evenodd" d="M281.387 438.528L309.675 464.101L309.854 463.914L281.566 438.339L281.387 438.528Z" fill="#181716"/>
<path fill-rule="evenodd" clip-rule="evenodd" d="M309.831 464.047L310.057 464.169L327.8 430.967L327.574 430.847L309.831 464.047Z" fill="#181716"/>
<path fill-rule="evenodd" clip-rule="evenodd" d="M282.161 439.055L282.204 439.318L327.771 431.136L327.728 430.874L282.161 439.055Z" fill="#181716"/>
<path fill-rule="evenodd" clip-rule="evenodd" d="M255.857 475.151L255.876 475.421L287.517 472.599L287.497 472.328L255.857 475.151Z" fill="#181716"/>
<path fill-rule="evenodd" clip-rule="evenodd" d="M288.136 459.252L288.286 459.463L327.783 431.067L327.633 430.857L288.136 459.252Z" fill="#181716"/>
<path fill-rule="evenodd" clip-rule="evenodd" d="M207.878 983.252L247.495 1050.45L248.109 1050.08L208.492 982.887L207.878 983.252Z" fill="#181716"/>
<path fill-rule="evenodd" clip-rule="evenodd" d="M208.077 982.12L208.142 982.825L278.364 976.828L278.301 976.124L208.077 982.12Z" fill="#181716"/>
<path fill-rule="evenodd" clip-rule="evenodd" d="M161.127 1046.81L161.496 1047.42L278.389 976.691L278.02 976.074L161.127 1046.81Z" fill="#181716"/>
<path fill-rule="evenodd" clip-rule="evenodd" d="M248.203 1049.55L248.87 1049.82L279.297 976.456L278.63 976.182L248.203 1049.55Z" fill="#181716"/>
<path fill-rule="evenodd" clip-rule="evenodd" d="M166.009 984.705L247.684 1050.48L248.137 1049.92L166.461 984.145L166.009 984.705Z" fill="#181716"/>
<path fill-rule="evenodd" clip-rule="evenodd" d="M166.107 984.15L161.296 1046.52L162.034 1046.58L166.845 984.213L166.107 984.15Z" fill="#181716"/>
<path fill-rule="evenodd" clip-rule="evenodd" d="M93.8292 903.718L-37.9998 927.302L-37.6782 929.077L94.1508 905.493L93.8292 903.718Z" fill="#181716"/>
<path fill-rule="evenodd" clip-rule="evenodd" d="M-116.722 857.923L-117.102 859.672L94.0778 905.496L94.4586 903.747L-116.722 857.923Z" fill="#181716"/>
<path fill-rule="evenodd" clip-rule="evenodd" d="M-61.9337 669.924L-63.7362 670.101L-38.1817 928.122L-36.3792 927.945L-61.9337 669.924Z" fill="#181716"/>
<path fill-rule="evenodd" clip-rule="evenodd" d="M-62.219 669.007L-63.7195 670.007L93.012 904.441L94.5125 903.441L-62.219 669.007Z" fill="#181716"/>
<path fill-rule="evenodd" clip-rule="evenodd" d="M60.1385 705.06L124.35 752.186L124.745 751.65L60.5336 704.523L60.1385 705.06Z" fill="#181716"/>
<path fill-rule="evenodd" clip-rule="evenodd" d="M124.011 750.898L124.506 751.347L173.089 698.722L172.595 698.274L124.011 750.898Z" fill="#181716"/>
<path fill-rule="evenodd" clip-rule="evenodd" d="M172.256 698.535L192.618 761.623L193.245 761.413L172.882 698.325L172.256 698.535Z" fill="#181716"/>
<path fill-rule="evenodd" clip-rule="evenodd" d="M193.264 761.303L193.691 761.812L238.808 724.253L238.381 723.745L193.264 761.303Z" fill="#181716"/>
<path fill-rule="evenodd" clip-rule="evenodd" d="M177.35 674.557L238.565 723.777L238.983 723.264L177.768 674.046L177.35 674.557Z" fill="#181716"/>
<path fill-rule="evenodd" clip-rule="evenodd" d="M172.394 698.231L172.829 698.316L177.367 673.984L176.93 673.898L172.394 698.231Z" fill="#181716"/>
<path fill-rule="evenodd" clip-rule="evenodd" d="M172.199 698.856L237.92 723.664L238.153 723.052L172.432 698.246L172.199 698.856Z" fill="#181716"/>
<path fill-rule="evenodd" clip-rule="evenodd" d="M172.296 698.303L167.611 784.955L168.281 784.991L172.966 698.34L172.296 698.303Z" fill="#181716"/>
<path fill-rule="evenodd" clip-rule="evenodd" d="M123.848 751.819L167.961 785.017L168.368 784.5L124.254 751.302L123.848 751.819Z" fill="#181716"/>
<path fill-rule="evenodd" clip-rule="evenodd" d="M60.2081 704.665L60.2428 705.338L173.037 699.02L173.002 698.346L60.2081 704.665Z" fill="#181716"/>
<path fill-rule="evenodd" clip-rule="evenodd" d="M277.169 865.799L277.172 865.825L305.621 836.938L305.634 836.924L271.262 820.578L271.241 820.566L277.169 865.799ZM271.273 820.611L305.589 836.932L277.191 865.768L271.273 820.611Z" fill="#181716"/>
<path fill-rule="evenodd" clip-rule="evenodd" d="M243.802 892.86L278.79 895.613L277.132 865.86L243.802 892.86ZM278.81 895.635L243.753 892.876L243.771 892.86L277.148 865.821L277.15 865.841L278.81 895.635Z" fill="#181716"/>
<path fill-rule="evenodd" clip-rule="evenodd" d="M223.894 872.953L227.243 902.935L243.589 893.627L223.894 872.953ZM227.227 902.966L227.226 902.951L223.868 872.898L223.888 872.92L243.62 893.631L243.61 893.637L227.227 902.966Z" fill="#181716"/>
<path fill-rule="evenodd" clip-rule="evenodd" d="M1787.25 639.298L1893.73 687.171L1893.08 688.608L1786.6 640.737L1787.25 639.298Z" fill="black"/>
<path fill-rule="evenodd" clip-rule="evenodd" d="M1787.71 639.969L1801.92 868.978L1800.34 869.078L1786.13 640.065L1787.71 639.969Z" fill="black"/>
<path fill-rule="evenodd" clip-rule="evenodd" d="M1722.39 798.466L1801.65 868.436L1800.61 869.62L1721.34 799.65L1722.39 798.466Z" fill="black"/>
<path fill-rule="evenodd" clip-rule="evenodd" d="M1721.24 798.576L1722.49 799.539L1655.68 886.436L1654.43 885.473L1721.24 798.576Z" fill="black"/>
<path fill-rule="evenodd" clip-rule="evenodd" d="M1801.04 868.244L1801.22 869.812L1655.14 886.738L1654.96 885.171L1801.04 868.244Z" fill="black"/>
<path fill-rule="evenodd" clip-rule="evenodd" d="M1892.98 687.226L1893.84 688.554L1722.29 799.722L1721.43 798.394L1892.98 687.226Z" fill="black"/>
<path fill-rule="evenodd" clip-rule="evenodd" d="M1975.99 644.973L1975.94 646.55L1786.9 640.807L1786.95 639.228L1975.99 644.973Z" fill="black"/>
<path fill-rule="evenodd" clip-rule="evenodd" d="M1968.76 473.916L1970.25 474.446L1894.15 688.156L1892.66 687.624L1968.76 473.916Z" fill="black"/>
<path fill-rule="evenodd" clip-rule="evenodd" d="M1968.98 473.599L1970.04 474.765L1787.45 640.6L1786.39 639.433L1968.98 473.599Z" fill="black"/>
<path fill-rule="evenodd" clip-rule="evenodd" d="M1893.67 687.146L2172.57 784.925L2172.05 786.414L1893.14 688.634L1893.67 687.146Z" fill="black"/>
<path fill-rule="evenodd" clip-rule="evenodd" d="M2103.15 864.166L1942.92 710.432L1819.09 1045.41L2103.15 864.166ZM2103.41 864.103L2103.51 864.2L1818.93 1045.78L1818.65 1045.96L1942.77 710.194L1942.83 710.031L2103.41 864.103Z" fill="black"/>
<path fill-rule="evenodd" clip-rule="evenodd" d="M1921.23 881.449L1793.87 575.046L1568.11 903.178L1921.23 881.449ZM1921.51 881.511L1921.57 881.659L1567.89 903.424L1567.65 903.437L1793.81 574.742L1793.93 574.568L1921.51 881.511Z" fill="black"/>
<path fill-rule="evenodd" clip-rule="evenodd" d="M1863.08 1004.89L1921.21 881.682L1568.46 903.387L1863.08 1004.89ZM1863.25 1005.08L1863.2 1005.18L1567.85 903.417L1567.3 903.229L1921.39 881.439L1921.58 881.427L1863.25 1005.08Z" fill="black"/>
<path fill-rule="evenodd" clip-rule="evenodd" d="M1794.09 574.955L1921.45 881.368L2208.8 644.712L1794.09 574.955ZM1921.47 881.644L1921.35 881.741L1793.79 574.851L1793.71 574.659L2209.09 644.526L2209.33 644.569L1921.47 881.644Z" fill="black"/>
<path fill-rule="evenodd" clip-rule="evenodd" d="M1936.56 317.1L1735.41 483.276L1929.27 611.765L1936.56 317.1ZM1936.6 316.863L1936.73 316.75L1929.42 612.059L1735.23 483.349L1735.14 483.29L1936.6 316.863Z" fill="black"/>
<path fill-rule="evenodd" clip-rule="evenodd" d="M1699.01 442.146L1691.71 736.842L1942.67 709.968L1699.01 442.146ZM1698.86 441.74L1942.89 709.98L1943 710.097L1691.64 737.01L1691.55 737.018L1698.86 441.74Z" fill="black"/>
<path fill-rule="evenodd" clip-rule="evenodd" d="M1698.85 442.118L1497.69 608.295L1691.55 736.784L1698.85 442.118ZM1698.88 441.881L1699.02 441.768L1691.71 737.077L1497.51 608.368L1497.42 608.308L1698.88 441.881Z" fill="black"/>
</svg>
