<svg width="83" height="91" viewBox="0 0 83 91" fill="none" xmlns="http://www.w3.org/2000/svg">
<rect y="57" width="3" height="24" fill="#353535"/>
<path d="M45.8824 54H0V41.2L3.05882 38H52V42H4.58824L3.82353 42.8V50H45.8824V54Z" fill="#353535"/>
<path d="M83 76H79.2857V42.56L78.5429 41.8H70V38H80.0286L83 41.04V76Z" fill="#353535"/>
<path d="M61.9483 64H59.4828L49.2414 52.3294V48.9412H54.931V24.4706C54.931 17.1294 49.0517 11.2941 41.6552 11.2941C34.2586 11.2941 28.3793 17.1294 28.3793 24.4706V39.5294H24.5862V24.4706C24.5862 15.0588 32.1724 7.52941 41.6552 7.52941C51.1379 7.52941 58.7241 15.0588 58.7241 24.4706V52.7059H54.5517L60.6207 59.6706L66.6897 52.7059H62.5172V24.4706C62.5172 12.9882 53.2241 3.76471 41.6552 3.76471C30.0862 3.76471 20.7931 12.9882 20.7931 24.4706V33.8824H17V24.4706C17 10.9176 28 0 41.6552 0C55.3103 0 66.3103 10.9176 66.3103 24.4706V48.9412H72V52.3294L61.9483 64Z" fill="#353535"/>
<path fill-rule="evenodd" clip-rule="evenodd" d="M3.01818 91H79.9818L83 88.0667V80H0V88.0667L3.01818 91ZM78.4727 87.3333H4.52727L3.77273 86.6V83.6667H79.2273V86.6L78.4727 87.3333Z" fill="#353535"/>
<path fill-rule="evenodd" clip-rule="evenodd" d="M37 65C37 68.4 39.3833 71 42.5 71C45.6167 71 48 68.4 48 65C48 61.6 45.6167 59 42.5 59C39.3833 59 37 61.6 37 65ZM40.6667 65C40.6667 63.8 41.4 63 42.5 63C43.6 63 44.3333 63.8 44.3333 65C44.3333 66.2 43.6 67 42.5 67C41.4 67 40.6667 66.2 40.6667 65Z" fill="#353535"/>
<rect x="40.6667" y="69" width="3.66667" height="6" fill="#353535"/>
</svg>
