<svg width="1036" height="974" viewBox="0 0 1036 974" fill="none" xmlns="http://www.w3.org/2000/svg">
<path fill-rule="evenodd" clip-rule="evenodd" d="M392.87 254.868L392.048 254.936L396.774 304.135L397.596 304.07L392.87 254.868Z" fill="#181716"/>
<path fill-rule="evenodd" clip-rule="evenodd" d="M392.597 254.622L239.368 357.252L239.83 357.939L393.058 255.308L392.597 254.622Z" fill="#181716"/>
<path fill-rule="evenodd" clip-rule="evenodd" d="M396.66 304.032L238.833 357.847L239.1 358.627L396.927 304.813L396.66 304.032Z" fill="#181716"/>
<path fill-rule="evenodd" clip-rule="evenodd" d="M396.199 304.127L368.313 411.726L369.106 411.93L396.992 304.331L396.199 304.127Z" fill="#181716"/>
<path fill-rule="evenodd" clip-rule="evenodd" d="M368.305 411.719L268.52 451.906L268.823 452.672L368.608 412.482L368.305 411.719Z" fill="#181716"/>
<path fill-rule="evenodd" clip-rule="evenodd" d="M396.44 303.859L268.404 452.294L269.031 452.834L397.066 304.398L396.44 303.859Z" fill="#181716"/>
<path fill-rule="evenodd" clip-rule="evenodd" d="M425.067 173.517L424.813 173.712L441.03 195.964L441.287 195.768L425.067 173.517Z" fill="#181716"/>
<path fill-rule="evenodd" clip-rule="evenodd" d="M430.051 136.511L424.167 174.052L424.465 174.099L430.35 136.559L430.051 136.511Z" fill="#181716"/>
<path fill-rule="evenodd" clip-rule="evenodd" d="M430.218 136.44L429.962 136.61L456.333 177.448L456.59 177.277L430.218 136.44Z" fill="#181716"/>
<path fill-rule="evenodd" clip-rule="evenodd" d="M457.233 176.563L457.168 176.853L504.157 187.216L504.222 186.926L457.233 176.563Z" fill="#181716"/>
<path fill-rule="evenodd" clip-rule="evenodd" d="M541.475 182.791L503.794 187.62L503.831 187.92L541.513 183.091L541.475 182.791Z" fill="#181716"/>
<path fill-rule="evenodd" clip-rule="evenodd" d="M541.443 182.763L520.312 193.186L520.437 193.452L541.568 183.029L541.443 182.763Z" fill="#181716"/>
<path fill-rule="evenodd" clip-rule="evenodd" d="M476.831 157.786L476.625 158.04L520.686 192.771L520.891 192.516L476.831 157.786Z" fill="#181716"/>
<path fill-rule="evenodd" clip-rule="evenodd" d="M424.848 173.32L410.429 176.238L410.482 176.532L424.902 173.614L424.848 173.32Z" fill="#181716"/>
<path fill-rule="evenodd" clip-rule="evenodd" d="M425.182 173.302L425.154 173.595L456.901 176.931L456.93 176.639L425.182 173.302Z" fill="#181716"/>
<path fill-rule="evenodd" clip-rule="evenodd" d="M476.421 157.857L425.125 173.366L425.216 173.651L476.51 158.143L476.421 157.857Z" fill="#181716"/>
<path fill-rule="evenodd" clip-rule="evenodd" d="M410.512 176.146L410.346 176.409L441.538 195.488L441.704 195.225L410.512 176.146Z" fill="#181716"/>
<path fill-rule="evenodd" clip-rule="evenodd" d="M430.852 137.116L410.834 176.849L411.101 176.985L431.12 137.252L430.852 137.116Z" fill="#181716"/>
<path fill-rule="evenodd" clip-rule="evenodd" d="M476.63 158.045L476.391 158.274L504.387 188.42L504.627 188.189L476.63 158.045Z" fill="#181716"/>
<path fill-rule="evenodd" clip-rule="evenodd" d="M476.421 157.857L425.125 173.366L425.216 173.651L476.51 158.143L476.421 157.857Z" fill="#181716"/>
<path fill-rule="evenodd" clip-rule="evenodd" d="M477.659 650.043L478.249 650.659L543.741 588.608L543.151 587.99L477.659 650.043Z" fill="#181716"/>
<path fill-rule="evenodd" clip-rule="evenodd" d="M543.35 588.169L542.564 588.421L568.061 665.59L568.847 665.338L543.35 588.169Z" fill="#181716"/>
<path fill-rule="evenodd" clip-rule="evenodd" d="M460.512 552.605L459.903 553.195L568.327 665.83L568.936 665.24L460.512 552.605Z" fill="#181716"/>
<path fill-rule="evenodd" clip-rule="evenodd" d="M478.826 650.243L478.689 651.055L568.573 665.643L568.711 664.829L478.826 650.243Z" fill="#181716"/>
<path fill-rule="evenodd" clip-rule="evenodd" d="M530.56 541.973L477.775 650.232L478.514 650.589L531.298 542.331L530.56 541.973Z" fill="#181716"/>
<path fill-rule="evenodd" clip-rule="evenodd" d="M530.988 542.052L460.154 552.916L460.269 553.732L531.103 542.865L530.988 542.052Z" fill="#181716"/>
<path fill-rule="evenodd" clip-rule="evenodd" d="M565.079 64.0989L481.061 100.781L481.536 101.909L565.554 65.2266L565.079 64.0989Z" fill="#181716"/>
<path fill-rule="evenodd" clip-rule="evenodd" d="M417.259 67.0272L417.274 68.2685L566.035 66.1875L566.019 64.9451L417.259 67.0272Z" fill="#181716"/>
<path fill-rule="evenodd" clip-rule="evenodd" d="M425.601 -66.871L424.433 -66.4761L481.006 101.432L482.175 101.038L425.601 -66.871Z" fill="#181716"/>
<path fill-rule="evenodd" clip-rule="evenodd" d="M425.174 -67.2557L424.393 -66.4323L565.213 65.5649L565.993 64.7392L425.174 -67.2557Z" fill="#181716"/>
<path fill-rule="evenodd" clip-rule="evenodd" d="M423.889 -67.3661L415.936 67.0641L417.168 67.1286L425.121 -67.3028L423.889 -67.3661Z" fill="#181716"/>
<path fill-rule="evenodd" clip-rule="evenodd" d="M603.197 440.38L542.71 299.627L540.811 300.439L601.298 441.192L603.197 440.38Z" fill="#181716"/>
<path fill-rule="evenodd" clip-rule="evenodd" d="M599.858 192.299L597.786 192.328L600.812 440.755L602.885 440.726L599.858 192.299Z" fill="#181716"/>
<path fill-rule="evenodd" clip-rule="evenodd" d="M823.934 205.688L823.269 203.725L541.331 298.368L541.996 300.33L823.934 205.688Z" fill="#181716"/>
<path fill-rule="evenodd" clip-rule="evenodd" d="M824.58 204.97L823.094 203.568L601.157 439.656L602.643 441.057L824.58 204.97Z" fill="#181716"/>
<path fill-rule="evenodd" clip-rule="evenodd" d="M823.647 204.065L598.468 191.571L598.355 193.637L823.534 206.132L823.647 204.065Z" fill="#181716"/>
<path fill-rule="evenodd" clip-rule="evenodd" d="M815.793 350.726L779.501 434.788L780.201 435.089L816.495 351.028L815.793 350.726Z" fill="#181716"/>
<path fill-rule="evenodd" clip-rule="evenodd" d="M779.801 434.039L779.418 434.714L851.695 475.245L852.078 474.57L779.801 434.039Z" fill="#181716"/>
<path fill-rule="evenodd" clip-rule="evenodd" d="M852.395 474.855L787.154 514.047L787.557 514.706L852.798 475.515L852.395 474.855Z" fill="#181716"/>
<path fill-rule="evenodd" clip-rule="evenodd" d="M786.881 514.35L786.385 514.996L840.269 555.186L840.765 554.541L786.881 514.35Z" fill="#181716"/>
<path fill-rule="evenodd" clip-rule="evenodd" d="M879.637 474.102L840.332 555.497L841.027 555.839L880.332 474.443L879.637 474.102Z" fill="#181716"/>
<path fill-rule="evenodd" clip-rule="evenodd" d="M851.89 475.029L851.928 475.781L880.165 475.01L880.128 474.26L851.89 475.029Z" fill="#181716"/>
<path fill-rule="evenodd" clip-rule="evenodd" d="M851.247 475.743L840.418 555.574L841.172 555.678L852.002 475.847L851.247 475.743Z" fill="#181716"/>
<path fill-rule="evenodd" clip-rule="evenodd" d="M851.756 474.28L753.582 491.553L753.714 492.307L851.886 475.033L851.756 474.28Z" fill="#181716"/>
<path fill-rule="evenodd" clip-rule="evenodd" d="M779.142 434.771L753.461 492.079L754.161 492.405L779.843 435.096L779.142 434.771Z" fill="#181716"/>
<path fill-rule="evenodd" clip-rule="evenodd" d="M816.256 350.813L815.524 351.025L851.234 475.156L851.967 474.944L816.256 350.813Z" fill="#181716"/>
<path fill-rule="evenodd" clip-rule="evenodd" d="M731.17 659.844L740.591 617.83L692.202 636.021L731.17 659.844ZM740.631 617.782L740.626 617.809L731.19 659.892L731.172 659.88L692.135 636.015L692.163 636.004L740.631 617.782Z" fill="#181716"/>
<path fill-rule="evenodd" clip-rule="evenodd" d="M652.571 605.316L659.014 645.173L692.087 636.005L652.571 605.316ZM658.996 645.2L652.542 605.264L652.563 605.281L692.135 636.015L692.114 636.021L658.996 645.2Z" fill="#181716"/>
<path fill-rule="evenodd" clip-rule="evenodd" d="M670.663 577.751L637.321 589.344L652.298 605.496L670.663 577.751ZM637.282 589.334L637.298 589.328L670.718 577.708L670.7 577.735L652.301 605.531L652.292 605.521L637.282 589.334Z" fill="#181716"/>
<path fill-rule="evenodd" clip-rule="evenodd" d="M956.553 113.585L991.352 57.9677L959.989 80.0549L956.553 113.585ZM991.497 57.8136L991.443 57.9017L956.493 113.761L956.501 113.671L959.951 80.0317L991.497 57.8136Z" fill="#181716"/>
<path fill-rule="evenodd" clip-rule="evenodd" d="M960.035 80.4711L991.668 58.1469L963.697 59.511L960.035 80.4711ZM991.812 58.0967L991.752 58.1399L959.975 80.5651L959.985 80.5138L963.662 59.4706L963.679 59.4696L991.812 58.0967Z" fill="#181716"/>
<path fill-rule="evenodd" clip-rule="evenodd" d="M991.666 58.0633L932.598 24.1165L963.717 59.6523L991.666 58.0633ZM932.398 23.9523L932.51 24.0155L991.812 58.0966L991.739 58.1011L963.697 59.6946L963.689 59.6878L932.398 23.9523Z" fill="#181716"/>
<path fill-rule="evenodd" clip-rule="evenodd" d="M1048.75 38.1017L1010.06 -12.8659L991.292 57.5099L1048.75 38.1017ZM1010.04 -12.9583L1010.06 -12.9251L1048.82 38.1227L1048.79 38.1316L991.231 57.5734L991.242 57.5356L1010.04 -12.9583Z" fill="#181716"/>
<path fill-rule="evenodd" clip-rule="evenodd" d="M1068.38 66.7893L1048.95 39.6624L1051.08 107.201L1068.38 66.7893ZM1048.9 39.5271L1048.94 39.5827L1068.43 66.7847L1051.04 107.39L1051.04 107.296L1048.9 39.5271Z" fill="#181716"/>
<path fill-rule="evenodd" clip-rule="evenodd" d="M1051.18 107.096L1049.62 38.923L991.897 58.1113L1051.18 107.096ZM1049.66 38.8654L1049.66 38.8942L1051.22 107.186L1051.19 107.158L991.812 58.0966L991.848 58.0838L1049.66 38.8654Z" fill="#181716"/>
<path fill-rule="evenodd" clip-rule="evenodd" d="M1059.23 168.436L1091.44 110.225L1050.48 106.619L1059.23 168.436ZM1091.51 110.188L1091.5 110.217L1059.2 168.565L1059.19 168.503L1050.43 106.573L1050.46 106.574L1091.51 110.188Z" fill="#181716"/>
<path fill-rule="evenodd" clip-rule="evenodd" d="M724.68 121.638L757.418 125.594L757.413 125.635L724.675 121.679L724.68 121.638Z" fill="#181716"/>
<path fill-rule="evenodd" clip-rule="evenodd" d="M821.336 130.72L781.465 70.6221L757.527 125.6L821.336 130.72ZM781.457 70.5371L781.479 70.5685L821.418 130.768L821.376 130.765L757.465 125.636L757.477 125.61L781.457 70.5371Z" fill="#181716"/>
<path fill-rule="evenodd" clip-rule="evenodd" d="M821.221 130.777L757.474 125.688L767.618 148.163L821.221 130.777ZM757.408 125.64L757.442 125.643L821.432 130.753L821.333 130.784L767.597 148.215L767.589 148.199L757.408 125.64Z" fill="#181716"/>
<path fill-rule="evenodd" clip-rule="evenodd" d="M706.07 82.0508L706.082 82.0778L724.287 122.074L724.249 122.092L706.055 82.1203L675.93 110.084L675.903 110.053L706.07 82.0508Z" fill="#181716"/>
<path fill-rule="evenodd" clip-rule="evenodd" d="M706.403 82.2912L757.287 125.689L781.471 70.6644L706.403 82.2912ZM706.307 82.2642L706.352 82.2569L781.54 70.6124L781.525 70.6469L757.303 125.758L757.281 125.739L706.307 82.2642Z" fill="#181716"/>
<path fill-rule="evenodd" clip-rule="evenodd" d="M706.24 82.2706L654.906 48.3794L676.162 110.201L706.24 82.2706ZM654.825 48.2771L654.877 48.3101L706.307 82.2642L706.287 82.2834L676.143 110.275L676.133 110.246L654.825 48.2771Z" fill="#181716"/>
<path fill-rule="evenodd" clip-rule="evenodd" d="M945.799 -53.5525L1092 -35.4527L1090.92 -207.593L945.799 -53.5525ZM1092.1 -35.3476L1092.04 -35.3531L945.604 -53.4821L945.667 -53.5478L1091.01 -207.829L1092.1 -35.3476Z" fill="#181716"/>
</svg>
