<svg width="9" height="14" viewBox="0 0 9 14" fill="none" xmlns="http://www.w3.org/2000/svg">
<rect x="1.66937" y="1.27271" width="1.27273" height="1.27273" transform="rotate(-180 1.66937 1.27271)" fill="white"/>
<rect x="2.94214" y="2.54541" width="1.27273" height="1.27273" transform="rotate(-180 2.94214 2.54541)" fill="white"/>
<rect x="4.21484" y="3.81812" width="1.27273" height="1.27273" transform="rotate(-180 4.21484 3.81812)" fill="white"/>
<rect x="5.48755" y="5.09082" width="1.27273" height="1.27273" transform="rotate(-180 5.48755 5.09082)" fill="white"/>
<rect x="6.76031" y="6.36353" width="1.27273" height="1.27273" transform="rotate(-180 6.76031 6.36353)" fill="white"/>
<rect x="8.03302" y="7.63647" width="1.27273" height="1.27273" transform="rotate(-180 8.03302 7.63647)" fill="white"/>
<rect x="6.76031" y="8.90918" width="1.27273" height="1.27273" transform="rotate(-180 6.76031 8.90918)" fill="white"/>
<rect x="5.48755" y="10.1819" width="1.27273" height="1.27273" transform="rotate(-180 5.48755 10.1819)" fill="white"/>
<rect x="4.21484" y="11.4546" width="1.27273" height="1.27273" transform="rotate(-180 4.21484 11.4546)" fill="white"/>
<rect x="2.94214" y="12.7273" width="1.27273" height="1.27273" transform="rotate(-180 2.94214 12.7273)" fill="white"/>
<rect x="1.66937" y="14" width="1.27273" height="1.27273" transform="rotate(-180 1.66937 14)" fill="white"/>
</svg>
