<svg width="1920" height="799" viewBox="0 0 1920 799" fill="none" xmlns="http://www.w3.org/2000/svg">
<g clip-path="url(#clip0_30_5020)">
<rect width="1920" height="799" fill="white"/>
<g clip-path="url(#clip1_30_5020)">
<rect width="1920" height="1363" transform="translate(0.432129)" fill="white"/>
<path fill-rule="evenodd" clip-rule="evenodd" d="M1428.64 162.022L1447 132.618L1458.12 106.074L1460.44 122.337L1460.45 119.756L1500.09 103.378L1516.38 102.298L1517.79 99.9196L1545.2 96.4309L1571.41 101.77L1571.37 101.791L1591.5 117.414L1591.44 117.544L1640.58 138.11L1640.61 138.109L1640.58 138.11L1643.06 114.3L1728.04 106.677L1749.69 79.5427L1782.07 118.006L1817.44 135.139L1817.61 135.18L1817.57 135.202L1817.58 135.207L1817.57 135.204L1817.58 135.207L1845.04 196.101L1766.11 213.883L1765.2 213.637L1766.11 213.883L1732.77 247.696L1779.12 246.532L1780.78 257.478L1788.16 264.552L1787.88 264.594L1788.16 264.552L1788.15 264.647L1788.17 264.65L1788.15 264.653L1786.72 281.087L1741.7 271.703L1741.43 271.744L1741.37 271.631L1678.23 253.428L1665 263.541L1715.18 289.23L1764.57 331.575L1764.38 331.595L1638.93 310.002V309.859L1583.6 273.624L1526 428.826L1511.78 377.334L1493.69 332.789L1473.27 288.513L1473.24 288.462L1473.27 288.513L1453.71 325.636L1446.09 323.814L1428.12 287.126L1419.9 210.04L1428.64 162.022Z" fill="#C0A539"/>
<path fill-rule="evenodd" clip-rule="evenodd" d="M1868.34 744.055L1848.22 747.943L1893.86 716.529L1868.34 744.055Z" stroke="#231F20" stroke-width="2" stroke-linejoin="round"/>
<path fill-rule="evenodd" clip-rule="evenodd" d="M1738.95 740.538L1678.74 671.308L1758.88 698.538L1738.95 740.538Z" stroke="#231F20" stroke-width="2" stroke-linejoin="round"/>
<path fill-rule="evenodd" clip-rule="evenodd" d="M1474.71 798.204L1470.36 763.617L1492.52 811.087L1474.71 798.204Z" stroke="#231F20" stroke-width="2" stroke-linejoin="round"/>
<path fill-rule="evenodd" clip-rule="evenodd" d="M1493.29 811.006L1471.21 763.527L1501.3 772.047L1493.29 811.006Z" stroke="#231F20" stroke-width="2" stroke-linejoin="round"/>
<path fill-rule="evenodd" clip-rule="evenodd" d="M1470.79 763.177L1461.02 731.971L1501.24 771.532L1470.79 763.177Z" stroke="#231F20" stroke-width="2" stroke-linejoin="round"/>
<path fill-rule="evenodd" clip-rule="evenodd" d="M1501.24 771.533L1461.02 731.945L1493.7 707.929L1501.24 771.533Z" stroke="#231F20" stroke-width="2" stroke-linejoin="round"/>
<path fill-rule="evenodd" clip-rule="evenodd" d="M1493.81 707.918L1461.24 701.381L1495.36 682.855L1493.81 707.918Z" stroke="#231F20" stroke-width="2" stroke-linejoin="round"/>
<path fill-rule="evenodd" clip-rule="evenodd" d="M1492.82 707.779L1461.02 731.971L1461.66 700.994L1492.82 707.779Z" stroke="#231F20" stroke-width="2" stroke-linejoin="round"/>
<path fill-rule="evenodd" clip-rule="evenodd" d="M1461.17 700.677L1440.69 726.381L1448.98 684.296L1461.17 700.677Z" stroke="#231F20" stroke-width="2" stroke-linejoin="round"/>
<path fill-rule="evenodd" clip-rule="evenodd" d="M1461.72 700.988L1449.14 684.278L1495.28 682.101L1461.72 700.988Z" stroke="#231F20" stroke-width="2" stroke-linejoin="round"/>
<path fill-rule="evenodd" clip-rule="evenodd" d="M1519.28 679.029L1495.36 682.855L1563.79 639.601L1519.28 679.029Z" stroke="#231F20" stroke-width="2" stroke-linejoin="round"/>
<path fill-rule="evenodd" clip-rule="evenodd" d="M1495.36 682.856L1449.22 685.034L1451.1 651.446L1495.36 682.856Z" stroke="#231F20" stroke-width="2" stroke-linejoin="round"/>
<path fill-rule="evenodd" clip-rule="evenodd" d="M1494.99 682.035L1490.04 656.797L1530.63 634.5L1494.99 682.035Z" stroke="#231F20" stroke-width="2" stroke-linejoin="round"/>
<path fill-rule="evenodd" clip-rule="evenodd" d="M1495.36 682.856L1451.69 651.383L1490.32 656.673L1495.36 682.856Z" stroke="#231F20" stroke-width="2" stroke-linejoin="round"/>
<path fill-rule="evenodd" clip-rule="evenodd" d="M1563.77 639.388L1495.27 682.006L1530.57 634.507L1563.77 639.388Z" stroke="#231F20" stroke-width="2" stroke-linejoin="round"/>
<path fill-rule="evenodd" clip-rule="evenodd" d="M1409.21 770.043L1406.19 741.253L1440.69 726.38L1409.21 770.043Z" stroke="#231F20" stroke-width="2" stroke-linejoin="round"/>
<path fill-rule="evenodd" clip-rule="evenodd" d="M1406.23 741.652L1384.09 792.432L1375.39 702.334L1406.23 741.652Z" stroke="#231F20" stroke-width="2" stroke-linejoin="round"/>
<path fill-rule="evenodd" clip-rule="evenodd" d="M1418.4 694.069L1406.18 741.169L1399.42 662.029L1418.4 694.069Z" stroke="#231F20" stroke-width="2" stroke-linejoin="round"/>
<path fill-rule="evenodd" clip-rule="evenodd" d="M1406.36 741.15L1375.43 701.857L1399.58 662.012L1406.36 741.15Z" stroke="#231F20" stroke-width="2" stroke-linejoin="round"/>
<path fill-rule="evenodd" clip-rule="evenodd" d="M1449.18 684.627L1418.43 694.375L1429.55 620.224L1449.18 684.627Z" stroke="#231F20" stroke-width="2" stroke-linejoin="round"/>
<path fill-rule="evenodd" clip-rule="evenodd" d="M1440.71 726.378L1418.4 694.051L1449.14 684.278L1440.71 726.378Z" stroke="#231F20" stroke-width="2" stroke-linejoin="round"/>
<path fill-rule="evenodd" clip-rule="evenodd" d="M1440.68 726.283L1406.18 741.169L1418.06 693.556L1440.68 726.283Z" stroke="#231F20" stroke-width="2" stroke-linejoin="round"/>
<path fill-rule="evenodd" clip-rule="evenodd" d="M1418.24 694.395L1399.62 662.467L1429.53 620.227L1418.24 694.395Z" stroke="#231F20" stroke-width="2" stroke-linejoin="round"/>
<path fill-rule="evenodd" clip-rule="evenodd" d="M1375.7 671.734L1352.72 739.06L1350.56 667.164L1375.7 671.734Z" stroke="#231F20" stroke-width="2" stroke-linejoin="round"/>
<path fill-rule="evenodd" clip-rule="evenodd" d="M1351.17 667.1L1297.3 750.896L1296.22 726.059L1351.17 667.1Z" stroke="#231F20" stroke-width="2" stroke-linejoin="round"/>
<path fill-rule="evenodd" clip-rule="evenodd" d="M1284.16 760.004L1275.62 756.987L1295.56 726.179L1284.16 760.004Z" stroke="#231F20" stroke-width="2" stroke-linejoin="round"/>
<path fill-rule="evenodd" clip-rule="evenodd" d="M1375.05 702.239L1352.72 739.06L1375.75 672.244L1375.05 702.239Z" stroke="#231F20" stroke-width="2" stroke-linejoin="round"/>
<path fill-rule="evenodd" clip-rule="evenodd" d="M1399.58 662.012L1375.48 702.324L1376.1 671.771L1399.58 662.012Z" stroke="#231F20" stroke-width="2" stroke-linejoin="round"/>
<path fill-rule="evenodd" clip-rule="evenodd" d="M1399.34 662.448L1375.75 672.244L1429.44 619.377L1399.34 662.448Z" stroke="#231F20" stroke-width="2" stroke-linejoin="round"/>
<path fill-rule="evenodd" clip-rule="evenodd" d="M1351.19 667.286L1296.41 726.089L1319.78 646.358L1351.19 667.286Z" stroke="#231F20" stroke-width="2" stroke-linejoin="round"/>
<path fill-rule="evenodd" clip-rule="evenodd" d="M1288.69 694.644L1272.41 718.309L1290.47 677.772L1288.69 694.644Z" stroke="#231F20" stroke-width="2" stroke-linejoin="round"/>
<path fill-rule="evenodd" clip-rule="evenodd" d="M1319.79 646.284L1287.92 694.354L1318.01 629.372L1319.79 646.284Z" stroke="#231F20" stroke-width="2" stroke-linejoin="round"/>
<path fill-rule="evenodd" clip-rule="evenodd" d="M1318.01 629.372L1287.92 694.354L1289.79 677.497L1318.01 629.372Z" stroke="#231F20" stroke-width="2" stroke-linejoin="round"/>
<path fill-rule="evenodd" clip-rule="evenodd" d="M1290.53 640.846L1286.44 631.263L1340.5 573.773L1290.53 640.846Z" stroke="#231F20" stroke-width="2" stroke-linejoin="round"/>
<path fill-rule="evenodd" clip-rule="evenodd" d="M1318.1 630.221L1289.9 647.782L1290.62 641.691L1318.1 630.221Z" stroke="#231F20" stroke-width="2" stroke-linejoin="round"/>
<path fill-rule="evenodd" clip-rule="evenodd" d="M1289.29 647.144L1265.94 664.896L1290.03 640.898L1289.29 647.144Z" stroke="#231F20" stroke-width="2" stroke-linejoin="round"/>
<path fill-rule="evenodd" clip-rule="evenodd" d="M1276.88 644.631L1238.18 686.704L1237.59 678.684L1276.88 644.631Z" stroke="#231F20" stroke-width="2" stroke-linejoin="round"/>
<path fill-rule="evenodd" clip-rule="evenodd" d="M1276.88 644.631L1237.59 678.684L1277.64 637.343L1276.88 644.631Z" stroke="#231F20" stroke-width="2" stroke-linejoin="round"/>
<path fill-rule="evenodd" clip-rule="evenodd" d="M1237.59 678.683L1236.27 668.557L1277.64 637.343L1237.59 678.683Z" stroke="#231F20" stroke-width="2" stroke-linejoin="round"/>
<path fill-rule="evenodd" clip-rule="evenodd" d="M1236.27 668.557L1235.25 658.835L1274.58 608.179L1236.27 668.557Z" stroke="#231F20" stroke-width="2" stroke-linejoin="round"/>
<path fill-rule="evenodd" clip-rule="evenodd" d="M1277.64 637.343L1236.27 668.557L1284.55 613.246L1277.64 637.343Z" stroke="#231F20" stroke-width="2" stroke-linejoin="round"/>
<path fill-rule="evenodd" clip-rule="evenodd" d="M1284.55 613.246L1236.27 668.557L1274.58 608.179L1284.55 613.246Z" stroke="#231F20" stroke-width="2" stroke-linejoin="round"/>
<path fill-rule="evenodd" clip-rule="evenodd" d="M1290.08 641.352L1265.94 664.896L1285.94 631.884L1290.08 641.352Z" stroke="#231F20" stroke-width="2" stroke-linejoin="round"/>
<path fill-rule="evenodd" clip-rule="evenodd" d="M1286.5 631.825L1267.63 664.718L1276.85 644.462L1286.5 631.825Z" stroke="#231F20" stroke-width="2" stroke-linejoin="round"/>
<path fill-rule="evenodd" clip-rule="evenodd" d="M1286.41 630.976L1276.62 644.025L1277.36 636.6L1286.41 630.976Z" stroke="#231F20" stroke-width="2" stroke-linejoin="round"/>
<path fill-rule="evenodd" clip-rule="evenodd" d="M1286.39 630.724L1277.52 636.204L1284.2 612.318L1286.39 630.724Z" stroke="#231F20" stroke-width="2" stroke-linejoin="round"/>
<path fill-rule="evenodd" clip-rule="evenodd" d="M1313.77 572.002L1273.72 608.268L1326.34 545.211L1313.77 572.002Z" stroke="#231F20" stroke-width="2" stroke-linejoin="round"/>
<path fill-rule="evenodd" clip-rule="evenodd" d="M1307.92 599.886L1273.72 608.268L1313.73 572.294L1307.92 599.886Z" stroke="#231F20" stroke-width="2" stroke-linejoin="round"/>
<path fill-rule="evenodd" clip-rule="evenodd" d="M1284.37 613.159L1274.55 607.941L1308.01 599.513L1284.37 613.159Z" stroke="#231F20" stroke-width="2" stroke-linejoin="round"/>
<path fill-rule="evenodd" clip-rule="evenodd" d="M1286.75 631.799L1284.53 613.028L1308.01 599.513L1286.75 631.799Z" stroke="#231F20" stroke-width="2" stroke-linejoin="round"/>
<path fill-rule="evenodd" clip-rule="evenodd" d="M1340.5 573.773L1286.41 630.975L1308.5 599.212L1340.5 573.773Z" stroke="#231F20" stroke-width="2" stroke-linejoin="round"/>
<path fill-rule="evenodd" clip-rule="evenodd" d="M1326.25 560.676L1308.01 599.513L1313.78 571.492L1326.25 560.676Z" stroke="#231F20" stroke-width="2" stroke-linejoin="round"/>
<path fill-rule="evenodd" clip-rule="evenodd" d="M1339.63 573.643L1308.01 599.513L1326.06 560.695L1339.63 573.643Z" stroke="#231F20" stroke-width="2" stroke-linejoin="round"/>
<path fill-rule="evenodd" clip-rule="evenodd" d="M1325.43 560.976L1313.64 571.445L1325.49 545.3L1325.43 560.976Z" stroke="#231F20" stroke-width="2" stroke-linejoin="round"/>
<path fill-rule="evenodd" clip-rule="evenodd" d="M1388.25 488.904L1325.49 545.3L1347.42 503.68L1388.25 488.904Z" stroke="#231F20" stroke-width="2" stroke-linejoin="round"/>
<path fill-rule="evenodd" clip-rule="evenodd" d="M1388.37 488.783L1347.71 503.469L1395.23 457.261L1388.37 488.783Z" stroke="#231F20" stroke-width="2" stroke-linejoin="round"/>
<path fill-rule="evenodd" clip-rule="evenodd" d="M1395.55 456.779L1384.37 460.12L1423.35 406.223L1395.55 456.779Z" stroke="#231F20" stroke-width="2" stroke-linejoin="round"/>
<path fill-rule="evenodd" clip-rule="evenodd" d="M1338.8 573.952L1325.44 561.2L1325.53 545.296L1338.8 573.952Z" stroke="#231F20" stroke-width="2" stroke-linejoin="round"/>
<path fill-rule="evenodd" clip-rule="evenodd" d="M1378.67 582.642L1350.76 548.833L1389.1 488.815L1378.67 582.642Z" stroke="#231F20" stroke-width="2" stroke-linejoin="round"/>
<path fill-rule="evenodd" clip-rule="evenodd" d="M1349.69 549.626L1325.56 545.964L1388.25 488.904L1349.69 549.626Z" stroke="#231F20" stroke-width="2" stroke-linejoin="round"/>
<path fill-rule="evenodd" clip-rule="evenodd" d="M1340.42 573.783L1327.19 545.122L1350.75 548.742L1340.42 573.783Z" stroke="#231F20" stroke-width="2" stroke-linejoin="round"/>
<path fill-rule="evenodd" clip-rule="evenodd" d="M1379.3 583.434L1340.61 574.758L1351.22 549.464L1379.3 583.434Z" stroke="#231F20" stroke-width="2" stroke-linejoin="round"/>
<path fill-rule="evenodd" clip-rule="evenodd" d="M1317.4 629.314L1290.03 640.898L1339.65 573.863L1317.4 629.314Z" stroke="#231F20" stroke-width="2" stroke-linejoin="round"/>
<path fill-rule="evenodd" clip-rule="evenodd" d="M1378.34 582.475L1319.8 646.356L1339.99 573.827L1378.34 582.475Z" stroke="#231F20" stroke-width="2" stroke-linejoin="round"/>
<path fill-rule="evenodd" clip-rule="evenodd" d="M1319.8 646.356L1318.02 629.488L1340.5 573.773L1319.8 646.356Z" stroke="#231F20" stroke-width="2" stroke-linejoin="round"/>
<path fill-rule="evenodd" clip-rule="evenodd" d="M1375.78 672.241L1351.22 667.61L1378.45 599.837L1375.78 672.241Z" stroke="#231F20" stroke-width="2" stroke-linejoin="round"/>
<path fill-rule="evenodd" clip-rule="evenodd" d="M1350.7 667.15L1344.06 640.31L1378.45 599.837L1350.7 667.15Z" stroke="#231F20" stroke-width="2" stroke-linejoin="round"/>
<path fill-rule="evenodd" clip-rule="evenodd" d="M1378.7 600.51L1344.16 641.22L1378.45 583.523L1378.7 600.51Z" stroke="#231F20" stroke-width="2" stroke-linejoin="round"/>
<path fill-rule="evenodd" clip-rule="evenodd" d="M1344.45 640.276L1319.8 646.356L1378.36 582.674L1344.45 640.276Z" stroke="#231F20" stroke-width="2" stroke-linejoin="round"/>
<path fill-rule="evenodd" clip-rule="evenodd" d="M1351.17 667.1L1319.72 645.643L1344.46 639.471L1351.17 667.1Z" stroke="#231F20" stroke-width="2" stroke-linejoin="round"/>
<path fill-rule="evenodd" clip-rule="evenodd" d="M1449.64 684.226L1429.44 619.377L1451.67 651.183L1449.64 684.226Z" stroke="#231F20" stroke-width="2" stroke-linejoin="round"/>
<path fill-rule="evenodd" clip-rule="evenodd" d="M1489.92 656.809L1450.88 651.819L1552.76 575.505L1489.92 656.809Z" stroke="#231F20" stroke-width="2" stroke-linejoin="round"/>
<path fill-rule="evenodd" clip-rule="evenodd" d="M1429.85 620.128L1375.75 672.244L1431.15 553.943L1429.85 620.128Z" stroke="#231F20" stroke-width="2" stroke-linejoin="round"/>
<path fill-rule="evenodd" clip-rule="evenodd" d="M1431.15 553.943L1375.75 672.244L1378.73 599.997L1431.15 553.943Z" stroke="#231F20" stroke-width="2" stroke-linejoin="round"/>
<path fill-rule="evenodd" clip-rule="evenodd" d="M1430.3 554.032L1378.45 599.837L1378.2 582.94L1430.3 554.032Z" stroke="#231F20" stroke-width="2" stroke-linejoin="round"/>
<path fill-rule="evenodd" clip-rule="evenodd" d="M1430.76 484.874L1378.36 582.674L1388.88 488.838L1430.76 484.874Z" stroke="#231F20" stroke-width="2" stroke-linejoin="round"/>
<path fill-rule="evenodd" clip-rule="evenodd" d="M1430.35 553.698L1378.36 582.674L1430.8 485.291L1430.35 553.698Z" stroke="#231F20" stroke-width="2" stroke-linejoin="round"/>
<path fill-rule="evenodd" clip-rule="evenodd" d="M1430.15 485.359L1395.25 457.438L1423.35 406.223L1430.15 485.359Z" stroke="#231F20" stroke-width="2" stroke-linejoin="round"/>
<path fill-rule="evenodd" clip-rule="evenodd" d="M1430.71 484.441L1389.06 488.39L1395.91 457.188L1430.71 484.441Z" stroke="#231F20" stroke-width="2" stroke-linejoin="round"/>
<path fill-rule="evenodd" clip-rule="evenodd" d="M1446.47 323.942L1429.79 369.484L1438.27 324.826L1446.47 323.942Z" stroke="#231F20" stroke-width="2" stroke-linejoin="round"/>
<path fill-rule="evenodd" clip-rule="evenodd" d="M1455.25 363.374L1446.56 324.791L1454.48 326.583L1455.25 363.374Z" stroke="#231F20" stroke-width="2" stroke-linejoin="round"/>
<path fill-rule="evenodd" clip-rule="evenodd" d="M1454.81 362.479L1428.94 369.573L1446.22 323.968L1454.81 362.479Z" stroke="#231F20" stroke-width="2" stroke-linejoin="round"/>
<path fill-rule="evenodd" clip-rule="evenodd" d="M1501.97 410.839L1454.82 362.56L1453.9 325.736L1501.97 410.839Z" stroke="#231F20" stroke-width="2" stroke-linejoin="round"/>
<path fill-rule="evenodd" clip-rule="evenodd" d="M1502.06 411.688L1446.08 401.895L1454.92 363.409L1502.06 411.688Z" stroke="#231F20" stroke-width="2" stroke-linejoin="round"/>
<path fill-rule="evenodd" clip-rule="evenodd" d="M1434.45 383.591L1428.95 369.657L1454.82 362.56L1434.45 383.591Z" stroke="#231F20" stroke-width="2" stroke-linejoin="round"/>
<path fill-rule="evenodd" clip-rule="evenodd" d="M1446.11 400.753L1425.05 406.044L1454.82 362.56L1446.11 400.753Z" stroke="#231F20" stroke-width="2" stroke-linejoin="round"/>
<path fill-rule="evenodd" clip-rule="evenodd" d="M1454.82 362.56L1425.05 406.044L1435.31 383.412L1454.82 362.56Z" stroke="#231F20" stroke-width="2" stroke-linejoin="round"/>
<path fill-rule="evenodd" clip-rule="evenodd" d="M1451.42 651.412L1429.47 619.701L1469.86 546.44L1451.42 651.412Z" stroke="#231F20" stroke-width="2" stroke-linejoin="round"/>
<path fill-rule="evenodd" clip-rule="evenodd" d="M1509.68 574.03L1472.08 616.613L1489.86 523.732L1509.68 574.03Z" stroke="#231F20" stroke-width="2" stroke-linejoin="round"/>
<path fill-rule="evenodd" clip-rule="evenodd" d="M1489.79 523.738L1472.08 616.613L1469.36 547.165L1489.79 523.738Z" stroke="#231F20" stroke-width="2" stroke-linejoin="round"/>
<path fill-rule="evenodd" clip-rule="evenodd" d="M1552.76 575.505L1450.84 651.472L1471.8 616.319L1552.76 575.505Z" stroke="#231F20" stroke-width="2" stroke-linejoin="round"/>
<path fill-rule="evenodd" clip-rule="evenodd" d="M1472.54 615.829L1451.69 651.383L1469.86 546.44L1472.54 615.829Z" stroke="#231F20" stroke-width="2" stroke-linejoin="round"/>
<path fill-rule="evenodd" clip-rule="evenodd" d="M1551.9 575.479L1472.08 616.613L1509.43 574.05L1551.9 575.479Z" stroke="#231F20" stroke-width="2" stroke-linejoin="round"/>
<path fill-rule="evenodd" clip-rule="evenodd" d="M1469.86 546.44L1429.53 620.227L1430.79 553.513L1469.86 546.44Z" stroke="#231F20" stroke-width="2" stroke-linejoin="round"/>
<path fill-rule="evenodd" clip-rule="evenodd" d="M1469.53 547.334L1431.74 486.05L1489.82 524.028L1469.53 547.334Z" stroke="#231F20" stroke-width="2" stroke-linejoin="round"/>
<path fill-rule="evenodd" clip-rule="evenodd" d="M1469.91 546.916L1431.15 553.943L1431.62 485.204L1469.91 546.916Z" stroke="#231F20" stroke-width="2" stroke-linejoin="round"/>
<path fill-rule="evenodd" clip-rule="evenodd" d="M1446.01 401.265L1431.65 485.201L1424.89 406.578L1446.01 401.265Z" stroke="#231F20" stroke-width="2" stroke-linejoin="round"/>
<path fill-rule="evenodd" clip-rule="evenodd" d="M1482.43 493.602L1461.74 420.219L1492.17 448.286L1482.43 493.602Z" stroke="#231F20" stroke-width="2" stroke-linejoin="round"/>
<path fill-rule="evenodd" clip-rule="evenodd" d="M1483.18 493.523L1431.61 484.83L1462.49 420.14L1483.18 493.523Z" stroke="#231F20" stroke-width="2" stroke-linejoin="round"/>
<path fill-rule="evenodd" clip-rule="evenodd" d="M1461.76 420.357L1430.8 485.29L1445.55 401.313L1461.76 420.357Z" stroke="#231F20" stroke-width="2" stroke-linejoin="round"/>
<path fill-rule="evenodd" clip-rule="evenodd" d="M1462.11 420.18L1446.01 401.265L1501.98 410.915L1462.11 420.18Z" stroke="#231F20" stroke-width="2" stroke-linejoin="round"/>
<path fill-rule="evenodd" clip-rule="evenodd" d="M1492.28 447.919L1461.65 419.386L1501.88 409.989L1492.28 447.919Z" stroke="#231F20" stroke-width="2" stroke-linejoin="round"/>
<path fill-rule="evenodd" clip-rule="evenodd" d="M1489.71 522.889L1431.65 485.201L1482.86 493.841L1489.71 522.889Z" stroke="#231F20" stroke-width="2" stroke-linejoin="round"/>
<path fill-rule="evenodd" clip-rule="evenodd" d="M1501.88 409.989L1453.5 325.489L1473.14 288.511L1501.88 409.989Z" stroke="#231F20" stroke-width="2" stroke-linejoin="round"/>
<path fill-rule="evenodd" clip-rule="evenodd" d="M1715.44 289.661L1678.68 254.029L1741.54 272.161L1715.44 289.661Z" stroke="#231F20" stroke-width="2" stroke-linejoin="round"/>
<path fill-rule="evenodd" clip-rule="evenodd" d="M1715.9 289.613L1665.14 264.132L1678.56 254.042L1715.9 289.613Z" stroke="#231F20" stroke-width="2" stroke-linejoin="round"/>
<path fill-rule="evenodd" clip-rule="evenodd" d="M1502.73 409.9L1473.65 288.457L1494.43 332.494L1502.73 409.9Z" stroke="#231F20" stroke-width="2" stroke-linejoin="round"/>
<path fill-rule="evenodd" clip-rule="evenodd" d="M1502.12 410.823L1493.76 332.709L1511.35 377.525L1502.12 410.823Z" stroke="#231F20" stroke-width="2" stroke-linejoin="round"/>
<path fill-rule="evenodd" clip-rule="evenodd" d="M1526.19 428.9L1501.97 410.874L1511.93 378.023L1526.19 428.9Z" stroke="#231F20" stroke-width="2" stroke-linejoin="round"/>
<path fill-rule="evenodd" clip-rule="evenodd" d="M1527 428.394L1492.98 447.845L1502.72 409.901L1527 428.394Z" stroke="#231F20" stroke-width="2" stroke-linejoin="round"/>
<path fill-rule="evenodd" clip-rule="evenodd" d="M1527.13 429.66L1483.27 494.372L1493.19 448.906L1527.13 429.66Z" stroke="#231F20" stroke-width="2" stroke-linejoin="round"/>
<path fill-rule="evenodd" clip-rule="evenodd" d="M1490.22 523.693L1483.27 494.372L1527.13 429.66L1490.22 523.693Z" stroke="#231F20" stroke-width="2" stroke-linejoin="round"/>
<path fill-rule="evenodd" clip-rule="evenodd" d="M1509.64 574.027L1489.8 523.808L1526.28 429.749L1509.64 574.027Z" stroke="#231F20" stroke-width="2" stroke-linejoin="round"/>
<path fill-rule="evenodd" clip-rule="evenodd" d="M1551.91 575.595L1509.69 574.144L1525.88 429.791L1551.91 575.595Z" stroke="#231F20" stroke-width="2" stroke-linejoin="round"/>
<path fill-rule="evenodd" clip-rule="evenodd" d="M1530.75 634.331L1490.04 656.797L1552.76 575.505L1530.75 634.331Z" stroke="#231F20" stroke-width="2" stroke-linejoin="round"/>
<path fill-rule="evenodd" clip-rule="evenodd" d="M1563.79 639.601L1530.64 634.602L1552.26 575.559L1563.79 639.601Z" stroke="#231F20" stroke-width="2" stroke-linejoin="round"/>
<path fill-rule="evenodd" clip-rule="evenodd" d="M1631.41 351.691L1584.13 359.273L1584.02 273.422L1631.41 351.691Z" stroke="#231F20" stroke-width="2" stroke-linejoin="round"/>
<path fill-rule="evenodd" clip-rule="evenodd" d="M1584.04 360.446L1526.28 429.749L1583.78 274.306L1584.04 360.446Z" stroke="#231F20" stroke-width="2" stroke-linejoin="round"/>
<path fill-rule="evenodd" clip-rule="evenodd" d="M1631.32 351.736L1584.54 273.368L1639.88 309.684L1631.32 351.736Z" stroke="#231F20" stroke-width="2" stroke-linejoin="round"/>
<path fill-rule="evenodd" clip-rule="evenodd" d="M1703.06 371.672L1631.51 352.65L1640.07 310.462L1703.06 371.672Z" stroke="#231F20" stroke-width="2" stroke-linejoin="round"/>
<path fill-rule="evenodd" clip-rule="evenodd" d="M1687.96 447.1L1631.42 351.727L1688.55 405.204L1687.96 447.1Z" stroke="#231F20" stroke-width="2" stroke-linejoin="round"/>
<path fill-rule="evenodd" clip-rule="evenodd" d="M1639.41 482.254L1584.13 359.273L1647.56 440L1639.41 482.254Z" stroke="#231F20" stroke-width="2" stroke-linejoin="round"/>
<path fill-rule="evenodd" clip-rule="evenodd" d="M1579.6 528.896L1526.28 429.749L1586 491.462L1579.6 528.896Z" stroke="#231F20" stroke-width="2" stroke-linejoin="round"/>
<path fill-rule="evenodd" clip-rule="evenodd" d="M1565.05 557.9L1526.19 428.899L1579.6 528.577L1565.05 557.9Z" stroke="#231F20" stroke-width="2" stroke-linejoin="round"/>
<path fill-rule="evenodd" clip-rule="evenodd" d="M1553.14 575.465L1527.13 429.659L1565.6 558.778L1553.14 575.465Z" stroke="#231F20" stroke-width="2" stroke-linejoin="round"/>
<path fill-rule="evenodd" clip-rule="evenodd" d="M1604.95 496.18L1589.88 422.205L1613.25 472.932L1604.95 496.18Z" stroke="#231F20" stroke-width="2" stroke-linejoin="round"/>
<path fill-rule="evenodd" clip-rule="evenodd" d="M1613.11 473.273L1589.88 422.205L1639.13 482.284L1613.11 473.273Z" stroke="#231F20" stroke-width="2" stroke-linejoin="round"/>
<path fill-rule="evenodd" clip-rule="evenodd" d="M1639.13 482.284L1589.84 421.755L1584.03 359.283L1639.13 482.284Z" stroke="#231F20" stroke-width="2" stroke-linejoin="round"/>
<path fill-rule="evenodd" clip-rule="evenodd" d="M1589.95 421.873L1527.04 428.81L1584.22 360.122L1589.95 421.873Z" stroke="#231F20" stroke-width="2" stroke-linejoin="round"/>
<path fill-rule="evenodd" clip-rule="evenodd" d="M1577.78 471.56L1573.75 440.215L1586.39 462.467L1577.78 471.56Z" stroke="#231F20" stroke-width="2" stroke-linejoin="round"/>
<path fill-rule="evenodd" clip-rule="evenodd" d="M1577.99 472.396L1526.28 429.749L1573.93 441.095L1577.99 472.396Z" stroke="#231F20" stroke-width="2" stroke-linejoin="round"/>
<path fill-rule="evenodd" clip-rule="evenodd" d="M1586.87 462.877L1573.79 440.629L1589.88 422.205L1586.87 462.877Z" stroke="#231F20" stroke-width="2" stroke-linejoin="round"/>
<path fill-rule="evenodd" clip-rule="evenodd" d="M1573.76 440.213L1526.14 428.383L1589.79 421.356L1573.76 440.213Z" stroke="#231F20" stroke-width="2" stroke-linejoin="round"/>
<path fill-rule="evenodd" clip-rule="evenodd" d="M1585.98 491.304L1526.19 428.9L1577.81 471.787L1585.98 491.304Z" stroke="#231F20" stroke-width="2" stroke-linejoin="round"/>
<path fill-rule="evenodd" clip-rule="evenodd" d="M1586.31 491.27L1577.94 471.957L1587.29 462.833L1586.31 491.27Z" stroke="#231F20" stroke-width="2" stroke-linejoin="round"/>
<path fill-rule="evenodd" clip-rule="evenodd" d="M1604.53 496.224L1586.39 462.46L1589.46 422.25L1604.53 496.224Z" stroke="#231F20" stroke-width="2" stroke-linejoin="round"/>
<path fill-rule="evenodd" clip-rule="evenodd" d="M1605.38 496.134L1585.92 490.64L1586.84 462.021L1605.38 496.134Z" stroke="#231F20" stroke-width="2" stroke-linejoin="round"/>
<path fill-rule="evenodd" clip-rule="evenodd" d="M1605.45 496.773L1579.63 528.892L1586.19 491.283L1605.45 496.773Z" stroke="#231F20" stroke-width="2" stroke-linejoin="round"/>
<path fill-rule="evenodd" clip-rule="evenodd" d="M1579.63 528.892L1563.79 639.601L1564.93 558.355L1579.63 528.892Z" stroke="#231F20" stroke-width="2" stroke-linejoin="round"/>
<path fill-rule="evenodd" clip-rule="evenodd" d="M1564.12 639.567L1552.75 575.409L1564.74 558.791L1564.12 639.567Z" stroke="#231F20" stroke-width="2" stroke-linejoin="round"/>
<path fill-rule="evenodd" clip-rule="evenodd" d="M1605.47 496.983L1563.79 639.601L1579.74 529.169L1605.47 496.983Z" stroke="#231F20" stroke-width="2" stroke-linejoin="round"/>
<path fill-rule="evenodd" clip-rule="evenodd" d="M1639.19 482.883L1619.09 602.021L1613.2 473.847L1639.19 482.883Z" stroke="#231F20" stroke-width="2" stroke-linejoin="round"/>
<path fill-rule="evenodd" clip-rule="evenodd" d="M1619.21 601.916L1588.65 614.664L1613.25 472.983L1619.21 601.916Z" stroke="#231F20" stroke-width="2" stroke-linejoin="round"/>
<path fill-rule="evenodd" clip-rule="evenodd" d="M1588.35 614.745L1563.79 639.601L1605.47 496.983L1588.35 614.745Z" stroke="#231F20" stroke-width="2" stroke-linejoin="round"/>
<path fill-rule="evenodd" clip-rule="evenodd" d="M1506.66 700.505L1493.7 707.929L1495.17 682.875L1506.66 700.505Z" stroke="#231F20" stroke-width="2" stroke-linejoin="round"/>
<path fill-rule="evenodd" clip-rule="evenodd" d="M1506.52 699.713L1495.23 681.623L1518.87 677.809L1506.52 699.713Z" stroke="#231F20" stroke-width="2" stroke-linejoin="round"/>
<path fill-rule="evenodd" clip-rule="evenodd" d="M1501.24 771.533L1493.62 707.185L1506.57 699.708L1501.24 771.533Z" stroke="#231F20" stroke-width="2" stroke-linejoin="round"/>
<path fill-rule="evenodd" clip-rule="evenodd" d="M1528.59 803.003L1516.36 792.828L1510.28 727.652L1528.59 803.003Z" stroke="#231F20" stroke-width="2" stroke-linejoin="round"/>
<path fill-rule="evenodd" clip-rule="evenodd" d="M1557.56 751.875L1528.68 803.852L1535.23 764.474L1557.56 751.875Z" stroke="#231F20" stroke-width="2" stroke-linejoin="round"/>
<path fill-rule="evenodd" clip-rule="evenodd" d="M1529.26 802.933L1511.22 727.554L1535.65 763.951L1529.26 802.933Z" stroke="#231F20" stroke-width="2" stroke-linejoin="round"/>
<path fill-rule="evenodd" clip-rule="evenodd" d="M1580.63 742.582L1559.44 769.709L1557.92 751.672L1580.63 742.582Z" stroke="#231F20" stroke-width="2" stroke-linejoin="round"/>
<path fill-rule="evenodd" clip-rule="evenodd" d="M1585.74 768.662L1581.42 741.971L1624.7 737.092L1585.74 768.662Z" stroke="#231F20" stroke-width="2" stroke-linejoin="round"/>
<path fill-rule="evenodd" clip-rule="evenodd" d="M1535.7 764.476L1511.26 728.012L1519.56 678.595L1535.7 764.476Z" stroke="#231F20" stroke-width="2" stroke-linejoin="round"/>
<path fill-rule="evenodd" clip-rule="evenodd" d="M1557.56 751.875L1537.59 725.191L1545.45 705.066L1557.56 751.875Z" stroke="#231F20" stroke-width="2" stroke-linejoin="round"/>
<path fill-rule="evenodd" clip-rule="evenodd" d="M1557.5 751.262L1535.61 763.627L1538.62 724.673L1557.5 751.262Z" stroke="#231F20" stroke-width="2" stroke-linejoin="round"/>
<path fill-rule="evenodd" clip-rule="evenodd" d="M1535.28 764.521L1518.96 678.658L1538.44 725.156L1535.28 764.521Z" stroke="#231F20" stroke-width="2" stroke-linejoin="round"/>
<path fill-rule="evenodd" clip-rule="evenodd" d="M1538.3 724.707L1518.87 677.808L1545.71 704.418L1538.3 724.707Z" stroke="#231F20" stroke-width="2" stroke-linejoin="round"/>
<path fill-rule="evenodd" clip-rule="evenodd" d="M1545.82 705.027L1518.98 678.849L1563.79 639.601L1545.82 705.027Z" stroke="#231F20" stroke-width="2" stroke-linejoin="round"/>
<path fill-rule="evenodd" clip-rule="evenodd" d="M1558.5 751.777L1546.62 704.943L1581.48 742.493L1558.5 751.777Z" stroke="#231F20" stroke-width="2" stroke-linejoin="round"/>
<path fill-rule="evenodd" clip-rule="evenodd" d="M1581.48 742.493L1546.63 705.038L1564.85 639.489L1581.48 742.493Z" stroke="#231F20" stroke-width="2" stroke-linejoin="round"/>
<path fill-rule="evenodd" clip-rule="evenodd" d="M1610.93 625.201L1588.63 614.47L1619.09 602.021L1610.93 625.201Z" stroke="#231F20" stroke-width="2" stroke-linejoin="round"/>
<path fill-rule="evenodd" clip-rule="evenodd" d="M1611.28 625.746L1564.64 639.512L1588.74 614.655L1611.28 625.746Z" stroke="#231F20" stroke-width="2" stroke-linejoin="round"/>
<path fill-rule="evenodd" clip-rule="evenodd" d="M1610.57 625.017C1610.57 625.017 1591.38 690.16 1590.9 689.23C1590.42 688.299 1590.12 652.678 1590.12 652.678L1610.57 625.017Z" stroke="#231F20" stroke-width="2" stroke-linejoin="round"/>
<path fill-rule="evenodd" clip-rule="evenodd" d="M1590.12 652.678L1563.77 638.767L1610.57 625.017L1590.12 652.678Z" stroke="#231F20" stroke-width="2" stroke-linejoin="round"/>
<path fill-rule="evenodd" clip-rule="evenodd" d="M1590.9 689.229L1563.77 638.767L1590.12 652.678L1590.9 689.229Z" stroke="#231F20" stroke-width="2" stroke-linejoin="round"/>
<path fill-rule="evenodd" clip-rule="evenodd" d="M1580.36 742.016L1563.77 638.767L1590.9 689.23L1580.36 742.016Z" stroke="#231F20" stroke-width="2" stroke-linejoin="round"/>
<path fill-rule="evenodd" clip-rule="evenodd" d="M1624.26 737.074L1580.36 742.016L1590.9 689.23L1624.26 737.074Z" stroke="#231F20" stroke-width="2" stroke-linejoin="round"/>
<path fill-rule="evenodd" clip-rule="evenodd" d="M1624.26 737.074L1590.9 689.229L1663.19 717.61L1624.26 737.074Z" stroke="#231F20" stroke-width="2" stroke-linejoin="round"/>
<path fill-rule="evenodd" clip-rule="evenodd" d="M1670.13 703.47L1590.9 689.23L1679.02 671.463L1670.13 703.47Z" stroke="#231F20" stroke-width="2" stroke-linejoin="round"/>
<path fill-rule="evenodd" clip-rule="evenodd" d="M1663.19 717.61L1590.9 689.23L1670.13 703.47L1663.19 717.61Z" stroke="#231F20" stroke-width="2" stroke-linejoin="round"/>
<path fill-rule="evenodd" clip-rule="evenodd" d="M1689.36 744.297L1663.19 717.61L1670.13 703.47L1689.36 744.297Z" stroke="#231F20" stroke-width="2" stroke-linejoin="round"/>
<path fill-rule="evenodd" clip-rule="evenodd" d="M1914.46 844.383L1819.41 761.047L1860.18 780.965L1914.46 844.383Z" stroke="#231F20" stroke-width="2" stroke-linejoin="round"/>
<path fill-rule="evenodd" clip-rule="evenodd" d="M1952.45 822.073L1867.54 742.904L1892.95 715.803L1952.45 822.073Z" stroke="#231F20" stroke-width="2" stroke-linejoin="round"/>
<path fill-rule="evenodd" clip-rule="evenodd" d="M1914.46 844.383L1860.18 780.965L1911.19 805.191L1914.46 844.383Z" stroke="#231F20" stroke-width="2" stroke-linejoin="round"/>
<path fill-rule="evenodd" clip-rule="evenodd" d="M1911.19 805.191L1819.41 761.047L1847.52 746.753L1911.19 805.191Z" stroke="#231F20" stroke-width="2" stroke-linejoin="round"/>
<path fill-rule="evenodd" clip-rule="evenodd" d="M1959.12 777.17L1892.95 715.803L1944.62 740.912L1959.12 777.17Z" stroke="#231F20" stroke-width="2" stroke-linejoin="round"/>
<path fill-rule="evenodd" clip-rule="evenodd" d="M1659.51 596.766L1590.74 689.362L1610.42 625.149L1659.51 596.766Z" stroke="#231F20" stroke-width="2" stroke-linejoin="round"/>
<path fill-rule="evenodd" clip-rule="evenodd" d="M1636.42 659.587L1590.9 689.229L1659.67 596.633L1636.42 659.587Z" stroke="#231F20" stroke-width="2" stroke-linejoin="round"/>
<path fill-rule="evenodd" clip-rule="evenodd" d="M1678.97 671.523L1590.84 689.29L1636.36 659.647L1678.97 671.523Z" stroke="#231F20" stroke-width="2" stroke-linejoin="round"/>
<path fill-rule="evenodd" clip-rule="evenodd" d="M1679.02 671.463L1636.42 659.587L1651.01 634.503L1679.02 671.463Z" stroke="#231F20" stroke-width="2" stroke-linejoin="round"/>
<path fill-rule="evenodd" clip-rule="evenodd" d="M1651.01 634.503L1636.42 659.587L1659.67 596.633L1651.01 634.503Z" stroke="#231F20" stroke-width="2" stroke-linejoin="round"/>
<path fill-rule="evenodd" clip-rule="evenodd" d="M1678.96 671.469L1651.18 635.467L1684.78 585.926L1678.96 671.469Z" stroke="#231F20" stroke-width="2" stroke-linejoin="round"/>
<path fill-rule="evenodd" clip-rule="evenodd" d="M1738.77 740.739L1670.13 703.47L1679.02 671.463L1738.77 740.739Z" stroke="#231F20" stroke-width="2" stroke-linejoin="round"/>
<path fill-rule="evenodd" clip-rule="evenodd" d="M1689.36 744.297L1670.13 703.47L1738.77 740.739L1689.36 744.297Z" stroke="#231F20" stroke-width="2" stroke-linejoin="round"/>
<path fill-rule="evenodd" clip-rule="evenodd" d="M1847.52 746.752L1738.77 740.739L1758.48 698.763L1847.52 746.752Z" stroke="#231F20" stroke-width="2" stroke-linejoin="round"/>
<path fill-rule="evenodd" clip-rule="evenodd" d="M1819.41 761.046L1792.63 754.048L1847.52 746.752L1819.41 761.046Z" fill="#FFFEFA"/>
<path fill-rule="evenodd" clip-rule="evenodd" d="M1792.63 754.049L1738.77 740.739L1847.52 746.753L1792.63 754.049Z" stroke="#231F20" stroke-width="2" stroke-linejoin="round"/>
<path fill-rule="evenodd" clip-rule="evenodd" d="M1720.36 653.054L1679.02 671.463L1684.84 585.919L1720.36 653.054Z" stroke="#231F20" stroke-width="2" stroke-linejoin="round"/>
<path fill-rule="evenodd" clip-rule="evenodd" d="M1758.48 698.763L1679.02 671.463L1720.36 653.054L1758.48 698.763Z" stroke="#231F20" stroke-width="2" stroke-linejoin="round"/>
<path fill-rule="evenodd" clip-rule="evenodd" d="M1805.94 687.561L1741.99 596.485L1809.06 644.385L1805.94 687.561Z" stroke="#231F20" stroke-width="2" stroke-linejoin="round"/>
<path fill-rule="evenodd" clip-rule="evenodd" d="M1758.48 698.763L1740.2 648.679L1805.94 687.561L1758.48 698.763Z" stroke="#231F20" stroke-width="2" stroke-linejoin="round"/>
<path fill-rule="evenodd" clip-rule="evenodd" d="M1805.93 687.506L1740.19 648.625L1741.98 596.431L1805.93 687.506Z" stroke="#231F20" stroke-width="2" stroke-linejoin="round"/>
<path fill-rule="evenodd" clip-rule="evenodd" d="M1740.2 648.679L1684.84 585.919L1741.99 596.485L1740.2 648.679Z" stroke="#231F20" stroke-width="2" stroke-linejoin="round"/>
<path fill-rule="evenodd" clip-rule="evenodd" d="M1758.48 698.763L1720.36 653.054L1740.2 648.679L1758.48 698.763Z" stroke="#231F20" stroke-width="2" stroke-linejoin="round"/>
<path fill-rule="evenodd" clip-rule="evenodd" d="M1720.36 653.054L1684.84 585.919L1740.2 648.679L1720.36 653.054Z" stroke="#231F20" stroke-width="2" stroke-linejoin="round"/>
<path fill-rule="evenodd" clip-rule="evenodd" d="M1685 586.317L1651.17 634.9L1659.83 597.031L1685 586.317Z" stroke="#231F20" stroke-width="2" stroke-linejoin="round"/>
<path fill-rule="evenodd" clip-rule="evenodd" d="M1659.67 596.633L1610.57 625.017L1618.8 601.256L1659.67 596.633Z" stroke="#231F20" stroke-width="2" stroke-linejoin="round"/>
<path fill-rule="evenodd" clip-rule="evenodd" d="M1659.67 596.633L1618.8 601.256L1639.2 482.017L1659.67 596.633Z" stroke="#231F20" stroke-width="2" stroke-linejoin="round"/>
<path fill-rule="evenodd" clip-rule="evenodd" d="M1659.67 596.633L1639.2 482.017L1684.84 585.919L1659.67 596.633Z" stroke="#231F20" stroke-width="2" stroke-linejoin="round"/>
<path fill-rule="evenodd" clip-rule="evenodd" d="M1647.41 439.942L1583.83 359.622L1630.52 352.097L1647.41 439.942Z" stroke="#231F20" stroke-width="2" stroke-linejoin="round"/>
<path fill-rule="evenodd" clip-rule="evenodd" d="M1647.41 439.942L1630.52 352.097L1686.89 447.567L1647.41 439.942Z" stroke="#231F20" stroke-width="2" stroke-linejoin="round"/>
<path fill-rule="evenodd" clip-rule="evenodd" d="M1687.46 405.641L1630.52 352.097L1702.21 371.056L1687.46 405.641Z" stroke="#231F20" stroke-width="2" stroke-linejoin="round"/>
<path fill-rule="evenodd" clip-rule="evenodd" d="M1686.89 447.567L1639.2 482.017L1647.41 439.942L1686.89 447.567Z" stroke="#231F20" stroke-width="2" stroke-linejoin="round"/>
<path fill-rule="evenodd" clip-rule="evenodd" d="M1684.88 541.324L1660.56 492.201L1686.89 447.567L1684.88 541.324Z" stroke="#231F20" stroke-width="2" stroke-linejoin="round"/>
<path fill-rule="evenodd" clip-rule="evenodd" d="M1660.56 492.2L1639.2 482.017L1686.89 447.567L1660.56 492.2Z" stroke="#231F20" stroke-width="2" stroke-linejoin="round"/>
<path fill-rule="evenodd" clip-rule="evenodd" d="M1684.88 541.378L1639.2 482.071L1660.57 492.254L1684.88 541.378Z" stroke="#231F20" stroke-width="2" stroke-linejoin="round"/>
<path fill-rule="evenodd" clip-rule="evenodd" d="M1684.84 585.919L1639.2 482.017L1684.88 541.324L1684.84 585.919Z" stroke="#231F20" stroke-width="2" stroke-linejoin="round"/>
<path fill-rule="evenodd" clip-rule="evenodd" d="M1741.99 596.485L1684.84 585.919L1684.88 541.324L1741.99 596.485Z" stroke="#231F20" stroke-width="2" stroke-linejoin="round"/>
<path fill-rule="evenodd" clip-rule="evenodd" d="M1702.21 371.056L1639.12 309.982L1764.57 331.576L1702.21 371.056Z" stroke="#231F20" stroke-width="2" stroke-linejoin="round"/>
<path fill-rule="evenodd" clip-rule="evenodd" d="M1796.16 401.412L1702.21 371.056L1764.57 331.575L1796.16 401.412Z" stroke="#231F20" stroke-width="2" stroke-linejoin="round"/>
<path fill-rule="evenodd" clip-rule="evenodd" d="M1841.39 463.71L1763.43 443.447L1796.19 401.736L1841.39 463.71Z" stroke="#231F20" stroke-width="2" stroke-linejoin="round"/>
<path fill-rule="evenodd" clip-rule="evenodd" d="M1883 520.827L1802.55 516.854L1841.35 463.387L1883 520.827Z" stroke="#231F20" stroke-width="2" stroke-linejoin="round"/>
<path fill-rule="evenodd" clip-rule="evenodd" d="M1802.02 517.41L1762.87 443.68L1840.82 463.943L1802.02 517.41Z" stroke="#231F20" stroke-width="2" stroke-linejoin="round"/>
<path fill-rule="evenodd" clip-rule="evenodd" d="M1763.4 443.124L1702.21 371.056L1796.16 401.412L1763.4 443.124Z" stroke="#231F20" stroke-width="2" stroke-linejoin="round"/>
<path fill-rule="evenodd" clip-rule="evenodd" d="M1763.4 443.124L1687.46 405.641L1702.21 371.056L1763.4 443.124Z" stroke="#231F20" stroke-width="2" stroke-linejoin="round"/>
<path fill-rule="evenodd" clip-rule="evenodd" d="M1763.4 443.124L1686.89 447.567L1687.46 405.641L1763.4 443.124Z" stroke="#231F20" stroke-width="2" stroke-linejoin="round"/>
<path fill-rule="evenodd" clip-rule="evenodd" d="M1802.55 516.854L1684.88 541.324L1763.4 443.124L1802.55 516.854Z" stroke="#231F20" stroke-width="2" stroke-linejoin="round"/>
<path fill-rule="evenodd" clip-rule="evenodd" d="M1763.4 443.124L1684.88 541.324L1686.89 447.567L1763.4 443.124Z" stroke="#231F20" stroke-width="2" stroke-linejoin="round"/>
<path fill-rule="evenodd" clip-rule="evenodd" d="M1741.99 596.485L1684.88 541.324L1802.55 516.854L1741.99 596.485Z" stroke="#231F20" stroke-width="2" stroke-linejoin="round"/>
<path fill-rule="evenodd" clip-rule="evenodd" d="M1809.06 644.385L1741.99 596.485L1802.55 516.854L1809.06 644.385Z" stroke="#231F20" stroke-width="2" stroke-linejoin="round"/>
<path fill-rule="evenodd" clip-rule="evenodd" d="M1840.38 599.881L1802.55 516.854L1883 520.827L1840.38 599.881Z" stroke="#231F20" stroke-width="2" stroke-linejoin="round"/>
<path fill-rule="evenodd" clip-rule="evenodd" d="M1840.38 599.881L1809.06 644.385L1802.55 516.854L1840.38 599.881Z" stroke="#231F20" stroke-width="2" stroke-linejoin="round"/>
<path fill-rule="evenodd" clip-rule="evenodd" d="M1847.52 746.752L1758.48 698.763L1805.94 687.561L1847.52 746.752Z" stroke="#231F20" stroke-width="2" stroke-linejoin="round"/>
<path fill-rule="evenodd" clip-rule="evenodd" d="M1892.95 715.803L1805.94 687.561L1809.06 644.385L1892.95 715.803Z" stroke="#231F20" stroke-width="2" stroke-linejoin="round"/>
<path fill-rule="evenodd" clip-rule="evenodd" d="M1847.52 746.753L1805.94 687.561L1892.95 715.803L1847.52 746.753Z" stroke="#231F20" stroke-width="2" stroke-linejoin="round"/>
<path fill-rule="evenodd" clip-rule="evenodd" d="M1892.95 715.803C1892.95 715.803 1809.58 645.639 1809.06 644.385C1808.55 643.131 1840.38 599.881 1840.38 599.881L1892.95 715.803Z" stroke="#231F20" stroke-width="2" stroke-linejoin="round"/>
<path fill-rule="evenodd" clip-rule="evenodd" d="M1908.36 609.09L1870.64 603.569L1883 520.827L1908.36 609.09Z" stroke="#231F20" stroke-width="2" stroke-linejoin="round"/>
<path fill-rule="evenodd" clip-rule="evenodd" d="M1871.14 603.517L1840.89 599.828L1883.51 520.774L1871.14 603.517Z" stroke="#231F20" stroke-width="2" stroke-linejoin="round"/>
<path fill-rule="evenodd" clip-rule="evenodd" d="M1892.95 715.803L1840.38 599.881L1870.64 603.57L1892.95 715.803Z" stroke="#231F20" stroke-width="2" stroke-linejoin="round"/>
<path fill-rule="evenodd" clip-rule="evenodd" d="M1892.95 715.803L1870.64 603.57L1908.36 609.09L1892.95 715.803Z" stroke="#231F20" stroke-width="2" stroke-linejoin="round"/>
<path fill-rule="evenodd" clip-rule="evenodd" d="M1933.8 719.913L1907.77 665.41L1949.35 703.888L1933.8 719.913Z" stroke="#231F20" stroke-width="2" stroke-linejoin="round"/>
<path fill-rule="evenodd" clip-rule="evenodd" d="M1933.8 719.913L1892.95 715.803L1907.77 665.41L1933.8 719.913Z" stroke="#231F20" stroke-width="2" stroke-linejoin="round"/>
<path fill-rule="evenodd" clip-rule="evenodd" d="M1907.77 665.41L1892.95 715.803L1908.36 609.09L1907.77 665.41Z" stroke="#231F20" stroke-width="2" stroke-linejoin="round"/>
<path fill-rule="evenodd" clip-rule="evenodd" d="M1944.62 740.913L1892.95 715.803L1933.8 719.914L1944.62 740.913Z" stroke="#231F20" stroke-width="2" stroke-linejoin="round"/>
<path fill-rule="evenodd" clip-rule="evenodd" d="M1949.35 703.888L1907.77 665.41L1957.17 660.839L1949.35 703.888Z" stroke="#231F20" stroke-width="2" stroke-linejoin="round"/>
<path fill-rule="evenodd" clip-rule="evenodd" d="M1957.17 660.839L1907.77 665.41L1908.36 609.09L1957.17 660.839Z" stroke="#231F20" stroke-width="2" stroke-linejoin="round"/>
<path fill-rule="evenodd" clip-rule="evenodd" d="M1908.36 609.09L1883 520.827L1952.71 604.755L1908.36 609.09Z" stroke="#231F20" stroke-width="2" stroke-linejoin="round"/>
<path fill-rule="evenodd" clip-rule="evenodd" d="M1952.71 604.755L1883 520.827L1963.59 555.204L1952.71 604.755Z" stroke="#231F20" stroke-width="2" stroke-linejoin="round"/>
<path fill-rule="evenodd" clip-rule="evenodd" d="M1957.17 660.839L1908.36 609.09L1952.71 604.756L1957.17 660.839Z" stroke="#231F20" stroke-width="2" stroke-linejoin="round"/>
<path fill-rule="evenodd" clip-rule="evenodd" d="M1963.59 555.204L1883 520.827L1974.95 532.097L1963.59 555.204Z" stroke="#231F20" stroke-width="2" stroke-linejoin="round"/>
<path fill-rule="evenodd" clip-rule="evenodd" d="M1974.95 532.096L1883 520.827L1993.35 492.221L1974.95 532.096Z" stroke="#231F20" stroke-width="2" stroke-linejoin="round"/>
<path fill-rule="evenodd" clip-rule="evenodd" d="M1883 520.827L1841.35 463.387L1913.86 486.511L1883 520.827Z" stroke="#231F20" stroke-width="2" stroke-linejoin="round"/>
<path fill-rule="evenodd" clip-rule="evenodd" d="M1993.35 492.221L1883 520.827L1913.86 486.511L1993.35 492.221Z" stroke="#231F20" stroke-width="2" stroke-linejoin="round"/>
<path fill-rule="evenodd" clip-rule="evenodd" d="M1993.35 492.221L1913.86 486.511L1956.11 454.922L1993.35 492.221Z" stroke="#231F20" stroke-width="2" stroke-linejoin="round"/>
<path fill-rule="evenodd" clip-rule="evenodd" d="M1913.86 486.511L1841.35 463.387L1956.11 454.923L1913.86 486.511Z" stroke="#231F20" stroke-width="2" stroke-linejoin="round"/>
<path fill-rule="evenodd" clip-rule="evenodd" d="M1841.35 463.387L1796.16 401.412L1854.13 435.551L1841.35 463.387Z" stroke="#231F20" stroke-width="2" stroke-linejoin="round"/>
<path fill-rule="evenodd" clip-rule="evenodd" d="M1796.16 401.412L1764.57 331.575L1854.13 435.55L1796.16 401.412Z" stroke="#231F20" stroke-width="2" stroke-linejoin="round"/>
<path fill-rule="evenodd" clip-rule="evenodd" d="M1956.11 454.923L1841.35 463.387L1854.13 435.551L1956.11 454.923Z" stroke="#231F20" stroke-width="2" stroke-linejoin="round"/>
<path fill-rule="evenodd" clip-rule="evenodd" d="M1956.11 454.923L1854.13 435.551L1954.74 427.265L1956.11 454.923Z" stroke="#231F20" stroke-width="2" stroke-linejoin="round"/>
<path fill-rule="evenodd" clip-rule="evenodd" d="M1864.4 376.578L1856.77 336.822L1931.96 392.7L1864.4 376.578Z" stroke="#231F20" stroke-width="2" stroke-linejoin="round"/>
<path fill-rule="evenodd" clip-rule="evenodd" d="M1854.13 435.55L1808.76 353.643L1864.4 376.578L1854.13 435.55Z" stroke="#231F20" stroke-width="2" stroke-linejoin="round"/>
<path fill-rule="evenodd" clip-rule="evenodd" d="M1864.4 376.578L1808.76 353.643L1856.77 336.821L1864.4 376.578Z" stroke="#231F20" stroke-width="2" stroke-linejoin="round"/>
<path fill-rule="evenodd" clip-rule="evenodd" d="M1853.88 435.649L1764.32 331.675L1808.51 353.742L1853.88 435.649Z" stroke="#231F20" stroke-width="2" stroke-linejoin="round"/>
<path fill-rule="evenodd" clip-rule="evenodd" d="M1909.73 410.736L1854.13 435.551L1864.4 376.578L1909.73 410.736Z" stroke="#231F20" stroke-width="2" stroke-linejoin="round"/>
<path fill-rule="evenodd" clip-rule="evenodd" d="M1909.68 411.248L1863.71 376.105L1931.79 393.013L1909.68 411.248Z" stroke="#231F20" stroke-width="2" stroke-linejoin="round"/>
<path fill-rule="evenodd" clip-rule="evenodd" d="M1954.74 427.265L1854.13 435.551L1909.73 410.736L1954.74 427.265Z" stroke="#231F20" stroke-width="2" stroke-linejoin="round"/>
<path fill-rule="evenodd" clip-rule="evenodd" d="M1954.74 427.265L1909.73 410.736L1931.96 392.7L1954.74 427.265Z" stroke="#231F20" stroke-width="2" stroke-linejoin="round"/>
<path fill-rule="evenodd" clip-rule="evenodd" d="M1968.84 361.022L1890.65 334.896L1925.96 317.447L1968.84 361.022Z" stroke="#231F20" stroke-width="2" stroke-linejoin="round"/>
<path fill-rule="evenodd" clip-rule="evenodd" d="M1931.96 392.7L1856.77 336.822L1968.84 361.022L1931.96 392.7Z" stroke="#231F20" stroke-width="2" stroke-linejoin="round"/>
<path fill-rule="evenodd" clip-rule="evenodd" d="M1968.88 361.12L1856.81 336.921L1890.69 334.995L1968.88 361.12Z" stroke="#231F20" stroke-width="2" stroke-linejoin="round"/>
<path fill-rule="evenodd" clip-rule="evenodd" d="M1979.31 201.942L1919.05 153.325L1954.32 171.86L1979.31 201.942Z" stroke="#231F20" stroke-width="2" stroke-linejoin="round"/>
<path fill-rule="evenodd" clip-rule="evenodd" d="M1940.62 220.072L1919.05 153.325L1979.31 201.942L1940.62 220.072Z" stroke="#231F20" stroke-width="2" stroke-linejoin="round"/>
<path fill-rule="evenodd" clip-rule="evenodd" d="M1919.05 153.325L1892.72 121.422L1954.32 171.86L1919.05 153.325Z" stroke="#231F20" stroke-width="2" stroke-linejoin="round"/>
<path fill-rule="evenodd" clip-rule="evenodd" d="M1919.05 153.325L1883.78 138.388L1846.55 97.4917L1892.72 121.422L1919.05 153.325Z" stroke="#231F20" stroke-width="2" stroke-linejoin="round"/>
<path fill-rule="evenodd" clip-rule="evenodd" d="M1940.62 220.072L1883.78 138.388L1919.05 153.325L1940.62 220.072Z" stroke="#231F20" stroke-width="2" stroke-linejoin="round"/>
<path fill-rule="evenodd" clip-rule="evenodd" d="M1996.59 304.463L1884.82 242.946L1942.23 249.994L1996.59 304.463Z" stroke="#231F20" stroke-width="2" stroke-linejoin="round"/>
<path fill-rule="evenodd" clip-rule="evenodd" d="M1925.96 317.447L1884.82 242.946L1934.5 289.402L1925.96 317.447Z" stroke="#231F20" stroke-width="2" stroke-linejoin="round"/>
<path fill-rule="evenodd" clip-rule="evenodd" d="M1934.37 289.432L1884.68 242.976L1996.46 304.494L1934.37 289.432Z" stroke="#231F20" stroke-width="2" stroke-linejoin="round"/>
<path fill-rule="evenodd" clip-rule="evenodd" d="M1925.93 317.456L1890.62 334.905L1884.78 242.955L1925.93 317.456Z" stroke="#231F20" stroke-width="2" stroke-linejoin="round"/>
<path fill-rule="evenodd" clip-rule="evenodd" d="M1890.5 334.912L1856.62 336.838L1884.66 242.962L1890.5 334.912Z" stroke="#231F20" stroke-width="2" stroke-linejoin="round"/>
<path fill-rule="evenodd" clip-rule="evenodd" d="M1764.57 331.576L1715.18 289.231L1741.42 271.645L1764.57 331.576Z" stroke="#231F20" stroke-width="2" stroke-linejoin="round"/>
<path fill-rule="evenodd" clip-rule="evenodd" d="M1764.57 331.575L1741.42 271.645L1786.72 281.087L1764.57 331.575Z" stroke="#231F20" stroke-width="2" stroke-linejoin="round"/>
<path fill-rule="evenodd" clip-rule="evenodd" d="M1808.76 353.643L1764.57 331.576L1786.72 281.087L1808.76 353.643Z" stroke="#231F20" stroke-width="2" stroke-linejoin="round"/>
<path fill-rule="evenodd" clip-rule="evenodd" d="M1808.76 353.643L1786.72 281.087L1856.77 336.821L1808.76 353.643Z" stroke="#231F20" stroke-width="2" stroke-linejoin="round"/>
<path fill-rule="evenodd" clip-rule="evenodd" d="M1856.77 336.822L1848.95 266.014L1884.82 242.946L1856.77 336.822Z" stroke="#231F20" stroke-width="2" stroke-linejoin="round"/>
<path fill-rule="evenodd" clip-rule="evenodd" d="M1856.77 336.822L1786.72 281.087L1788.16 264.552L1856.77 336.822Z" stroke="#231F20" stroke-width="2" stroke-linejoin="round"/>
<path fill-rule="evenodd" clip-rule="evenodd" d="M1856.77 336.822L1788.16 264.552L1848.95 266.014L1856.77 336.822Z" stroke="#231F20" stroke-width="2" stroke-linejoin="round"/>
<path fill-rule="evenodd" clip-rule="evenodd" d="M1942.23 249.994L1884.82 242.946L1940.62 220.072L1942.23 249.994Z" stroke="#231F20" stroke-width="2" stroke-linejoin="round"/>
<path fill-rule="evenodd" clip-rule="evenodd" d="M1883.94 205.424L1849.24 144.962L1883.78 138.388L1883.94 205.424Z" stroke="#231F20" stroke-width="2" stroke-linejoin="round"/>
<path fill-rule="evenodd" clip-rule="evenodd" d="M1921.42 212.278L1896.52 219.474L1896.78 178.234L1921.42 212.278Z" stroke="#231F20" stroke-width="2" stroke-linejoin="round"/>
<path fill-rule="evenodd" clip-rule="evenodd" d="M1896.81 178.231L1883.97 205.42L1883.82 138.385L1896.81 178.231Z" stroke="#231F20" stroke-width="2" stroke-linejoin="round"/>
<path fill-rule="evenodd" clip-rule="evenodd" d="M1896.52 219.474L1883.94 205.424L1896.78 178.235L1896.52 219.474Z" stroke="#231F20" stroke-width="2" stroke-linejoin="round"/>
<path fill-rule="evenodd" clip-rule="evenodd" d="M1896.78 178.235L1883.78 138.388L1940.62 220.072L1896.78 178.235Z" stroke="#231F20" stroke-width="2" stroke-linejoin="round"/>
<path fill-rule="evenodd" clip-rule="evenodd" d="M1921.43 212.268L1896.79 178.225L1940.63 220.062L1921.43 212.268Z" stroke="#231F20" stroke-width="2" stroke-linejoin="round"/>
<path fill-rule="evenodd" clip-rule="evenodd" d="M1940.62 220.072L1884.82 242.946L1921.42 212.278L1940.62 220.072Z" stroke="#231F20" stroke-width="2" stroke-linejoin="round"/>
<path fill-rule="evenodd" clip-rule="evenodd" d="M1921.42 212.278L1884.82 242.946L1896.52 219.474L1921.42 212.278Z" stroke="#231F20" stroke-width="2" stroke-linejoin="round"/>
<path fill-rule="evenodd" clip-rule="evenodd" d="M1779.12 246.532L1732.77 247.696L1766.11 213.883L1779.12 246.532Z" stroke="#231F20" stroke-width="2" stroke-linejoin="round"/>
<path fill-rule="evenodd" clip-rule="evenodd" d="M1848.95 266.013L1788.16 264.552L1884.82 242.946L1848.95 266.013Z" stroke="#231F20" stroke-width="2" stroke-linejoin="round"/>
<path fill-rule="evenodd" clip-rule="evenodd" d="M1788.16 264.552L1780.78 257.478L1884.82 242.946L1788.16 264.552Z" stroke="#231F20" stroke-width="2" stroke-linejoin="round"/>
<path fill-rule="evenodd" clip-rule="evenodd" d="M1780.78 257.478L1779.12 246.532L1884.82 242.946L1780.78 257.478Z" stroke="#231F20" stroke-width="2" stroke-linejoin="round"/>
<path fill-rule="evenodd" clip-rule="evenodd" d="M1779.12 246.532L1766.11 213.883L1884.82 242.946L1779.12 246.532Z" stroke="#231F20" stroke-width="2" stroke-linejoin="round"/>
<path fill-rule="evenodd" clip-rule="evenodd" d="M1884.82 242.946L1766.11 213.883L1896.52 219.474L1884.82 242.946Z" stroke="#231F20" stroke-width="2" stroke-linejoin="round"/>
<path fill-rule="evenodd" clip-rule="evenodd" d="M1896.52 219.474L1766.11 213.883L1883.94 205.424L1896.52 219.474Z" stroke="#231F20" stroke-width="2" stroke-linejoin="round"/>
<path fill-rule="evenodd" clip-rule="evenodd" d="M1883.94 205.424L1845.04 196.101L1849.24 144.963L1883.94 205.424Z" stroke="#231F20" stroke-width="2" stroke-linejoin="round"/>
<path fill-rule="evenodd" clip-rule="evenodd" d="M1883.94 205.424L1766.11 213.883L1845.04 196.101L1883.94 205.424Z" stroke="#231F20" stroke-width="2" stroke-linejoin="round"/>
<path fill-rule="evenodd" clip-rule="evenodd" d="M1845.04 196.101L1817.58 135.207L1849.24 144.962L1845.04 196.101Z" stroke="#231F20" stroke-width="2" stroke-linejoin="round"/>
<path fill-rule="evenodd" clip-rule="evenodd" d="M1883.78 138.388L1849.24 144.963L1846.55 97.4917L1883.78 138.388Z" stroke="#231F20" stroke-width="2" stroke-linejoin="round"/>
<path fill-rule="evenodd" clip-rule="evenodd" d="M1849.24 144.963L1817.58 135.207L1846.55 97.4917L1849.24 144.963Z" stroke="#231F20" stroke-width="2" stroke-linejoin="round"/>
<path fill-rule="evenodd" clip-rule="evenodd" d="M1640.58 138.111L1591.44 117.544L1643.06 114.301L1640.58 138.111Z" stroke="#231F20" stroke-width="2" stroke-linejoin="round"/>
<path fill-rule="evenodd" clip-rule="evenodd" d="M1682.15 52.6264L1582.37 50.6836L1652.03 43.0352L1682.15 52.6264Z" stroke="#231F20" stroke-width="2" stroke-linejoin="round"/>
<path fill-rule="evenodd" clip-rule="evenodd" d="M1682.15 52.6264L1652.03 43.0352L1725.7 48.0482L1682.15 52.6264Z" stroke="#231F20" stroke-width="2" stroke-linejoin="round"/>
<path fill-rule="evenodd" clip-rule="evenodd" d="M1792.33 69.8286L1682.15 52.6263L1725.7 48.0481L1792.33 69.8286Z" stroke="#231F20" stroke-width="2" stroke-linejoin="round"/>
<path fill-rule="evenodd" clip-rule="evenodd" d="M1846.55 97.4916L1749.69 79.5429L1792.33 69.8286L1846.55 97.4916Z" stroke="#231F20" stroke-width="2" stroke-linejoin="round"/>
<path fill-rule="evenodd" clip-rule="evenodd" d="M1817.58 135.207L1782.07 118.006L1846.55 97.4919L1817.58 135.207Z" stroke="#231F20" stroke-width="2" stroke-linejoin="round"/>
<path fill-rule="evenodd" clip-rule="evenodd" d="M1782.07 118.006L1749.69 79.543L1846.55 97.4919L1782.07 118.006Z" stroke="#231F20" stroke-width="2" stroke-linejoin="round"/>
<path fill-rule="evenodd" clip-rule="evenodd" d="M1749.69 79.543L1682.15 52.626L1792.33 69.8286L1749.69 79.543Z" stroke="#231F20" stroke-width="2" stroke-linejoin="round"/>
<path fill-rule="evenodd" clip-rule="evenodd" d="M1728.04 106.677L1682.15 52.6262L1749.69 79.5429L1728.04 106.677Z" stroke="#231F20" stroke-width="2" stroke-linejoin="round"/>
<path fill-rule="evenodd" clip-rule="evenodd" d="M1682.15 52.6261L1548.1 67.0422L1544.91 54.9482L1582.37 50.6833L1682.15 52.6261Z" stroke="#231F20" stroke-width="2" stroke-linejoin="round"/>
<path fill-rule="evenodd" clip-rule="evenodd" d="M1728.04 106.677L1639.77 72.1253L1682.15 52.6262L1728.04 106.677Z" stroke="#231F20" stroke-width="2" stroke-linejoin="round"/>
<path fill-rule="evenodd" clip-rule="evenodd" d="M1639.77 72.1255L1548.1 67.0425L1682.15 52.6262L1639.77 72.1255Z" stroke="#231F20" stroke-width="2" stroke-linejoin="round"/>
<path fill-rule="evenodd" clip-rule="evenodd" d="M1643.06 114.301L1591.44 117.544L1639.77 72.1252L1643.06 114.301Z" stroke="#231F20" stroke-width="2" stroke-linejoin="round"/>
<path fill-rule="evenodd" clip-rule="evenodd" d="M1591.44 117.544L1571.41 101.771L1639.77 72.1255L1591.44 117.544Z" stroke="#231F20" stroke-width="2" stroke-linejoin="round"/>
<path fill-rule="evenodd" clip-rule="evenodd" d="M1728.04 106.677L1643.06 114.301L1639.77 72.1255L1728.04 106.677Z" stroke="#231F20" stroke-width="2" stroke-linejoin="round"/>
<path fill-rule="evenodd" clip-rule="evenodd" d="M1571.41 101.771L1545.2 96.431L1639.77 72.1255L1571.41 101.771Z" stroke="#231F20" stroke-width="2" stroke-linejoin="round"/>
<path fill-rule="evenodd" clip-rule="evenodd" d="M1639.77 72.1255L1545.2 96.431L1548.1 67.0425L1639.77 72.1255Z" stroke="#231F20" stroke-width="2" stroke-linejoin="round"/>
<path fill-rule="evenodd" clip-rule="evenodd" d="M1548.1 67.0423L1458.12 106.075L1544.91 54.9482L1548.1 67.0423Z" stroke="#231F20" stroke-width="2" stroke-linejoin="round"/>
<path fill-rule="evenodd" clip-rule="evenodd" d="M1545.2 96.4311L1517.79 99.9198L1548.1 67.0422L1545.2 96.4311Z" stroke="#231F20" stroke-width="2" stroke-linejoin="round"/>
<path fill-rule="evenodd" clip-rule="evenodd" d="M1516.3 102.293L1500.01 103.373L1517.71 99.9146L1516.3 102.293Z" stroke="#231F20" stroke-width="2" stroke-linejoin="round"/>
<path fill-rule="evenodd" clip-rule="evenodd" d="M1500.09 103.378L1458.12 106.074L1548.1 67.0422L1500.09 103.378Z" stroke="#231F20" stroke-width="2" stroke-linejoin="round"/>
<path fill-rule="evenodd" clip-rule="evenodd" d="M1517.79 99.9198L1500.09 103.378L1548.1 67.0422L1517.79 99.9198Z" stroke="#231F20" stroke-width="2" stroke-linejoin="round"/>
<path fill-rule="evenodd" clip-rule="evenodd" d="M1460.45 119.756L1458.12 106.075L1500.09 103.379L1460.45 119.756Z" stroke="#231F20" stroke-width="2" stroke-linejoin="round"/>
<path fill-rule="evenodd" clip-rule="evenodd" d="M1933.8 719.913L1907.77 665.41L1949.35 703.888L1933.8 719.913Z" stroke="#231F20" stroke-width="2" stroke-linejoin="round"/>
<path fill-rule="evenodd" clip-rule="evenodd" d="M1544.91 54.9482L1458.12 106.075L1484.68 84.7026L1544.91 54.9482Z" stroke="#231F20" stroke-width="2" stroke-linejoin="round"/>
<path fill-rule="evenodd" clip-rule="evenodd" d="M1463.96 272.459L1453.71 325.636L1450.2 285.046L1463.96 272.459Z" fill="#69642D"/>
<path fill-rule="evenodd" clip-rule="evenodd" d="M1453.71 325.636L1428.12 287.126L1450.2 285.046L1453.71 325.636Z" fill="#5C500F"/>
<path fill-rule="evenodd" clip-rule="evenodd" d="M1428.12 287.126L1419.9 210.04L1450.2 285.046L1428.12 287.126Z" fill="#5A480B"/>
<path fill-rule="evenodd" clip-rule="evenodd" d="M1463.96 272.459L1450.2 285.046L1459.25 216.371L1463.96 272.459Z" fill="#706119"/>
<path fill-rule="evenodd" clip-rule="evenodd" d="M1459.25 216.371L1450.2 285.046L1444.22 175.43L1459.25 216.371Z" fill="#B18D31"/>
<path fill-rule="evenodd" clip-rule="evenodd" d="M1450.2 285.046L1419.9 210.04L1444.22 175.43L1450.2 285.046Z" fill="#6F5E1D"/>
<path fill-rule="evenodd" clip-rule="evenodd" d="M1447 132.618L1419.9 210.04L1428.64 162.022L1447 132.618Z" fill="#3B3010"/>
<path fill-rule="evenodd" clip-rule="evenodd" d="M1444.22 175.43L1419.9 210.04L1447 132.618L1444.22 175.43Z" fill="#5A480B"/>
<path fill-rule="evenodd" clip-rule="evenodd" d="M1459.25 216.371L1444.22 175.43L1473.98 137.958L1459.25 216.371Z" fill="#9D8540"/>
<path fill-rule="evenodd" clip-rule="evenodd" d="M1471.42 252.052L1463.96 272.459L1459.25 216.371L1471.42 252.052Z" fill="#605920"/>
<path fill-rule="evenodd" clip-rule="evenodd" d="M1525.64 228.69L1492.41 233.164L1541.18 219.862L1525.64 228.69Z" fill="#7B6A34"/>
<path fill-rule="evenodd" clip-rule="evenodd" d="M1471.42 252.052L1459.25 216.371L1492.41 233.164L1471.42 252.052Z" fill="#6E5A1A"/>
<path fill-rule="evenodd" clip-rule="evenodd" d="M1497.55 186.07L1459.25 216.371L1495.84 155.286L1497.55 186.07Z" fill="#B18D31"/>
<path fill-rule="evenodd" clip-rule="evenodd" d="M1492.41 233.164L1459.25 216.371L1497.55 186.07L1492.41 233.164Z" fill="#8B6B10"/>
<path fill-rule="evenodd" clip-rule="evenodd" d="M1541.18 219.861L1492.41 233.164L1558.42 187.086L1541.18 219.861Z" fill="#6F5E1D"/>
<path fill-rule="evenodd" clip-rule="evenodd" d="M1558.42 187.086L1492.41 233.164L1497.55 186.07L1558.42 187.086Z" fill="#896E19"/>
<path fill-rule="evenodd" clip-rule="evenodd" d="M1489.51 153.334L1477.39 154.608L1495.47 122.616L1489.51 153.334Z" fill="#FFFCDA"/>
<path fill-rule="evenodd" clip-rule="evenodd" d="M1505.89 129.372L1489.51 153.335L1495.47 122.617L1505.89 129.372Z" fill="#FFF8D7"/>
<path fill-rule="evenodd" clip-rule="evenodd" d="M1477.39 154.608L1459.25 216.371L1473.98 137.958L1477.39 154.608Z" fill="#D4BB7B"/>
<path fill-rule="evenodd" clip-rule="evenodd" d="M1489.51 153.334L1459.25 216.371L1477.39 154.608L1489.51 153.334Z" fill="#B59B56"/>
<path fill-rule="evenodd" clip-rule="evenodd" d="M1495.84 155.286L1459.25 216.371L1489.51 153.334L1495.84 155.286Z" fill="#AB8C3E"/>
<path fill-rule="evenodd" clip-rule="evenodd" d="M1495.84 155.286L1489.51 153.334L1505.89 129.372L1495.84 155.286Z" fill="#FAEAC2"/>
<path fill-rule="evenodd" clip-rule="evenodd" d="M1477.39 154.608L1473.98 137.958L1495.47 122.616L1477.39 154.608Z" fill="#D3C296"/>
<path fill-rule="evenodd" clip-rule="evenodd" d="M1460.39 128.92L1444.22 175.43L1447 132.618L1460.39 128.92Z" fill="#796728"/>
<path fill-rule="evenodd" clip-rule="evenodd" d="M1473.98 137.959L1444.22 175.43L1460.39 128.92L1473.98 137.959Z" fill="#896E19"/>
<path fill-rule="evenodd" clip-rule="evenodd" d="M1473.98 137.958L1460.39 128.92L1495.47 122.616L1473.98 137.958Z" fill="#D2B898"/>
<path fill-rule="evenodd" clip-rule="evenodd" d="M1500.09 103.378L1460.39 128.92L1459.47 120.16L1500.09 103.378Z" fill="#978756"/>
<path fill-rule="evenodd" clip-rule="evenodd" d="M1495.47 122.616L1460.39 128.92L1500.09 103.378L1495.47 122.616Z" fill="#D4C486"/>
<path fill-rule="evenodd" clip-rule="evenodd" d="M1522.15 167.982L1497.6 186.056L1495.89 155.271L1522.15 167.982Z" fill="#B38C34"/>
<path fill-rule="evenodd" clip-rule="evenodd" d="M1521.75 139.85L1495.84 155.286L1505.89 129.372L1521.75 139.85Z" fill="#F1E0B3"/>
<path fill-rule="evenodd" clip-rule="evenodd" d="M1522.1 167.996L1495.84 155.285L1521.75 139.85L1522.1 167.996Z" fill="#C6A761"/>
<path fill-rule="evenodd" clip-rule="evenodd" d="M1460.4 128.97L1447 132.618L1458.12 106.074L1460.4 128.97Z" fill="#7A7D6D"/>
<path fill-rule="evenodd" clip-rule="evenodd" d="M1528.87 173.35L1497.6 186.056L1522.1 167.996L1528.87 173.35Z" fill="#B39031"/>
<path fill-rule="evenodd" clip-rule="evenodd" d="M1558.42 187.086L1497.6 186.056L1546.52 177.517L1558.42 187.086Z" fill="#9A822A"/>
<path fill-rule="evenodd" clip-rule="evenodd" d="M1546.52 177.517L1497.6 186.056L1528.87 173.35L1546.52 177.517Z" fill="#B9973B"/>
<path fill-rule="evenodd" clip-rule="evenodd" d="M1577.26 166.026L1549.16 124.497L1576.63 152.682L1577.26 166.026Z" fill="#19030D"/>
<path fill-rule="evenodd" clip-rule="evenodd" d="M1551.13 143.26L1549.16 124.497L1577.26 166.026L1551.13 143.26Z" fill="#100600"/>
<path fill-rule="evenodd" clip-rule="evenodd" d="M1576.63 152.682L1549.16 124.497L1592.71 152.628L1576.63 152.682Z" fill="#6E4400"/>
<path fill-rule="evenodd" clip-rule="evenodd" d="M1534.25 132.06L1495.47 122.616L1500.09 103.378L1534.25 132.06Z" fill="#EED197"/>
<path fill-rule="evenodd" clip-rule="evenodd" d="M1505.89 129.372L1495.47 122.617L1534.25 132.06L1505.89 129.372Z" fill="#F0E1B7"/>
<path fill-rule="evenodd" clip-rule="evenodd" d="M1536.44 117.018L1516.38 102.298L1517.79 99.9199L1536.44 117.018Z" fill="#896727"/>
<path fill-rule="evenodd" clip-rule="evenodd" d="M1538.34 132.835L1516.38 102.298L1536.44 117.018L1538.34 132.835Z" fill="#BF9D4A"/>
<path fill-rule="evenodd" clip-rule="evenodd" d="M1552.95 154.412L1538.34 132.835L1541.27 126.85L1552.95 154.412Z" fill="#C39F47"/>
<path fill-rule="evenodd" clip-rule="evenodd" d="M1580.5 192.878L1552.95 154.412L1585.75 188.676L1580.5 192.878Z" fill="#745508"/>
<path fill-rule="evenodd" clip-rule="evenodd" d="M1552.95 154.412L1551.13 143.26L1577.26 166.026L1552.95 154.412Z" fill="#FFF8A5"/>
<path fill-rule="evenodd" clip-rule="evenodd" d="M1585.77 188.613L1552.97 154.349L1577.28 165.962L1585.77 188.613Z" fill="#FEDB88"/>
<path fill-rule="evenodd" clip-rule="evenodd" d="M1558.42 187.086L1552.95 154.412L1580.5 192.878L1558.42 187.086Z" fill="#F1CA62"/>
<path fill-rule="evenodd" clip-rule="evenodd" d="M1543.72 163.695L1522.1 167.996L1521.75 139.85L1543.72 163.695Z" fill="#CCA94F"/>
<path fill-rule="evenodd" clip-rule="evenodd" d="M1521.75 139.85L1505.89 129.372L1534.25 132.06L1521.75 139.85Z" fill="#EBCF83"/>
<path fill-rule="evenodd" clip-rule="evenodd" d="M1543.72 163.695L1521.75 139.85L1534.25 132.06L1543.72 163.695Z" fill="#E3B342"/>
<path fill-rule="evenodd" clip-rule="evenodd" d="M1543.72 163.695L1534.25 132.06L1538.34 132.835L1543.72 163.695Z" fill="#F6CE58"/>
<path fill-rule="evenodd" clip-rule="evenodd" d="M1534.25 132.06L1516.38 102.298L1538.34 132.835L1534.25 132.06Z" fill="#D4B04A"/>
<path fill-rule="evenodd" clip-rule="evenodd" d="M1534.25 132.06L1500.09 103.378L1516.38 102.298L1534.25 132.06Z" fill="#EDCB7A"/>
<path fill-rule="evenodd" clip-rule="evenodd" d="M1536.44 117.018L1517.79 99.9199L1545.2 96.4312L1536.44 117.018Z" fill="#F9EDA3"/>
<path fill-rule="evenodd" clip-rule="evenodd" d="M1538.34 132.835L1536.44 117.018L1545.2 96.4312L1538.34 132.835Z" fill="#FFE28E"/>
<path fill-rule="evenodd" clip-rule="evenodd" d="M1541.27 126.85L1538.34 132.835L1545.2 96.4312L1541.27 126.85Z" fill="#F4D166"/>
<path fill-rule="evenodd" clip-rule="evenodd" d="M1552.95 154.413L1541.12 126.529L1549.16 124.497L1552.95 154.413Z" fill="#866547"/>
<path fill-rule="evenodd" clip-rule="evenodd" d="M1549.16 124.497L1541.12 126.529L1548.83 115.264L1549.16 124.497Z" fill="#7A5B00"/>
<path fill-rule="evenodd" clip-rule="evenodd" d="M1592.71 152.628L1549.16 124.497L1548.83 115.265L1592.71 152.628Z" fill="#977E29"/>
<path fill-rule="evenodd" clip-rule="evenodd" d="M1548.83 115.265L1541.12 126.529L1545.2 96.4312L1548.83 115.265Z" fill="#ECD384"/>
<path fill-rule="evenodd" clip-rule="evenodd" d="M1548.83 115.264L1545.2 96.4312L1571.41 101.771L1548.83 115.264Z" fill="#FFFAB3"/>
<path fill-rule="evenodd" clip-rule="evenodd" d="M1591.5 117.414L1548.86 115.385L1571.33 101.762L1591.5 117.414Z" fill="#FEF4BD"/>
<path fill-rule="evenodd" clip-rule="evenodd" d="M1592.71 152.628L1548.83 115.265L1585.35 129.96L1592.71 152.628Z" fill="#F2D866"/>
<path fill-rule="evenodd" clip-rule="evenodd" d="M1585.35 129.96L1548.83 115.265L1591.44 117.545L1585.35 129.96Z" fill="#F0E6A9"/>
<path fill-rule="evenodd" clip-rule="evenodd" d="M1543.72 163.696L1538.34 132.835L1552.95 154.412L1543.72 163.696Z" fill="#DEBB4B"/>
<path fill-rule="evenodd" clip-rule="evenodd" d="M1558.42 187.086L1543.72 163.696L1552.95 154.413L1558.42 187.086Z" fill="#EFC77A"/>
<path fill-rule="evenodd" clip-rule="evenodd" d="M1546.52 177.517L1528.87 173.35L1543.72 163.695L1546.52 177.517Z" fill="#DAC697"/>
<path fill-rule="evenodd" clip-rule="evenodd" d="M1546.52 177.517L1543.72 163.696L1558.42 187.086L1546.52 177.517Z" fill="#DABB73"/>
<path fill-rule="evenodd" clip-rule="evenodd" d="M1528.87 173.35L1522.1 167.996L1543.72 163.696L1528.87 173.35Z" fill="#C5B06D"/>
<path fill-rule="evenodd" clip-rule="evenodd" d="M1580.24 230.802L1525.64 228.69L1541.18 219.861L1580.24 230.802Z" fill="#0C0000"/>
<path fill-rule="evenodd" clip-rule="evenodd" d="M1535.65 240.068L1499.69 251.37L1525.64 228.69L1535.65 240.068Z" fill="#524819"/>
<path fill-rule="evenodd" clip-rule="evenodd" d="M1543.02 259.245L1499.69 251.37L1535.65 240.068L1543.02 259.245Z" fill="#453F0F"/>
<path fill-rule="evenodd" clip-rule="evenodd" d="M1535.65 240.068L1525.64 228.69L1580.24 230.802L1535.65 240.068Z" fill="#201507"/>
<path fill-rule="evenodd" clip-rule="evenodd" d="M1543.02 259.245L1535.65 240.068L1580.24 230.802L1543.02 259.245Z" fill="#524705"/>
<path fill-rule="evenodd" clip-rule="evenodd" d="M1639.36 247.92L1583.6 273.624L1588.69 237.109L1639.36 247.92Z" fill="#7E6500"/>
<path fill-rule="evenodd" clip-rule="evenodd" d="M1583.6 273.624L1573.35 241.774L1588.69 237.109L1583.6 273.624Z" fill="#715804"/>
<path fill-rule="evenodd" clip-rule="evenodd" d="M1583.6 273.624L1543.02 259.245L1573.35 241.774L1583.6 273.624Z" fill="#341E00"/>
<path fill-rule="evenodd" clip-rule="evenodd" d="M1573.35 241.774L1543.02 259.245L1580.24 230.802L1573.35 241.774Z" fill="#5B5201"/>
<path fill-rule="evenodd" clip-rule="evenodd" d="M1588.69 237.109L1573.35 241.774L1580.24 230.802L1588.69 237.109Z" fill="#1E0F00"/>
<path fill-rule="evenodd" clip-rule="evenodd" d="M1588.69 237.109L1580.24 230.802L1640.8 232.504L1588.69 237.109Z" fill="#1A0000"/>
<path fill-rule="evenodd" clip-rule="evenodd" d="M1639.36 247.92L1588.69 237.109L1640.8 232.505L1639.36 247.92Z" fill="#FFE583"/>
<path fill-rule="evenodd" clip-rule="evenodd" d="M1640.8 232.504L1580.24 230.802L1591.01 212.989L1640.8 232.504Z" fill="#A99838"/>
<path fill-rule="evenodd" clip-rule="evenodd" d="M1580.24 230.802L1541.18 219.862L1591.01 212.989L1580.24 230.802Z" fill="#6D5803"/>
<path fill-rule="evenodd" clip-rule="evenodd" d="M1591.01 212.989L1541.18 219.862L1558.42 187.086L1591.01 212.989Z" fill="#B29962"/>
<path fill-rule="evenodd" clip-rule="evenodd" d="M1591.01 212.989L1558.42 187.086L1580.5 192.878L1591.01 212.989Z" fill="#C5A974"/>
<path fill-rule="evenodd" clip-rule="evenodd" d="M1591.01 212.989C1589.46 212.825 1580.5 192.878 1580.5 192.878L1585.75 188.677C1585.75 188.677 1592.56 213.153 1591.01 212.989Z" fill="#A98D36"/>
<path fill-rule="evenodd" clip-rule="evenodd" d="M1640.8 232.505L1585.75 188.677L1592.71 152.628L1640.8 232.505Z" fill="#BF9E55"/>
<path fill-rule="evenodd" clip-rule="evenodd" d="M1591.01 212.989L1585.75 188.676L1640.8 232.504L1591.01 212.989Z" fill="#D5B543"/>
<path fill-rule="evenodd" clip-rule="evenodd" d="M1592.71 152.628L1577.26 166.026L1576.63 152.682L1592.71 152.628Z" fill="#512E00"/>
<path fill-rule="evenodd" clip-rule="evenodd" d="M1665 263.541L1639.36 247.92L1678.23 253.429L1665 263.541Z" fill="#473220"/>
<path fill-rule="evenodd" clip-rule="evenodd" d="M1665 263.541L1583.6 273.624L1639.36 247.92L1665 263.541Z" fill="#A89547"/>
<path fill-rule="evenodd" clip-rule="evenodd" d="M1731.85 253.463L1693.75 235.978L1732.77 247.696L1731.85 253.463Z" fill="#422B00"/>
<path fill-rule="evenodd" clip-rule="evenodd" d="M1693.53 240.347L1640.8 232.505L1693.75 235.978L1693.53 240.347Z" fill="#6F5B09"/>
<path fill-rule="evenodd" clip-rule="evenodd" d="M1731.85 253.463L1693.53 240.347L1693.75 235.978L1731.85 253.463Z" fill="#5D4C02"/>
<path fill-rule="evenodd" clip-rule="evenodd" d="M1678.23 253.429L1639.36 247.92L1640.8 232.505L1678.23 253.429Z" fill="#FFFFC9"/>
<path fill-rule="evenodd" clip-rule="evenodd" d="M1741.42 271.645L1678.23 253.428L1686.55 246.332L1741.42 271.645Z" fill="#423619"/>
<path fill-rule="evenodd" clip-rule="evenodd" d="M1678.23 253.428L1640.8 232.504L1686.55 246.332L1678.23 253.428Z" fill="#D3C185"/>
<path fill-rule="evenodd" clip-rule="evenodd" d="M1686.55 246.332L1640.8 232.504L1693.53 240.347L1686.55 246.332Z" fill="#57440B"/>
<path fill-rule="evenodd" clip-rule="evenodd" d="M1731.85 253.463L1686.55 246.332L1693.53 240.347L1731.85 253.463Z" fill="#FFF7C7"/>
<path fill-rule="evenodd" clip-rule="evenodd" d="M1741.42 271.645L1686.55 246.332L1731.85 253.463L1741.42 271.645Z" fill="#8F773F"/>
<path fill-rule="evenodd" clip-rule="evenodd" d="M1732.77 247.696L1693.75 235.978L1715.91 217.197L1732.77 247.696Z" fill="#C2B583"/>
<path fill-rule="evenodd" clip-rule="evenodd" d="M1693.75 235.978L1640.8 232.505L1676.11 213.856L1693.75 235.978Z" fill="#F4DA99"/>
<path fill-rule="evenodd" clip-rule="evenodd" d="M1592.71 152.628L1585.35 129.96L1591.44 117.544L1592.71 152.628Z" fill="#FAEFA7"/>
<path fill-rule="evenodd" clip-rule="evenodd" d="M1715.91 217.197L1693.75 235.978L1693.49 193.386L1715.91 217.197Z" fill="#94895B"/>
<path fill-rule="evenodd" clip-rule="evenodd" d="M1693.75 235.978L1676.11 213.856L1693.49 193.386L1693.75 235.978Z" fill="#847535"/>
<path fill-rule="evenodd" clip-rule="evenodd" d="M1693.49 193.386L1624.06 163.07L1640.58 138.11L1693.49 193.386Z" fill="#393A2B"/>
<path fill-rule="evenodd" clip-rule="evenodd" d="M1693.52 193.379L1640.6 138.104L1694.25 134.755L1693.52 193.379Z" fill="#302C1F"/>
<path fill-rule="evenodd" clip-rule="evenodd" d="M1624.06 163.07L1591.44 117.544L1640.58 138.111L1624.06 163.07Z" fill="#494F31"/>
<path fill-rule="evenodd" clip-rule="evenodd" d="M1624.06 163.07L1592.71 152.628L1591.44 117.544L1624.06 163.07Z" fill="#AD8E55"/>
<path fill-rule="evenodd" clip-rule="evenodd" d="M1585.75 188.677L1577.26 166.026L1592.71 152.628L1585.75 188.677Z" fill="#D1B867"/>
<path fill-rule="evenodd" clip-rule="evenodd" d="M1676.11 213.856L1624.06 163.07L1693.49 193.386L1676.11 213.856Z" fill="#736838"/>
<path fill-rule="evenodd" clip-rule="evenodd" d="M1640.8 232.505L1592.71 152.628L1624.06 163.07L1640.8 232.505Z" fill="#8F7420"/>
<path fill-rule="evenodd" clip-rule="evenodd" d="M1640.8 232.504L1624.06 163.07L1676.11 213.856L1640.8 232.504Z" fill="#C0A251"/>
<path fill-rule="evenodd" clip-rule="evenodd" d="M1694.22 134.762L1640.58 138.11L1643.06 114.301L1694.22 134.762Z" fill="#3A3A34"/>
<path fill-rule="evenodd" clip-rule="evenodd" d="M1525.64 228.69L1471.42 252.052L1492.41 233.164L1525.64 228.69Z" fill="#261401"/>
<path fill-rule="evenodd" clip-rule="evenodd" d="M1499.69 251.37L1471.42 252.052L1525.64 228.69L1499.69 251.37Z" fill="#241600"/>
<path fill-rule="evenodd" clip-rule="evenodd" d="M1473.27 288.513L1453.71 325.636L1463.96 272.459L1473.27 288.513Z" fill="#191F0C"/>
<path fill-rule="evenodd" clip-rule="evenodd" d="M1583.6 273.624L1473.27 288.513L1473.08 275.1L1583.6 273.624Z" fill="#050000"/>
<path fill-rule="evenodd" clip-rule="evenodd" d="M1473.27 288.513L1463.96 272.459L1473.08 275.099L1473.27 288.513Z" fill="#1B2217"/>
<path fill-rule="evenodd" clip-rule="evenodd" d="M1583.6 273.624L1473.08 275.1L1543.02 259.245L1583.6 273.624Z" fill="#0D0706"/>
<path fill-rule="evenodd" clip-rule="evenodd" d="M1543.02 259.244L1473.08 275.1L1471.89 258.544L1543.02 259.244Z" fill="#130A10"/>
<path fill-rule="evenodd" clip-rule="evenodd" d="M1473.08 275.1L1463.96 272.459L1471.42 252.052L1473.08 275.1Z" fill="#080702"/>
<path fill-rule="evenodd" clip-rule="evenodd" d="M1543.02 259.245L1471.89 258.544L1499.69 251.37L1543.02 259.245Z" fill="#1B120D"/>
<path fill-rule="evenodd" clip-rule="evenodd" d="M1471.89 258.544L1471.42 252.052L1499.69 251.37L1471.89 258.544Z" fill="#1B1003"/>
<path fill-rule="evenodd" clip-rule="evenodd" d="M1493.69 332.789L1473.27 288.513L1583.6 273.624L1493.69 332.789Z" fill="#0D0500"/>
<path fill-rule="evenodd" clip-rule="evenodd" d="M1511.78 377.334L1493.69 332.789L1583.6 273.624L1511.78 377.334Z" fill="#181208"/>
<path fill-rule="evenodd" clip-rule="evenodd" d="M1583.6 273.624L1526 428.826L1511.78 377.334" fill="#121711"/>
<path fill-rule="evenodd" clip-rule="evenodd" d="M1446.09 323.814L1428.12 287.126L1453.71 325.636L1446.09 323.814Z" fill="#3B3010"/>
<path fill-rule="evenodd" clip-rule="evenodd" d="M1764.57 331.575L1639.54 283.661L1715.18 289.231L1764.57 331.575Z" fill="#2E2B14"/>
<path fill-rule="evenodd" clip-rule="evenodd" d="M1715.18 289.231L1639.54 283.661L1665 263.541L1715.18 289.231Z" fill="#4C3D15"/>
<path fill-rule="evenodd" clip-rule="evenodd" d="M1639.54 283.662L1583.6 273.624L1665 263.541L1639.54 283.662Z" fill="#594712"/>
<path fill-rule="evenodd" clip-rule="evenodd" d="M1639.12 309.982L1583.6 273.624L1639.54 283.661L1639.12 309.982Z" fill="#0F080D"/>
<path fill-rule="evenodd" clip-rule="evenodd" d="M1764.57 331.574L1639.11 309.981L1639.54 283.66L1764.57 331.574Z" fill="#3C3F38"/>
<path fill-rule="evenodd" clip-rule="evenodd" d="M1788.16 264.552L1731.85 253.463L1780.78 257.478L1788.16 264.552Z" fill="#240E00"/>
<path fill-rule="evenodd" clip-rule="evenodd" d="M1780.78 257.478L1731.85 253.463L1732.77 247.696L1780.78 257.478Z" fill="#332100"/>
<path fill-rule="evenodd" clip-rule="evenodd" d="M1741.43 271.744L1731.86 253.56L1788.17 264.65L1741.43 271.744Z" fill="#D6C08C"/>
<path fill-rule="evenodd" clip-rule="evenodd" d="M1786.72 281.087L1741.42 271.645L1788.16 264.552L1786.72 281.087Z" fill="#4C3908"/>
<path fill-rule="evenodd" clip-rule="evenodd" d="M1780.78 257.478L1732.77 247.696L1779.12 246.532L1780.78 257.478Z" fill="#837953"/>
<path fill-rule="evenodd" clip-rule="evenodd" d="M1845.04 196.101L1820.06 184.335L1817.58 135.207L1845.04 196.101Z" fill="#88856F"/>
<path fill-rule="evenodd" clip-rule="evenodd" d="M1845.04 196.101L1766.11 213.883L1820.06 184.335L1845.04 196.101Z" fill="#635F46"/>
<path fill-rule="evenodd" clip-rule="evenodd" d="M1820.06 184.335L1766.11 213.883L1768.23 201.231L1820.06 184.335Z" fill="#706940"/>
<path fill-rule="evenodd" clip-rule="evenodd" d="M1820.06 184.335L1800.91 144.156L1817.58 135.207L1820.06 184.335Z" fill="#574A31"/>
<path fill-rule="evenodd" clip-rule="evenodd" d="M1817.58 135.207L1769.67 123.889L1782.07 118.006L1817.58 135.207Z" fill="#8B8B73"/>
<path fill-rule="evenodd" clip-rule="evenodd" d="M1800.9 144.156L1769.67 123.889L1817.58 135.208L1800.9 144.156Z" fill="#47452C"/>
<path fill-rule="evenodd" clip-rule="evenodd" d="M1769.67 123.889L1715.06 132.573L1728.04 106.677L1769.67 123.889Z" fill="#7A7A79"/>
<path fill-rule="evenodd" clip-rule="evenodd" d="M1769.67 123.889L1728.04 106.677L1782.07 118.006L1769.67 123.889Z" fill="#767260"/>
<path fill-rule="evenodd" clip-rule="evenodd" d="M1715.06 132.573L1694.22 134.762L1728.04 106.677L1715.06 132.573Z" fill="#706C6B"/>
<path fill-rule="evenodd" clip-rule="evenodd" d="M1694.23 134.762L1643.06 114.301L1728.04 106.677L1694.23 134.762Z" fill="#70706E"/>
<path fill-rule="evenodd" clip-rule="evenodd" d="M1766.11 213.883L1718.03 200.947L1722.02 180.576L1766.11 213.883Z" fill="#383019"/>
<path fill-rule="evenodd" clip-rule="evenodd" d="M1715.91 217.197L1693.49 193.386L1718.03 200.947L1715.91 217.197Z" fill="#595542"/>
<path fill-rule="evenodd" clip-rule="evenodd" d="M1766.11 213.883L1715.91 217.197L1718.03 200.947L1766.11 213.883Z" fill="#45453D"/>
<path fill-rule="evenodd" clip-rule="evenodd" d="M1732.77 247.696L1715.91 217.197L1766.11 213.883L1732.77 247.696Z" fill="#5C6152"/>
<path fill-rule="evenodd" clip-rule="evenodd" d="M1766.11 213.883L1722.02 180.576L1768.23 201.231L1766.11 213.883Z" fill="#1E1600"/>
<path fill-rule="evenodd" clip-rule="evenodd" d="M1718.03 200.947L1693.49 193.386L1722.02 180.576L1718.03 200.947Z" fill="#3D3925"/>
<path fill-rule="evenodd" clip-rule="evenodd" d="M1722.02 180.576L1693.49 193.386L1705.54 173.15L1722.02 180.576Z" fill="#28250C"/>
<path fill-rule="evenodd" clip-rule="evenodd" d="M1705.54 173.15L1693.49 193.386L1694.22 134.762L1705.54 173.15Z" fill="#312D17"/>
<path fill-rule="evenodd" clip-rule="evenodd" d="M1755.6 146.628L1717.68 150.286L1769.62 137.959L1755.6 146.628Z" fill="#0C0703"/>
<path fill-rule="evenodd" clip-rule="evenodd" d="M1722.02 180.576L1705.54 173.15L1717.68 150.286L1722.02 180.576Z" fill="#040000"/>
<path fill-rule="evenodd" clip-rule="evenodd" d="M1717.68 150.286L1715.06 132.573L1769.62 137.959L1717.68 150.286Z" fill="#030000"/>
<path fill-rule="evenodd" clip-rule="evenodd" d="M1717.68 150.286L1694.22 134.762L1715.06 132.573L1717.68 150.286Z" fill="#0C0703"/>
<path fill-rule="evenodd" clip-rule="evenodd" d="M1705.54 173.15L1694.22 134.762L1717.68 150.286L1705.54 173.15Z" fill="#0F0C0A"/>
<path fill-rule="evenodd" clip-rule="evenodd" d="M1769.62 137.958L1715.06 132.573L1769.67 123.888L1769.62 137.958Z" fill="#0E0300"/>
<path fill-rule="evenodd" clip-rule="evenodd" d="M1782.68 156.538L1755.6 146.628L1769.62 137.959L1782.68 156.538Z" fill="#060405"/>
<path fill-rule="evenodd" clip-rule="evenodd" d="M1722.76 162.181L1717.68 150.286L1755.6 146.628L1722.76 162.181Z" fill="#050201"/>
<path fill-rule="evenodd" clip-rule="evenodd" d="M1722.02 180.576L1717.68 150.286L1722.76 162.181L1722.02 180.576Z" fill="#030000"/>
<path fill-rule="evenodd" clip-rule="evenodd" d="M1765.34 173.733L1756.52 151.765L1768.83 159.628L1765.34 173.733Z" fill="#09070B"/>
<path fill-rule="evenodd" clip-rule="evenodd" d="M1765.34 173.733L1745.21 160.803L1756.52 151.765L1765.34 173.733Z" fill="#010006"/>
<path fill-rule="evenodd" clip-rule="evenodd" d="M1800.91 144.156L1769.62 137.959L1769.67 123.889L1800.91 144.156Z" fill="#080500"/>
<path fill-rule="evenodd" clip-rule="evenodd" d="M1784.95 149.508L1782.68 156.538L1769.62 137.959L1780.17 143.958L1784.95 149.508Z" fill="#3C3F36"/>
<path fill-rule="evenodd" clip-rule="evenodd" d="M1780.17 143.958L1769.62 137.958L1787.06 144.839L1780.17 143.958Z" fill="#4F474C"/>
<path fill-rule="evenodd" clip-rule="evenodd" d="M1787.06 144.839L1769.62 137.958L1800.91 144.155L1787.06 144.839Z" fill="#443C41"/>
<path fill-rule="evenodd" clip-rule="evenodd" d="M1768.83 159.628L1756.52 151.765L1782.68 156.538L1768.83 159.628Z" fill="#141511"/>
<path fill-rule="evenodd" clip-rule="evenodd" d="M1756.52 151.764L1755.6 146.628L1782.68 156.538L1756.52 151.764Z" fill="#0C0E0D"/>
<path fill-rule="evenodd" clip-rule="evenodd" d="M1756.52 151.764L1722.76 162.181L1755.6 146.628L1756.52 151.764Z" fill="#17180B"/>
<path fill-rule="evenodd" clip-rule="evenodd" d="M1745.21 160.803L1722.76 162.181L1756.52 151.765L1745.21 160.803Z" fill="#17180B"/>
<path fill-rule="evenodd" clip-rule="evenodd" d="M1745.21 160.803L1722.02 180.576L1722.76 162.181L1745.21 160.803Z" fill="#1F1E0E"/>
<path fill-rule="evenodd" clip-rule="evenodd" d="M1751.25 174.559L1745.21 160.802L1765.34 173.733L1751.25 174.559Z" fill="#020000"/>
<path fill-rule="evenodd" clip-rule="evenodd" d="M1772.58 166.103L1765.34 173.733L1768.83 159.628L1772.58 166.103Z" fill="#080800"/>
<path fill-rule="evenodd" clip-rule="evenodd" d="M1792 190.556L1772.58 166.103L1803.13 154.388L1792 190.556Z" fill="#424523"/>
<path fill-rule="evenodd" clip-rule="evenodd" d="M1803.13 154.388L1772.58 166.103L1782.68 156.538L1803.13 154.388Z" fill="#424523"/>
<path fill-rule="evenodd" clip-rule="evenodd" d="M1772.58 166.104L1768.83 159.628L1782.68 156.538L1772.58 166.104Z" fill="#31341D"/>
<path fill-rule="evenodd" clip-rule="evenodd" d="M1820.06 184.335L1768.23 201.231L1792 190.556L1820.06 184.335Z" fill="#2E2A0E"/>
<path fill-rule="evenodd" clip-rule="evenodd" d="M1768.23 201.231L1765.34 173.733L1792 190.556L1768.23 201.231Z" fill="#615E42"/>
<path fill-rule="evenodd" clip-rule="evenodd" d="M1792 190.556L1765.34 173.733L1772.58 166.103L1792 190.556Z" fill="#5C5D40"/>
<path fill-rule="evenodd" clip-rule="evenodd" d="M1768.23 201.231L1751.25 174.559L1765.34 173.733L1768.23 201.231Z" fill="#65653D"/>
<path fill-rule="evenodd" clip-rule="evenodd" d="M1768.23 201.231L1722.02 180.576L1733.97 174.086L1768.23 201.231Z" fill="#B8B396"/>
<path fill-rule="evenodd" clip-rule="evenodd" d="M1768.23 201.231L1733.97 174.086L1745.21 160.803L1768.23 201.231Z" fill="#4F4A29"/>
<path fill-rule="evenodd" clip-rule="evenodd" d="M1733.97 174.086L1722.02 180.576L1745.21 160.803L1733.97 174.086Z" fill="#383620"/>
<path fill-rule="evenodd" clip-rule="evenodd" d="M1782.07 118.006L1728.04 106.677L1749.69 79.5427L1782.07 118.006Z" fill="#9899AD"/>
<path fill-rule="evenodd" clip-rule="evenodd" d="M1784.95 149.508L1780.17 143.958L1787.06 144.839L1784.95 149.508Z" fill="#FBFDF5"/>
<path fill-rule="evenodd" clip-rule="evenodd" d="M1800.91 144.155L1784.95 149.508L1787.06 144.839L1800.91 144.155Z" fill="#28282B"/>
<path fill-rule="evenodd" clip-rule="evenodd" d="M1806.85 182.454L1792 190.556L1803.13 154.388L1806.85 182.454Z" fill="#040002"/>
<path fill-rule="evenodd" clip-rule="evenodd" d="M1806.85 182.454L1803.13 154.388L1820.06 184.335L1806.85 182.454Z" fill="#2F1E04"/>
<path fill-rule="evenodd" clip-rule="evenodd" d="M1820.09 184.378L1792.02 190.599L1806.87 182.497L1820.09 184.378Z" fill="#766537"/>
<path fill-rule="evenodd" clip-rule="evenodd" d="M1803.13 154.388L1800.91 144.155L1820.06 184.335L1803.13 154.388Z" fill="#281900"/>
<path fill-rule="evenodd" clip-rule="evenodd" d="M1803.13 154.388L1784.95 149.508L1800.91 144.155L1803.13 154.388Z" fill="#00000B"/>
<path fill-rule="evenodd" clip-rule="evenodd" d="M1803.13 154.388L1782.68 156.538L1784.95 149.508L1803.13 154.388Z" fill="#353926"/>
<path fill-rule="evenodd" clip-rule="evenodd" d="M1782.07 118.006L1728.04 106.677L1749.69 79.5427L1782.07 118.006Z" stroke="#231F20" stroke-width="2" stroke-linejoin="round"/>
<path fill-rule="evenodd" clip-rule="evenodd" d="M1428.64 162.022L1447 132.618L1458.12 106.074L1460.44 122.337L1460.45 119.756L1500.09 103.378L1516.38 102.298L1517.79 99.9196L1545.2 96.4309L1571.41 101.77L1571.37 101.791L1591.5 117.414L1591.44 117.544L1640.58 138.11L1640.61 138.109L1640.58 138.11L1643.06 114.3L1728.04 106.677L1749.69 79.5427L1782.07 118.006L1817.44 135.139L1817.61 135.18L1817.57 135.202L1817.58 135.207L1817.57 135.204L1817.58 135.207L1845.04 196.101L1766.11 213.883L1765.2 213.637L1766.11 213.883L1732.77 247.696L1779.12 246.532L1780.78 257.478L1788.16 264.552L1787.88 264.594L1788.16 264.552L1788.15 264.647L1788.17 264.65L1788.15 264.653L1786.72 281.087L1741.7 271.703L1741.43 271.744L1741.37 271.631L1678.23 253.428L1665 263.541L1715.18 289.23L1764.57 331.575L1764.38 331.595L1638.93 310.002V309.859L1583.6 273.624L1526 428.826L1511.78 377.334L1493.69 332.789L1473.27 288.513L1473.24 288.462L1473.27 288.513L1453.71 325.636L1446.09 323.814L1428.12 287.126L1419.9 210.04L1428.64 162.022Z" stroke="#231F20" stroke-width="5" stroke-linejoin="round"/>
<path fill-rule="evenodd" clip-rule="evenodd" d="M95.5033 485.937L95.5214 484.985L44.5158 484.363L44.4976 485.315L95.5033 485.937Z" fill="#181716"/>
<path fill-rule="evenodd" clip-rule="evenodd" d="M95.5234 485.555L7.82985 319.168L7.0896 319.562L94.7817 485.948L95.5234 485.555Z" fill="#181716"/>
<path fill-rule="evenodd" clip-rule="evenodd" d="M45.4767 485.134L7.91983 319.173L7.1001 319.359L44.6568 485.323L45.4767 485.134Z" fill="#181716"/>
<path fill-rule="evenodd" clip-rule="evenodd" d="M45.5065 484.565L-61.302 444.722L-61.5962 445.51L45.2123 485.353L45.5065 484.565Z" fill="#181716"/>
<path fill-rule="evenodd" clip-rule="evenodd" d="M45.4966 484.757L-91.4799 338.998L-92.0938 339.576L44.8828 485.335L45.4966 484.757Z" fill="#181716"/>
<path fill-rule="evenodd" clip-rule="evenodd" d="M468.831 470.34L456.608 457.846L456.46 458.001L468.683 470.495L468.831 470.34Z" fill="#181716"/>
<path fill-rule="evenodd" clip-rule="evenodd" d="M456.413 458.897L456.215 458.826L445.757 490.262L445.956 490.333L456.413 458.897Z" fill="#181716"/>
<path fill-rule="evenodd" clip-rule="evenodd" d="M438.487 476.116L438.386 475.917L424.056 483.984L424.157 484.183L438.487 476.116Z" fill="#181716"/>
<path fill-rule="evenodd" clip-rule="evenodd" d="M445.817 489.117L424.145 483.181L424.087 483.385L445.759 489.321L445.817 489.117Z" fill="#181716"/>
<path fill-rule="evenodd" clip-rule="evenodd" d="M438.494 475.979L438.287 475.911L426.63 511.293L426.836 511.361L438.494 475.979Z" fill="#181716"/>
<path fill-rule="evenodd" clip-rule="evenodd" d="M445.799 489.459L445.638 489.315L426.634 511.215L426.797 511.359L445.799 489.459Z" fill="#181716"/>
<path fill-rule="evenodd" clip-rule="evenodd" d="M469.81 470.772L469.775 470.552L438.509 475.705L438.542 475.925L469.81 470.772Z" fill="#181716"/>
<path fill-rule="evenodd" clip-rule="evenodd" d="M483.865 470.092L456.492 458.841L456.406 459.033L483.777 470.285L483.865 470.092Z" fill="#181716"/>
<path fill-rule="evenodd" clip-rule="evenodd" d="M492.094 446.827L491.934 446.679L468.83 470.363L468.989 470.511L492.094 446.827Z" fill="#181716"/>
<path fill-rule="evenodd" clip-rule="evenodd" d="M492.09 446.896L492.022 446.684L456.427 458.63L456.493 458.841L492.09 446.896Z" fill="#181716"/>
<path fill-rule="evenodd" clip-rule="evenodd" d="M492.097 446.754L491.884 446.676L482.859 470.17L483.072 470.247L492.097 446.754Z" fill="#181716"/>
<path fill-rule="evenodd" clip-rule="evenodd" d="M174.44 527.429L174.285 527.165L150.661 541.691L150.815 541.957L174.44 527.429Z" fill="#181716"/>
<path fill-rule="evenodd" clip-rule="evenodd" d="M211.998 536.861L174.517 527.177L174.438 527.466L211.919 537.149L211.998 536.861Z" fill="#181716"/>
<path fill-rule="evenodd" clip-rule="evenodd" d="M211.969 537.415L211.827 537.143L167.747 559.602L167.888 559.875L211.969 537.415Z" fill="#181716"/>
<path fill-rule="evenodd" clip-rule="evenodd" d="M167.729 559.95L167.43 559.851L151.244 606.986L151.543 607.084L167.729 559.95Z" fill="#181716"/>
<path fill-rule="evenodd" clip-rule="evenodd" d="M153.247 645.203L152.536 607.136L152.237 607.143L152.949 645.21L153.247 645.203Z" fill="#181716"/>
<path fill-rule="evenodd" clip-rule="evenodd" d="M153.252 645.109L144.707 622.748L144.405 622.849L152.95 645.21L153.252 645.109Z" fill="#181716"/>
<path fill-rule="evenodd" clip-rule="evenodd" d="M184.599 581.982L184.383 581.768L144.421 622.532L144.636 622.744L184.599 581.982Z" fill="#181716"/>
<path fill-rule="evenodd" clip-rule="evenodd" d="M174.455 527.132L173.496 512.103L173.239 512.132L174.2 527.161L174.455 527.132Z" fill="#181716"/>
<path fill-rule="evenodd" clip-rule="evenodd" d="M174.451 527.22L174.172 527.159L167.735 559.82L168.014 559.881L174.451 527.22Z" fill="#181716"/>
<path fill-rule="evenodd" clip-rule="evenodd" d="M185.664 580.76L174.755 527.19L174.449 527.248L185.358 580.818L185.664 580.76Z" fill="#181716"/>
<path fill-rule="evenodd" clip-rule="evenodd" d="M173.232 512.267L172.994 512.077L150.657 541.771L150.894 541.961L173.232 512.267Z" fill="#181716"/>
<path fill-rule="evenodd" clip-rule="evenodd" d="M211.996 536.887L173.394 512.098L173.227 512.356L211.829 537.144L211.996 536.887Z" fill="#181716"/>
<path fill-rule="evenodd" clip-rule="evenodd" d="M184.597 582.012L184.41 581.77L151.252 606.837L151.438 607.079L184.597 582.012Z" fill="#181716"/>
<path fill-rule="evenodd" clip-rule="evenodd" d="M185.664 580.76L174.755 527.19L174.449 527.248L185.358 580.818L185.664 580.76Z" fill="#181716"/>
<path fill-rule="evenodd" clip-rule="evenodd" d="M269.537 680.926L242.331 591.815L241.142 592.189L268.347 681.299L269.537 680.926Z" fill="#181716"/>
<path fill-rule="evenodd" clip-rule="evenodd" d="M283.406 530.93L282.188 530.817L268.518 681.259L269.736 681.372L283.406 530.93Z" fill="#181716"/>
<path fill-rule="evenodd" clip-rule="evenodd" d="M419.424 553.246L419.148 552.014L242.175 591.59L242.453 592.822L419.424 553.246Z" fill="#181716"/>
<path fill-rule="evenodd" clip-rule="evenodd" d="M419.44 552.94L418.62 551.987L269.562 680.452L270.38 681.406L419.44 552.94Z" fill="#181716"/>
<path fill-rule="evenodd" clip-rule="evenodd" d="M419.501 551.777L283.597 529.89L283.395 531.136L419.3 553.024L419.501 551.777Z" fill="#181716"/>
<path fill-rule="evenodd" clip-rule="evenodd" d="M-115.169 679.225L34.7239 632.988L34.0967 630.971L-115.797 677.207L-115.169 679.225Z" fill="#181716"/>
<path fill-rule="evenodd" clip-rule="evenodd" d="M136.147 702.409L136.339 700.322L-115.712 677.193L-115.905 679.281L136.147 702.409Z" fill="#181716"/>
<path fill-rule="evenodd" clip-rule="evenodd" d="M99.2882 928.791L101.358 928.328L34.8185 632.01L32.7483 632.473L99.2882 928.791Z" fill="#181716"/>
<path fill-rule="evenodd" clip-rule="evenodd" d="M99.7507 929.816L101.352 928.44L-114.323 678.268L-115.924 679.644L99.7507 929.816Z" fill="#181716"/>
<path fill-rule="evenodd" clip-rule="evenodd" d="M101.446 928.903L138.267 701.746L136.165 701.409L99.343 928.565L101.446 928.903Z" fill="#181716"/>
<path fill-rule="evenodd" clip-rule="evenodd" d="M412.862 754.285L409.594 659.876L398.652 759.179L412.862 754.285ZM409.618 659.663L412.893 754.306L412.882 754.31L398.616 759.224L398.619 759.2L409.587 659.662L409.618 659.663Z" fill="#181716"/>
<path fill-rule="evenodd" clip-rule="evenodd" d="M399.952 794.15L409.562 759.828L398.634 759.513L399.952 794.15ZM409.601 759.799L409.595 759.818L399.93 794.341L399.926 794.246L398.602 759.483L398.619 759.482L409.601 759.799Z" fill="#181716"/>
<path fill-rule="evenodd" clip-rule="evenodd" d="M413.021 753.885L452.564 703.533L409.873 659.751L413.021 753.885ZM452.605 703.531L452.597 703.541L412.994 753.969L412.992 753.927L409.841 659.675L409.868 659.703L452.605 703.531Z" fill="#181716"/>
<path fill-rule="evenodd" clip-rule="evenodd" d="M452.17 827.061L491.438 802.417L457.167 760.364L452.17 827.061ZM491.482 802.423L491.468 802.432L452.136 827.118L452.139 827.088L457.143 760.288L491.482 802.423Z" fill="#181716"/>
<path fill-rule="evenodd" clip-rule="evenodd" d="M399.828 794.27L456.485 761.287L409.46 759.897L399.828 794.27ZM456.589 761.26L456.544 761.286L399.78 794.332L399.789 794.297L409.438 759.866L409.448 759.867L456.589 761.26Z" fill="#181716"/>
<path fill-rule="evenodd" clip-rule="evenodd" d="M238.049 823.174L238.021 823.183L195.247 837.688L195.233 837.647L237.979 823.152L212.896 789.572L212.93 789.547L238.049 823.174Z" fill="#181716"/>
<path fill-rule="evenodd" clip-rule="evenodd" d="M237.61 822.815L277.57 773.986L212.853 789.434L237.61 822.815ZM277.681 773.915L277.641 773.964L237.608 822.884L237.593 822.863L212.781 789.408L212.813 789.4L277.681 773.915Z" fill="#181716"/>
</g>
</g>
<defs>
<clipPath id="clip0_30_5020">
<rect width="1920" height="799" fill="white"/>
</clipPath>
<clipPath id="clip1_30_5020">
<rect width="1920" height="1363" fill="white" transform="translate(0.432129)"/>
</clipPath>
</defs>
</svg>
