<svg width="55" height="54" viewBox="0 0 55 54" fill="none" xmlns="http://www.w3.org/2000/svg">
<path d="M54.0361 54H0.0360718V51.75H51.7861V15.75H36.0361V49.5H33.7861V13.5H54.0361V54Z" fill="#303030"/>
<path d="M36.0361 49.5H33.7861V11.25H18.0361V49.5H15.7861V9H36.0361V49.5Z" fill="#303030"/>
<path d="M18.0361 49.5H15.7861V15.75H2.28607V49.5H0.0360718V13.5H18.0361V49.5Z" fill="#303030"/>
<path d="M42.7861 24.0749L39.7486 21.0374L41.3236 19.4624L42.7861 20.9249L46.4986 17.2124L48.0736 18.7874L42.7861 24.0749Z" fill="#303030"/>
<path d="M42.7861 33.0749L39.7486 30.0374L41.3236 28.4624L42.7861 29.9249L46.4986 26.2124L48.0736 27.7874L42.7861 33.0749Z" fill="#303030"/>
<path d="M42.7861 40.9499L39.7486 37.9124L41.3236 36.3374L42.7861 37.7999L46.4986 34.0874L48.0736 35.6624L42.7861 40.9499Z" fill="#303030"/>
<path d="M42.7861 49.9499L39.7486 46.9124L41.3236 45.3374L42.7861 46.7999L46.4986 43.0874L48.0736 44.6624L42.7861 49.9499Z" fill="#303030"/>
<path d="M24.7861 24.0749L21.7486 21.0374L23.3236 19.4624L24.7861 20.9249L28.4986 17.2124L30.0736 18.7874L24.7861 24.0749Z" fill="#303030"/>
<path d="M24.7861 34.1999L21.7486 31.1624L23.3236 29.5874L24.7861 31.0499L28.4986 27.3374L30.0736 28.9124L24.7861 34.1999Z" fill="#303030"/>
<path d="M24.7861 49.9499L21.7486 46.9124L23.3236 45.3374L24.7861 46.7999L28.4986 43.0874L30.0736 44.6624L24.7861 49.9499Z" fill="#303030"/>
<rect x="24.7861" y="37.125" width="2.25" height="2.25" fill="#303030"/>
<path d="M7.91108 24.0749L4.87358 21.0374L6.44858 19.4624L7.91108 20.9249L11.6236 17.2124L13.1986 18.7874L7.91108 24.0749Z" fill="#303030"/>
<rect x="7.91107" y="37.125" width="2.25" height="2.25" fill="#303030"/>
<rect x="7.91107" y="29.25" width="2.25" height="2.25" fill="#303030"/>
<rect x="7.91107" y="45" width="2.25" height="2.25" fill="#303030"/>
<circle cx="46.1611" cy="5.625" r="1.125" fill="#303030"/>
<circle cx="42.7861" cy="5.625" r="1.125" fill="#303030"/>
<path d="M54.0361 13.5H51.7861V2.25H2.28607V4.5H40.5361V6.75H0.0360718V0H54.0361V13.5Z" fill="#303030"/>
<rect x="0.0360718" y="9" width="2.25" height="4.5" fill="#303030"/>
<circle cx="49.5361" cy="5.625" r="1.125" fill="#303030"/>
</svg>
