<svg width="30" height="22" viewBox="0 0 30 22" fill="none" xmlns="http://www.w3.org/2000/svg">
<rect x="2.72723" y="2" width="2" height="2" transform="rotate(-180 2.72723 2)" fill="#353535"/>
<rect x="4.72723" y="4" width="2" height="2" transform="rotate(-180 4.72723 4)" fill="#353535"/>
<rect x="6.72723" y="6" width="2" height="2" transform="rotate(-180 6.72723 6)" fill="#353535"/>
<rect x="8.72723" y="8" width="2" height="2" transform="rotate(-180 8.72723 8)" fill="#353535"/>
<rect x="10.7272" y="10" width="2" height="2" transform="rotate(-180 10.7272 10)" fill="#353535"/>
<rect x="12.7272" y="12" width="2" height="2" transform="rotate(-180 12.7272 12)" fill="#353535"/>
<rect x="10.7272" y="14" width="2" height="2" transform="rotate(-180 10.7272 14)" fill="#353535"/>
<rect x="8.72723" y="16" width="2" height="2" transform="rotate(-180 8.72723 16)" fill="#353535"/>
<rect x="6.72723" y="18" width="2" height="2" transform="rotate(-180 6.72723 18)" fill="#353535"/>
<rect x="4.72723" y="20" width="2" height="2" transform="rotate(-180 4.72723 20)" fill="#353535"/>
<rect x="2.72723" y="22" width="2" height="2" transform="rotate(-180 2.72723 22)" fill="#353535"/>
<rect x="13.9999" y="19.9592" width="16" height="2" fill="#303030"/>
</svg>
