<svg width="153" height="99" viewBox="0 0 153 99" fill="none" xmlns="http://www.w3.org/2000/svg">
<g filter="url(#filter0_d_0_166)">
<path fill-rule="evenodd" clip-rule="evenodd" d="M87.3623 97.8756V80.7227H68.7076C66.3423 80.7227 64.4247 82.5887 64.4247 84.8905V93.8033H60.0284V97.8756H66.0202C68.3855 97.8756 70.3031 96.0095 70.3031 93.7077V84.7954H81.4839V97.8756H87.3623Z" fill="white"/>
<mask id="mask0_0_166" style="mask-type:alpha" maskUnits="userSpaceOnUse" x="146" y="80" width="7" height="18">
<path fill-rule="evenodd" clip-rule="evenodd" d="M146.854 80.7227H152.481V97.8756H146.854V80.7227Z" fill="white"/>
</mask>
<g mask="url(#mask0_0_166)">
<path fill-rule="evenodd" clip-rule="evenodd" d="M146.854 80.7227V87.0863V87.2628V91.3351V93.2978V97.8758H152.481V80.7227H146.854Z" fill="white"/>
</g>
<mask id="mask1_0_166" style="mask-type:alpha" maskUnits="userSpaceOnUse" x="127" y="80" width="20" height="18">
<path fill-rule="evenodd" clip-rule="evenodd" d="M127.559 80.7227H146.854V97.8756H127.559V80.7227Z" fill="white"/>
</mask>
<g mask="url(#mask1_0_166)">
<path fill-rule="evenodd" clip-rule="evenodd" d="M133.404 80.7227H127.559V97.8758H133.404V91.3351H142.693L146.854 87.2628H133.404V80.7227Z" fill="white"/>
</g>
<mask id="mask2_0_166" style="mask-type:alpha" maskUnits="userSpaceOnUse" x="94" y="80" width="26" height="18">
<path fill-rule="evenodd" clip-rule="evenodd" d="M94.5977 80.7227H119.52V97.8756H94.5977V80.7227Z" fill="white"/>
</mask>
<g mask="url(#mask2_0_166)">
<path fill-rule="evenodd" clip-rule="evenodd" d="M115.298 80.7227H98.8192C96.4916 80.7227 94.5977 82.5921 94.5977 84.8906V97.8758H100.392V94.3876H109.601L113.726 90.3148H100.392V84.795H113.726V90.3148V94.3876V95.8099V97.8758H119.52V84.8906C119.52 82.5921 117.626 80.7227 115.298 80.7227Z" fill="white"/>
</g>
<mask id="mask3_0_166" style="mask-type:alpha" maskUnits="userSpaceOnUse" x="33" y="80" width="25" height="18">
<path fill-rule="evenodd" clip-rule="evenodd" d="M33.4985 80.7227H57.6166V97.8756H33.4985V80.7227Z" fill="white"/>
</mask>
<g mask="url(#mask3_0_166)">
<path fill-rule="evenodd" clip-rule="evenodd" d="M53.3403 80.7227H37.7749C35.4166 80.7227 33.4985 82.5921 33.4985 84.8906V97.8758H39.3674V94.3876V90.3148V89.2545V84.795H51.7473V90.3148H43.5456L39.3674 94.3876H53.3403C55.6981 94.3876 57.6166 92.5177 57.6166 90.2197V84.8906C57.6166 82.5921 55.6981 80.7227 53.3403 80.7227Z" fill="white"/>
</g>
<mask id="mask4_0_166" style="mask-type:alpha" maskUnits="userSpaceOnUse" x="1" y="80" width="26" height="18">
<path fill-rule="evenodd" clip-rule="evenodd" d="M1.34106 80.7227H26.2631V97.8756H1.34106V80.7227Z" fill="white"/>
</mask>
<g mask="url(#mask4_0_166)">
<path fill-rule="evenodd" clip-rule="evenodd" d="M22.0415 80.7227H5.56219C3.26782 80.7227 1.4037 82.5417 1.3507 84.795H7.13481H20.4689V93.803H7.13481V84.795L1.34106 90.5155V93.7078C1.34106 96.0058 3.23457 97.8758 5.56219 97.8758H22.0415C24.3691 97.8758 26.2631 96.0058 26.2631 93.7078V84.8906C26.2631 82.5921 24.3691 80.7227 22.0415 80.7227Z" fill="white"/>
</g>
<path fill-rule="evenodd" clip-rule="evenodd" d="M131.39 21.4246C131.348 20.0927 130.199 19.0283 128.815 19.0283H128.762L123.914 19.1241L120.883 15.6624H108.928L90.4066 30.5606C89.3112 30.5266 88.2911 30.047 87.5912 29.2328L69.5086 8.2124H3.75293L6.63865 11.5085C7.553 12.5529 8.892 13.1516 10.313 13.1516H66.7675L83.5621 32.3377C85.3219 34.3479 87.9009 35.5012 90.6386 35.5012H92.2794L110.804 20.6016H118.4L121.207 23.8061L128.264 23.7944L131.579 27.5799L131.39 21.4246Z" fill="white"/>
<path fill-rule="evenodd" clip-rule="evenodd" d="M83.4701 37.8403C82.3378 37.8403 81.2373 38.2218 80.3701 38.9136L45.5576 66.6885H51.8612C52.9934 66.6885 54.0944 66.3071 54.9612 65.6152L89.7741 37.8403H83.4701Z" fill="white"/>
<path fill-rule="evenodd" clip-rule="evenodd" d="M71.4111 37.8403C70.2789 37.8403 69.1784 38.2218 68.3112 38.9136L33.4985 66.6885H39.8019C40.9342 66.6885 42.0352 66.307 42.9019 65.6152L77.715 37.8403H71.4111Z" fill="white"/>
<path fill-rule="evenodd" clip-rule="evenodd" d="M110.184 24.8826L79.3229 49.5356H85.6313C86.7644 49.5356 87.8657 49.1529 88.7335 48.4602L119.52 23.8681L113.335 23.8072C112.147 23.783 111.066 24.1787 110.184 24.8826Z" fill="white"/>
<path fill-rule="evenodd" clip-rule="evenodd" d="M80.4859 32.388V32.3872C79.5731 31.3935 78.2334 30.8232 76.8099 30.8232H23.8513L26.7318 33.9449C27.6441 34.9342 28.9814 35.5013 30.3996 35.5013H83.3426L80.4859 32.388Z" fill="white"/>
<path fill-rule="evenodd" clip-rule="evenodd" d="M76.9111 27.7044L74.0543 24.5912C73.1425 23.5966 71.8028 23.0264 70.3783 23.0264H17.4198L20.2988 26.148C21.2117 27.1373 22.549 27.7044 23.9672 27.7044H76.9111Z" fill="white"/>
<path fill-rule="evenodd" clip-rule="evenodd" d="M70.4796 19.9076L67.6229 16.7952C66.711 15.8002 65.3704 15.2295 63.9468 15.2295H10.9883L13.8682 18.3512C14.7796 19.3404 16.1164 19.9076 17.5365 19.9076H70.4796Z" fill="white"/>
<path fill-rule="evenodd" clip-rule="evenodd" d="M25.5454 5.48882H80.4347L93.8559 21.3395C94.2943 21.859 94.9115 22.1773 95.5933 22.2365C95.669 22.2432 95.7447 22.2466 95.8204 22.2466C96.4202 22.2466 96.9959 22.0401 97.4608 21.653L99.4213 20.0215L82.8221 0.415527H19.0277L21.8948 3.80091C22.8023 4.87378 24.1331 5.48882 25.5454 5.48882Z" fill="white"/>
<path fill-rule="evenodd" clip-rule="evenodd" d="M81.1509 9.70963C80.2555 8.75833 78.9429 8.2124 77.5501 8.2124H72.8914L75.8855 11.3932C76.7803 12.3446 78.0935 12.8905 79.4862 12.8905H84.1465L81.1509 9.70963Z" fill="white"/>
<path fill-rule="evenodd" clip-rule="evenodd" d="M86.0054 19.9076H90.578L87.6384 16.7855C86.709 15.7962 85.3445 15.2295 83.8954 15.2295H79.3229L82.2625 18.3512C83.1929 19.3404 84.5574 19.9076 86.0054 19.9076Z" fill="white"/>
<path fill-rule="evenodd" clip-rule="evenodd" d="M89.951 26.9149C90.027 26.9213 90.1035 26.9248 90.1785 26.9248C90.7816 26.9248 91.3595 26.712 91.8257 26.3145L93.7938 24.638L93.5663 24.3628C92.8639 23.5138 91.8353 23.0264 90.7434 23.0264H85.7544L88.206 25.9927C88.6475 26.5268 89.2666 26.8545 89.951 26.9149Z" fill="white"/>
<path fill-rule="evenodd" clip-rule="evenodd" d="M109.954 49.6844L107.171 51.9654L102.765 46.8371L109.993 40.9141C111.075 40.0276 111.695 38.7282 111.695 37.3498V33.1621L89.8186 50.9363C88.5965 51.9292 87.0496 52.4753 85.4607 52.4753H75.9999L57.6166 67.468H63.8477C64.9656 67.468 66.0531 67.081 66.9092 66.3791L77.7763 57.4736H85.2925C88.1902 57.4736 91.0083 56.4713 93.2277 54.6532L98.8142 50.0747L103.22 55.2035L100.48 57.4482C99.9567 57.8776 99.6352 58.4788 99.5759 59.1445C99.5161 59.8092 99.7258 60.457 100.165 60.9678L103.714 65.0985L104.717 59.5432L111.332 54.123H117.108L113.559 49.9933C112.652 48.9373 111.034 48.7994 109.954 49.6844Z" fill="white"/>
</g>
<defs>
<filter id="filter0_d_0_166" x="0.341064" y="0.415527" width="152.14" height="98.46" filterUnits="userSpaceOnUse" color-interpolation-filters="sRGB">
<feFlood flood-opacity="0" result="BackgroundImageFix"/>
<feColorMatrix in="SourceAlpha" type="matrix" values="0 0 0 0 0 0 0 0 0 0 0 0 0 0 0 0 0 0 127 0" result="hardAlpha"/>
<feOffset dx="-1" dy="1"/>
<feColorMatrix type="matrix" values="0 0 0 0 0 0 0 0 0 0 0 0 0 0 0 0 0 0 0.223694 0"/>
<feBlend mode="normal" in2="BackgroundImageFix" result="effect1_dropShadow_0_166"/>
<feBlend mode="normal" in="SourceGraphic" in2="effect1_dropShadow_0_166" result="shape"/>
</filter>
</defs>
</svg>
