<svg width="51" height="50" viewBox="0 0 51 50" fill="none" xmlns="http://www.w3.org/2000/svg">
<path fill-rule="evenodd" clip-rule="evenodd" d="M50.4468 14.6877C50.2571 10.6832 49.3425 7.13608 46.4088 4.21361C43.4864 1.29113 39.9392 0.376464 35.9348 0.175683C31.8076 -0.0585611 19.4373 -0.0585611 15.3101 0.175683C11.3168 0.36531 7.76968 1.27998 4.83604 4.20245C1.90241 7.12493 0.998901 10.6721 0.79812 14.6765C0.563875 18.8037 0.563875 31.174 0.79812 35.3012C0.987746 39.3056 1.90241 42.8528 4.83604 45.7752C7.76968 48.6977 11.3056 49.6124 15.3101 49.8132C19.4373 50.0474 31.8076 50.0474 35.9348 49.8132C39.9392 49.6235 43.4864 48.7089 46.4088 45.7752C49.3313 42.8528 50.246 39.3056 50.4468 35.3012C50.681 31.174 50.681 18.8148 50.4468 14.6877ZM38.9688 14.6431C40.6196 14.6431 41.9582 13.3157 41.9582 11.6537C41.9582 10.0028 40.6196 8.66425 38.9688 8.66425C37.3179 8.66425 35.9794 10.0028 35.9794 11.6537C35.9794 13.3045 37.3068 14.6431 38.9688 14.6431ZM25.628 12.1779C18.5338 12.1779 12.8115 17.9002 12.8115 24.9944C12.8115 32.0887 18.5338 37.8109 25.628 37.8109C32.7223 37.8109 38.4445 32.0887 38.4445 24.9944C38.4445 17.9002 32.7223 12.1779 25.628 12.1779ZM25.628 33.3268C21.0435 33.3268 17.2956 29.5901 17.2956 24.9944C17.2956 20.3988 21.0324 16.662 25.628 16.662C30.2237 16.662 33.9604 20.3988 33.9604 24.9944C33.9604 29.5901 30.2125 33.3268 25.628 33.3268ZM40.3631 44.4813C42.5605 43.6001 44.2449 41.9158 45.1149 39.7295C46.2343 36.9167 46.172 30.7639 46.1316 26.7754C46.1249 26.1138 46.1188 25.5118 46.1188 24.9944C46.1188 24.477 46.1249 23.875 46.1316 23.2136C46.172 19.2273 46.2343 13.0817 45.1149 10.2593C44.2337 8.06191 42.5494 6.37758 40.3631 5.50753C37.5414 4.39422 31.3588 4.45352 27.3715 4.49177C26.7247 4.49797 26.1356 4.50362 25.628 4.50362C25.1105 4.50362 24.5086 4.49753 23.8472 4.49083C19.8609 4.45044 13.7152 4.38817 10.8929 5.50753C8.6955 6.38873 7.01117 8.07306 6.14112 10.2593C5.02781 13.081 5.08711 19.2636 5.12536 23.2509C5.13157 23.8978 5.13722 24.4868 5.13722 24.9944C5.13722 25.5119 5.13112 26.1138 5.12442 26.7752C5.08403 30.7616 5.02176 36.9072 6.14112 39.7295C7.02233 41.9269 8.70665 43.6113 10.8929 44.4813C13.7146 45.5946 19.8972 45.5353 23.8845 45.4971C24.5314 45.4909 25.1204 45.4852 25.628 45.4852C26.1455 45.4852 26.7474 45.4913 27.4088 45.498C31.3952 45.5384 37.5408 45.6007 40.3631 44.4813Z" fill="white"/>
</svg>
