<svg width="1269" height="879" viewBox="0 0 1269 879" fill="none" xmlns="http://www.w3.org/2000/svg">
<path fill-rule="evenodd" clip-rule="evenodd" d="M204.883 168.353L182.912 173.734L161.933 178.345L131.448 191.413L93.4999 207.01L62.4292 235.609L33.7215 265.202L12.8897 302.225L0 356.03V404.711L9.70769 447.242L40.6188 519.623L45.6007 521.737L52.8811 517.701L50.5822 455.441L61.2983 425.972H66.4209H86.3471L142.166 418.205L192.62 405.533L217.145 403.174L268.749 397.025H328.528L374.766 401.124L465.776 410.86L374.766 380.627L311.156 357.055L436.972 343.718L513.672 337.795L524.436 328.52L510.063 319.416L501.655 314.091L442.72 315.548L367.102 305.889L291.996 295.051L241.414 296.231L249.078 255.265L256.742 214.3L237.392 233.432L237.199 204.479V183.342L220.849 168.353H204.883Z" fill="#83673D"/>
<path fill-rule="evenodd" clip-rule="evenodd" d="M587.693 160.012L581.804 142.977L505.329 160.012H485.001L435.728 174.367L445.237 160.012L394.37 172.116L358.03 173.219L294.173 199.122L296.081 232.681L311.573 274.038L368.33 241.869L404.487 283.084L441.473 293.037L474.619 295.233L514.2 287.814L554.441 267.205L583.235 252.46L623.974 231.597L664.474 184.22L587.693 160.012Z" fill="#6B5E56"/>
<path fill-rule="evenodd" clip-rule="evenodd" d="M387.219 177.034L351.421 238.389C351.421 238.389 447.565 244.27 448.332 244.27C449.099 244.27 419.693 178.312 420.46 178.056C421.228 177.801 387.219 177.034 387.219 177.034Z" stroke="#181716" stroke-width="3" stroke-linejoin="round"/>
<path fill-rule="evenodd" clip-rule="evenodd" d="M483.358 197.184L469.982 205.539L472.153 220.707L484.127 228.908L497.835 220.707L498.876 201.246L486.32 195.632L483.358 197.184Z" stroke="#181716" stroke-width="3" stroke-linejoin="round"/>
<path fill-rule="evenodd" clip-rule="evenodd" d="M1.61945 386.597V405.199L15.0864 411.163L30.1729 401.834L15.8962 386.112L1.61945 386.597Z" stroke="#181716" stroke-width="3" stroke-linejoin="round"/>
<path fill-rule="evenodd" clip-rule="evenodd" d="M80.0349 400.3L75.006 422.712H93.6725L161.434 410.14L203.88 398.638L188.027 378.059L123.6 384.567L80.0349 400.3Z" stroke="#181716" stroke-width="3" stroke-linejoin="round"/>
<path fill-rule="evenodd" clip-rule="evenodd" d="M94.7169 210.162L44.4496 256.754L30.1728 273.896L27.8505 286.007L37.5455 313.678L119.243 306.776C119.243 306.776 151.558 248.019 151.51 246.911C151.461 245.803 123.6 210.162 123.6 210.162H94.7169Z" stroke="#181716" stroke-width="3" stroke-linejoin="round"/>
<path fill-rule="evenodd" clip-rule="evenodd" d="M1060.91 756.93L1016.42 708.613L1021.02 736.223L1060.91 756.93Z" stroke="#181716" stroke-width="3" stroke-linejoin="round"/>
<path fill-rule="evenodd" clip-rule="evenodd" d="M985.734 605.842L991.871 640.355L1016.42 708.613L958.885 600.473L985.734 605.842Z" stroke="#181716" stroke-width="3" stroke-linejoin="round"/>
<path fill-rule="evenodd" clip-rule="evenodd" d="M1016.42 708.613L968.09 661.062L1021.02 736.223L1016.42 708.613Z" stroke="#181716" stroke-width="3" stroke-linejoin="round"/>
<path fill-rule="evenodd" clip-rule="evenodd" d="M1122.28 806.782L1089.81 825.7L1147.59 877L1122.28 806.782Z" stroke="#181716" stroke-width="3" stroke-linejoin="round"/>
<path fill-rule="evenodd" clip-rule="evenodd" d="M1060.91 756.93L1089.8 825.7L1122.28 806.782L1060.91 756.93Z" stroke="#181716" stroke-width="3" stroke-linejoin="round"/>
<path fill-rule="evenodd" clip-rule="evenodd" d="M1060.91 756.93L1077.08 795.402L1024.35 759.742L1021.02 736.223L1060.91 756.93Z" stroke="#181716" stroke-width="3" stroke-linejoin="round"/>
<path fill-rule="evenodd" clip-rule="evenodd" d="M1079.07 877L1024.35 759.743L1077.08 795.403L1089.81 825.7L1079.07 877Z" stroke="#181716" stroke-width="3" stroke-linejoin="round"/>
<path fill-rule="evenodd" clip-rule="evenodd" d="M953.771 703.5L974.739 692.763L913.37 612.489L953.771 703.5Z" stroke="#181716" stroke-width="3" stroke-linejoin="round"/>
<path fill-rule="evenodd" clip-rule="evenodd" d="M994.556 698.642L991.615 711.68L974.739 692.763L968.09 661.062L994.556 698.642Z" stroke="#181716" stroke-width="3" stroke-linejoin="round"/>
<path fill-rule="evenodd" clip-rule="evenodd" d="M958.885 600.473L1016.42 708.613L968.091 661.062L958.885 600.473Z" stroke="#181716" stroke-width="3" stroke-linejoin="round"/>
<path fill-rule="evenodd" clip-rule="evenodd" d="M913.37 612.489L958.885 600.473L974.739 692.762L913.37 612.489Z" stroke="#181716" stroke-width="3" stroke-linejoin="round"/>
<path fill-rule="evenodd" clip-rule="evenodd" d="M953.771 703.5L878.595 604.308L913.37 612.489L953.771 703.5Z" stroke="#181716" stroke-width="3" stroke-linejoin="round"/>
<path fill-rule="evenodd" clip-rule="evenodd" d="M926.667 706.567L922.759 662.581L886.266 696.342L926.667 706.567Z" stroke="#181716" stroke-width="3" stroke-linejoin="round"/>
<path fill-rule="evenodd" clip-rule="evenodd" d="M878.594 604.308L886.266 696.342L922.759 662.581L878.594 604.308Z" stroke="#181716" stroke-width="3" stroke-linejoin="round"/>
<path fill-rule="evenodd" clip-rule="evenodd" d="M953.771 703.5L934.338 732.772L926.667 706.567L922.759 662.581L953.771 703.5Z" stroke="#181716" stroke-width="3" stroke-linejoin="round"/>
<path fill-rule="evenodd" clip-rule="evenodd" d="M886.266 696.341L858.65 684.574L878.595 604.308L886.266 696.341Z" stroke="#181716" stroke-width="3" stroke-linejoin="round"/>
<path fill-rule="evenodd" clip-rule="evenodd" d="M1024.35 759.742L987.652 745.426L1006 795.403L1043.09 818.371L1044.29 802.486L1024.35 759.742Z" stroke="#181716" stroke-width="3" stroke-linejoin="round"/>
<path fill-rule="evenodd" clip-rule="evenodd" d="M991.615 711.68L987.652 745.426L1024.35 759.742L1021.02 736.223L994.556 698.642L991.615 711.68Z" stroke="#181716" stroke-width="3" stroke-linejoin="round"/>
<path fill-rule="evenodd" clip-rule="evenodd" d="M1006 795.403L994.556 832.858L1038.66 877L1043.09 818.371L1006 795.403Z" stroke="#181716" stroke-width="3" stroke-linejoin="round"/>
<path fill-rule="evenodd" clip-rule="evenodd" d="M892.403 753.096L842.285 809.85L913.37 759.743L892.403 753.096Z" stroke="#181716" stroke-width="3" stroke-linejoin="round"/>
<path fill-rule="evenodd" clip-rule="evenodd" d="M922.759 809.85L938.265 865.581L987.652 818.371L922.759 809.85Z" stroke="#181716" stroke-width="3" stroke-linejoin="round"/>
<path fill-rule="evenodd" clip-rule="evenodd" d="M934.338 732.771L944.055 778.149L987.652 745.426L991.615 711.681L974.739 692.762L953.771 703.5L934.338 732.771Z" stroke="#181716" stroke-width="3" stroke-linejoin="round"/>
<path fill-rule="evenodd" clip-rule="evenodd" d="M987.652 745.426L958.885 814.594L987.652 818.371L994.556 832.858L1006 795.403L987.652 745.426Z" stroke="#181716" stroke-width="3" stroke-linejoin="round"/>
<path fill-rule="evenodd" clip-rule="evenodd" d="M944.055 778.149L922.759 809.85L958.885 814.594L987.652 745.426L944.055 778.149Z" stroke="#181716" stroke-width="3" stroke-linejoin="round"/>
<path fill-rule="evenodd" clip-rule="evenodd" d="M913.37 759.742L944.054 778.149L922.759 809.85L880.873 847.685L865.756 793.305L913.37 759.742Z" stroke="#181716" stroke-width="3" stroke-linejoin="round"/>
<path fill-rule="evenodd" clip-rule="evenodd" d="M926.667 706.567L934.338 732.771L944.055 778.149L913.37 759.742L926.667 706.567Z" stroke="#181716" stroke-width="3" stroke-linejoin="round"/>
<path fill-rule="evenodd" clip-rule="evenodd" d="M886.266 696.341L913.37 759.742L926.667 706.567L886.266 696.341Z" stroke="#181716" stroke-width="3" stroke-linejoin="round"/>
<path fill-rule="evenodd" clip-rule="evenodd" d="M892.403 753.096L886.266 696.341L913.37 759.743L892.403 753.096Z" stroke="#181716" stroke-width="3" stroke-linejoin="round"/>
<path fill-rule="evenodd" clip-rule="evenodd" d="M770.177 843.425L842.285 809.849L807.189 860.212L770.177 843.425Z" stroke="#181716" stroke-width="3" stroke-linejoin="round"/>
<path fill-rule="evenodd" clip-rule="evenodd" d="M892.403 753.096L846.504 745.426L842.285 809.85L892.403 753.096Z" stroke="#181716" stroke-width="3" stroke-linejoin="round"/>
<path fill-rule="evenodd" clip-rule="evenodd" d="M886.266 696.341L846.504 745.426L892.402 753.096L886.266 696.341Z" stroke="#181716" stroke-width="3" stroke-linejoin="round"/>
<path fill-rule="evenodd" clip-rule="evenodd" d="M734.89 877L727.602 818.371L770.177 843.425L734.89 877Z" stroke="#181716" stroke-width="3" stroke-linejoin="round"/>
<path fill-rule="evenodd" clip-rule="evenodd" d="M846.504 745.426L797.025 772.269L842.285 809.85L846.504 745.426Z" stroke="#181716" stroke-width="3" stroke-linejoin="round"/>
<path fill-rule="evenodd" clip-rule="evenodd" d="M770.177 843.425L797.025 772.269L842.285 809.849L770.177 843.425Z" stroke="#181716" stroke-width="3" stroke-linejoin="round"/>
<path fill-rule="evenodd" clip-rule="evenodd" d="M985.734 605.842L998.775 637.287L1006 662.581V632.685L985.734 605.842Z" stroke="#181716" stroke-width="3" stroke-linejoin="round"/>
<path fill-rule="evenodd" clip-rule="evenodd" d="M958.885 600.473L951.981 542.952L985.734 605.842L958.885 600.473Z" stroke="#181716" stroke-width="3" stroke-linejoin="round"/>
<path fill-rule="evenodd" clip-rule="evenodd" d="M1006 632.685L1000.31 564.938L985.734 605.842L1006 632.685Z" stroke="#181716" stroke-width="3" stroke-linejoin="round"/>
<path fill-rule="evenodd" clip-rule="evenodd" d="M878.594 604.308V511.763L936.272 606.443L913.37 612.489L878.594 604.308Z" stroke="#181716" stroke-width="3" stroke-linejoin="round"/>
<path fill-rule="evenodd" clip-rule="evenodd" d="M858.65 684.574V696.341L831.545 662.581L827.966 574.397L858.65 684.574Z" stroke="#181716" stroke-width="3" stroke-linejoin="round"/>
<path fill-rule="evenodd" clip-rule="evenodd" d="M878.595 604.308L827.966 574.397L858.65 684.574L878.595 604.308Z" stroke="#181716" stroke-width="3" stroke-linejoin="round"/>
<path fill-rule="evenodd" clip-rule="evenodd" d="M878.594 511.763L837.171 461.656L878.594 604.308V511.763Z" stroke="#181716" stroke-width="3" stroke-linejoin="round"/>
<path fill-rule="evenodd" clip-rule="evenodd" d="M827.965 574.397L837.171 461.656L878.594 604.308L827.965 574.397Z" stroke="#181716" stroke-width="3" stroke-linejoin="round"/>
<path fill-rule="evenodd" clip-rule="evenodd" d="M858.65 696.342L846.504 745.426L886.266 696.342L858.65 684.574V696.342Z" stroke="#181716" stroke-width="3" stroke-linejoin="round"/>
<path fill-rule="evenodd" clip-rule="evenodd" d="M831.545 662.581L795.491 708.613L858.65 696.342L831.545 662.581Z" stroke="#181716" stroke-width="3" stroke-linejoin="round"/>
<path fill-rule="evenodd" clip-rule="evenodd" d="M846.504 745.426L795.491 708.613L858.65 696.341L846.504 745.426Z" stroke="#181716" stroke-width="3" stroke-linejoin="round"/>
<path fill-rule="evenodd" clip-rule="evenodd" d="M797.025 772.269L795.491 708.613L846.504 745.426L797.025 772.269Z" stroke="#181716" stroke-width="3" stroke-linejoin="round"/>
<path fill-rule="evenodd" clip-rule="evenodd" d="M727.602 818.371L797.025 772.269L770.177 843.425L727.602 818.371Z" stroke="#181716" stroke-width="3" stroke-linejoin="round"/>
<path fill-rule="evenodd" clip-rule="evenodd" d="M724.15 780.01L727.602 818.371L690.398 877L680.169 818.371L724.15 780.01Z" stroke="#181716" stroke-width="3" stroke-linejoin="round"/>
<path fill-rule="evenodd" clip-rule="evenodd" d="M795.491 708.613L760.22 796.711L797.025 772.269L795.491 708.613Z" stroke="#181716" stroke-width="3" stroke-linejoin="round"/>
<path fill-rule="evenodd" clip-rule="evenodd" d="M724.15 780.01L795.491 708.613L760.22 796.711L727.602 818.371L724.15 780.01Z" stroke="#181716" stroke-width="3" stroke-linejoin="round"/>
<path fill-rule="evenodd" clip-rule="evenodd" d="M680.169 818.371L690.397 728.042L724.15 780.01L680.169 818.371Z" stroke="#181716" stroke-width="3" stroke-linejoin="round"/>
<path fill-rule="evenodd" clip-rule="evenodd" d="M765.574 692.763L795.491 708.613L831.545 662.581L765.574 692.763Z" stroke="#181716" stroke-width="3" stroke-linejoin="round"/>
<path fill-rule="evenodd" clip-rule="evenodd" d="M724.15 780.01L765.574 692.762L795.491 708.613L724.15 780.01Z" stroke="#181716" stroke-width="3" stroke-linejoin="round"/>
<path fill-rule="evenodd" clip-rule="evenodd" d="M703.886 748.809L744.095 681.003L758.049 708.613L724.15 780.01L703.886 748.809Z" stroke="#181716" stroke-width="3" stroke-linejoin="round"/>
<path fill-rule="evenodd" clip-rule="evenodd" d="M644.882 692.762L690.397 728.042L680.169 641.633L644.882 692.762Z" stroke="#181716" stroke-width="3" stroke-linejoin="round"/>
<path fill-rule="evenodd" clip-rule="evenodd" d="M624.426 877L649.485 773.207L680.169 818.371L624.426 877Z" stroke="#181716" stroke-width="3" stroke-linejoin="round"/>
<path fill-rule="evenodd" clip-rule="evenodd" d="M690.397 728.042L649.485 773.207L680.169 818.371L690.397 728.042Z" stroke="#181716" stroke-width="3" stroke-linejoin="round"/>
<path fill-rule="evenodd" clip-rule="evenodd" d="M644.882 692.762L649.485 773.207L690.397 728.042L644.882 692.762Z" stroke="#181716" stroke-width="3" stroke-linejoin="round"/>
<path fill-rule="evenodd" clip-rule="evenodd" d="M644.882 692.762L582.491 749.517L649.485 773.207L644.882 692.762Z" stroke="#181716" stroke-width="3" stroke-linejoin="round"/>
<path fill-rule="evenodd" clip-rule="evenodd" d="M640.638 809.849L582.491 749.516L649.485 773.207L640.638 809.849Z" stroke="#181716" stroke-width="3" stroke-linejoin="round"/>
<path fill-rule="evenodd" clip-rule="evenodd" d="M557.432 877L567.66 793.305L640.638 809.85L557.432 877Z" stroke="#181716" stroke-width="3" stroke-linejoin="round"/>
<path fill-rule="evenodd" clip-rule="evenodd" d="M582.491 749.516L567.66 793.305L640.638 809.849L582.491 749.516Z" stroke="#181716" stroke-width="3" stroke-linejoin="round"/>
<path fill-rule="evenodd" clip-rule="evenodd" d="M577.888 703.5L582.491 749.516L567.66 793.305L550.272 756.163L563.569 715L577.888 703.5Z" stroke="#181716" stroke-width="3" stroke-linejoin="round"/>
<path fill-rule="evenodd" clip-rule="evenodd" d="M536.464 786.33L550.272 756.163L567.66 793.305L539.277 835.153L536.464 786.33Z" stroke="#181716" stroke-width="3" stroke-linejoin="round"/>
<path fill-rule="evenodd" clip-rule="evenodd" d="M536.464 786.33L503.734 807.847L510.894 877L539.277 835.153L536.464 786.33Z" stroke="#181716" stroke-width="3" stroke-linejoin="round"/>
<path fill-rule="evenodd" clip-rule="evenodd" d="M516.519 752.584L536.464 786.33L503.734 807.847L516.519 752.584Z" stroke="#181716" stroke-width="3" stroke-linejoin="round"/>
<path fill-rule="evenodd" clip-rule="evenodd" d="M486.347 795.658L516.52 752.584L510.894 708.613L486.347 795.658Z" stroke="#181716" stroke-width="3" stroke-linejoin="round"/>
<path fill-rule="evenodd" clip-rule="evenodd" d="M503.734 807.847L491.692 838.573L486.347 795.658L516.52 752.584L503.734 807.847Z" stroke="#181716" stroke-width="3" stroke-linejoin="round"/>
<path fill-rule="evenodd" clip-rule="evenodd" d="M442.877 831.665L432.138 815.985L419.262 828.505L436.74 877L442.877 831.665Z" stroke="#181716" stroke-width="3" stroke-linejoin="round"/>
<path fill-rule="evenodd" clip-rule="evenodd" d="M324.742 786.33L360.541 795.578L282.296 877L324.742 786.33Z" stroke="#181716" stroke-width="3" stroke-linejoin="round"/>
<path fill-rule="evenodd" clip-rule="evenodd" d="M324.742 786.33L360.541 718.327V795.578L324.742 786.33Z" stroke="#181716" stroke-width="3" stroke-linejoin="round"/>
<path fill-rule="evenodd" clip-rule="evenodd" d="M372.303 821.098L384.066 760.254L360.541 718.327V877L372.303 821.098Z" stroke="#181716" stroke-width="3" stroke-linejoin="round"/>
<path fill-rule="evenodd" clip-rule="evenodd" d="M414.75 815.985L384.066 760.254L372.303 821.098L389.691 855.355L414.75 815.985Z" stroke="#181716" stroke-width="3" stroke-linejoin="round"/>
<path fill-rule="evenodd" clip-rule="evenodd" d="M360.541 718.327L375.116 684.837L384.065 760.254L360.541 718.327Z" stroke="#181716" stroke-width="3" stroke-linejoin="round"/>
<path fill-rule="evenodd" clip-rule="evenodd" d="M432.138 815.985L483.79 780.216L442.877 831.665L432.138 815.985Z" stroke="#181716" stroke-width="3" stroke-linejoin="round"/>
<path fill-rule="evenodd" clip-rule="evenodd" d="M375.116 684.837L389.691 605.842L424.978 611.466L375.116 684.837Z" stroke="#181716" stroke-width="3" stroke-linejoin="round"/>
<path fill-rule="evenodd" clip-rule="evenodd" d="M432.138 815.985L476.63 742.87L483.79 780.216L432.138 815.985Z" stroke="#181716" stroke-width="3" stroke-linejoin="round"/>
<path fill-rule="evenodd" clip-rule="evenodd" d="M384.066 760.254L432.138 815.985L419.262 828.505L414.75 815.985L384.066 760.254Z" stroke="#181716" stroke-width="3" stroke-linejoin="round"/>
<path fill-rule="evenodd" clip-rule="evenodd" d="M510.894 708.613L486.346 795.658L483.789 780.215L476.63 742.87L510.894 708.613Z" stroke="#181716" stroke-width="3" stroke-linejoin="round"/>
<path fill-rule="evenodd" clip-rule="evenodd" d="M384.066 760.254L476.63 742.87L432.138 815.985L384.066 760.254Z" stroke="#181716" stroke-width="3" stroke-linejoin="round"/>
<path fill-rule="evenodd" clip-rule="evenodd" d="M375.116 684.837L476.63 742.87L384.066 760.254L375.116 684.837Z" stroke="#181716" stroke-width="3" stroke-linejoin="round"/>
<path fill-rule="evenodd" clip-rule="evenodd" d="M563.569 715L550.272 756.163L536.464 786.33L516.52 752.584L563.569 715Z" stroke="#181716" stroke-width="3" stroke-linejoin="round"/>
<path fill-rule="evenodd" clip-rule="evenodd" d="M510.894 708.613L563.569 715L516.519 752.584L510.894 708.613Z" stroke="#181716" stroke-width="3" stroke-linejoin="round"/>
<path fill-rule="evenodd" clip-rule="evenodd" d="M577.888 703.5L644.882 692.763L582.491 749.516L577.888 703.5Z" stroke="#181716" stroke-width="3" stroke-linejoin="round"/>
<path fill-rule="evenodd" clip-rule="evenodd" d="M510.894 708.613L424.978 713.342L476.63 742.87L510.894 708.613Z" stroke="#181716" stroke-width="3" stroke-linejoin="round"/>
<path fill-rule="evenodd" clip-rule="evenodd" d="M424.978 611.466V713.342L375.116 684.837L424.978 611.466Z" stroke="#181716" stroke-width="3" stroke-linejoin="round"/>
<path fill-rule="evenodd" clip-rule="evenodd" d="M680.169 641.633L644.882 692.762L577.888 703.5L680.169 641.633Z" stroke="#181716" stroke-width="3" stroke-linejoin="round"/>
<path fill-rule="evenodd" clip-rule="evenodd" d="M510.894 708.613L424.978 656.46V713.342L510.894 708.613Z" stroke="#181716" stroke-width="3" stroke-linejoin="round"/>
<path fill-rule="evenodd" clip-rule="evenodd" d="M563.569 715L529.305 626.294L510.894 708.613L563.569 715Z" stroke="#181716" stroke-width="3" stroke-linejoin="round"/>
<path fill-rule="evenodd" clip-rule="evenodd" d="M424.978 656.46L529.305 626.294L510.894 708.613L424.978 656.46Z" stroke="#181716" stroke-width="3" stroke-linejoin="round"/>
<path fill-rule="evenodd" clip-rule="evenodd" d="M424.978 611.466L529.305 626.294L424.978 656.46V611.466Z" stroke="#181716" stroke-width="3" stroke-linejoin="round"/>
<path fill-rule="evenodd" clip-rule="evenodd" d="M389.691 605.842L364.121 543.975L424.978 611.466L389.691 605.842Z" stroke="#181716" stroke-width="3" stroke-linejoin="round"/>
<path fill-rule="evenodd" clip-rule="evenodd" d="M486.347 620.188C486.2 620.167 476.63 543.975 476.63 543.975L424.978 611.466L486.347 620.188Z" stroke="#181716" stroke-width="3" stroke-linejoin="round"/>
<path fill-rule="evenodd" clip-rule="evenodd" d="M364.121 543.975H425.873L424.978 611.466L364.121 543.975Z" stroke="#181716" stroke-width="3" stroke-linejoin="round"/>
<path fill-rule="evenodd" clip-rule="evenodd" d="M486.347 620.188L524.702 528.125L476.63 543.975L486.347 620.188Z" stroke="#181716" stroke-width="3" stroke-linejoin="round"/>
<path fill-rule="evenodd" clip-rule="evenodd" d="M529.305 626.294L524.702 528.125L486.347 620.188L529.305 626.294Z" stroke="#181716" stroke-width="3" stroke-linejoin="round"/>
<path fill-rule="evenodd" clip-rule="evenodd" d="M424.978 611.466L425.873 543.975H476.63L424.978 611.466Z" stroke="#181716" stroke-width="3" stroke-linejoin="round"/>
<path fill-rule="evenodd" clip-rule="evenodd" d="M529.305 626.294L575.331 528.125H524.702L529.305 626.294Z" stroke="#181716" stroke-width="3" stroke-linejoin="round"/>
<path fill-rule="evenodd" clip-rule="evenodd" d="M577.888 703.5L586.071 677.424L571.751 637.031L563.569 715L577.888 703.5Z" stroke="#181716" stroke-width="3" stroke-linejoin="round"/>
<path fill-rule="evenodd" clip-rule="evenodd" d="M529.305 626.294L571.751 637.031L563.569 715L529.305 626.294Z" stroke="#181716" stroke-width="3" stroke-linejoin="round"/>
<path fill-rule="evenodd" clip-rule="evenodd" d="M680.169 641.633L571.751 637.031L586.071 677.424L577.888 703.5L680.169 641.633Z" stroke="#181716" stroke-width="3" stroke-linejoin="round"/>
<path fill-rule="evenodd" clip-rule="evenodd" d="M575.331 528.125C575.74 544.099 575.758 560.853 575.265 578.319C574.683 598.933 573.445 618.535 571.751 637.031C557.602 633.452 543.453 629.873 529.305 626.294L575.331 528.125Z" stroke="#181716" stroke-width="3" stroke-linejoin="round"/>
<path fill-rule="evenodd" clip-rule="evenodd" d="M625.96 639.332L575.331 577.209L571.751 637.031L625.96 639.332Z" stroke="#181716" stroke-width="3" stroke-linejoin="round"/>
<path fill-rule="evenodd" clip-rule="evenodd" d="M575.331 528.125L657.412 473.927L575.331 577.209V528.125Z" stroke="#181716" stroke-width="3" stroke-linejoin="round"/>
<path fill-rule="evenodd" clip-rule="evenodd" d="M625.96 639.332L629.029 509.642L575.331 577.209L625.96 639.332Z" stroke="#181716" stroke-width="3" stroke-linejoin="round"/>
<path fill-rule="evenodd" clip-rule="evenodd" d="M744.095 681.003L680.169 641.633L690.398 728.042L703.886 748.809L744.095 681.003Z" stroke="#181716" stroke-width="3" stroke-linejoin="round"/>
<path fill-rule="evenodd" clip-rule="evenodd" d="M625.96 639.332L680.169 577.209V641.633L625.96 639.332Z" stroke="#181716" stroke-width="3" stroke-linejoin="round"/>
<path fill-rule="evenodd" clip-rule="evenodd" d="M629.029 509.642L680.169 577.209L625.96 639.332L629.029 509.642Z" stroke="#181716" stroke-width="3" stroke-linejoin="round"/>
<path fill-rule="evenodd" clip-rule="evenodd" d="M782.757 684.901L744.095 570.562L778.623 612.489L795.491 679.075L782.757 684.901Z" stroke="#181716" stroke-width="3" stroke-linejoin="round"/>
<path fill-rule="evenodd" clip-rule="evenodd" d="M827.966 574.397L778.623 612.489L795.491 679.076L831.545 662.581L827.966 574.397Z" stroke="#181716" stroke-width="3" stroke-linejoin="round"/>
<path fill-rule="evenodd" clip-rule="evenodd" d="M951.981 542.952L878.595 511.763L936.272 606.443L958.885 600.473L951.981 542.952Z" stroke="#181716" stroke-width="3" stroke-linejoin="round"/>
<path fill-rule="evenodd" clip-rule="evenodd" d="M657.412 473.927L680.169 577.209L629.029 509.642L657.412 473.927Z" stroke="#181716" stroke-width="3" stroke-linejoin="round"/>
<path fill-rule="evenodd" clip-rule="evenodd" d="M951.981 542.952L978.063 488.499L1000.31 564.938L985.734 605.842L951.981 542.952Z" stroke="#181716" stroke-width="3" stroke-linejoin="round"/>
<path fill-rule="evenodd" clip-rule="evenodd" d="M744.095 570.562V681.003L758.048 708.613L765.574 692.763L782.757 684.901L744.095 570.562Z" stroke="#181716" stroke-width="3" stroke-linejoin="round"/>
<path fill-rule="evenodd" clip-rule="evenodd" d="M878.594 511.763L978.063 488.499L951.981 542.953L878.594 511.763Z" stroke="#181716" stroke-width="3" stroke-linejoin="round"/>
<path fill-rule="evenodd" clip-rule="evenodd" d="M680.169 577.209L744.095 570.562V681.003L680.169 641.633V577.209Z" stroke="#181716" stroke-width="3" stroke-linejoin="round"/>
<path fill-rule="evenodd" clip-rule="evenodd" d="M830.84 539.185C831.027 536.9 744.095 450.919 744.095 450.919L819.921 580.607L827.965 574.397L830.84 539.185Z" stroke="#181716" stroke-width="3" stroke-linejoin="round"/>
<path fill-rule="evenodd" clip-rule="evenodd" d="M744.095 570.562V450.919L778.623 612.489L744.095 570.562Z" stroke="#181716" stroke-width="3" stroke-linejoin="round"/>
<path fill-rule="evenodd" clip-rule="evenodd" d="M819.921 580.607L744.095 450.919L778.623 612.489L819.921 580.607Z" stroke="#181716" stroke-width="3" stroke-linejoin="round"/>
<path fill-rule="evenodd" clip-rule="evenodd" d="M680.169 577.209L744.095 450.919V570.562L680.169 577.209Z" stroke="#181716" stroke-width="3" stroke-linejoin="round"/>
<path fill-rule="evenodd" clip-rule="evenodd" d="M657.412 473.927L744.095 450.919L680.169 577.209L657.412 473.927Z" stroke="#181716" stroke-width="3" stroke-linejoin="round"/>
<path fill-rule="evenodd" clip-rule="evenodd" d="M837.171 461.656L831.545 416.832L892.403 473.927L878.594 511.763L837.171 461.656Z" stroke="#181716" stroke-width="3" stroke-linejoin="round"/>
<path fill-rule="evenodd" clip-rule="evenodd" d="M978.063 488.499L892.403 473.927L878.594 511.763L978.063 488.499Z" stroke="#181716" stroke-width="3" stroke-linejoin="round"/>
<path fill-rule="evenodd" clip-rule="evenodd" d="M831.545 416.832L786.192 492.845L830.841 539.185L837.171 461.656L831.545 416.832Z" stroke="#181716" stroke-width="3" stroke-linejoin="round"/>
<path fill-rule="evenodd" clip-rule="evenodd" d="M364.121 543.975L314.003 473.927L425.873 543.975H364.121Z" stroke="#181716" stroke-width="3" stroke-linejoin="round"/>
<path fill-rule="evenodd" clip-rule="evenodd" d="M476.63 543.975L492.483 484.664L425.873 543.975H476.63Z" stroke="#181716" stroke-width="3" stroke-linejoin="round"/>
<path fill-rule="evenodd" clip-rule="evenodd" d="M314.003 473.927L217.347 401.834L268.999 395.699L314.003 473.927Z" stroke="#181716" stroke-width="3" stroke-linejoin="round"/>
<path fill-rule="evenodd" clip-rule="evenodd" d="M492.483 484.664L524.702 528.125L476.63 543.975L492.483 484.664Z" stroke="#181716" stroke-width="3" stroke-linejoin="round"/>
<path fill-rule="evenodd" clip-rule="evenodd" d="M268.999 395.699H328.834L314.003 473.927L268.999 395.699Z" stroke="#181716" stroke-width="3" stroke-linejoin="round"/>
<path fill-rule="evenodd" clip-rule="evenodd" d="M492.483 484.664L390.129 521.594L425.873 543.975L492.483 484.664Z" stroke="#181716" stroke-width="3" stroke-linejoin="round"/>
<path fill-rule="evenodd" clip-rule="evenodd" d="M328.834 395.699L375.116 399.789L314.003 473.927L328.834 395.699Z" stroke="#181716" stroke-width="3" stroke-linejoin="round"/>
<path fill-rule="evenodd" clip-rule="evenodd" d="M831.545 416.832L837.171 389.563L916.396 478.009L892.403 473.927L831.545 416.832Z" stroke="#181716" stroke-width="3" stroke-linejoin="round"/>
<path fill-rule="evenodd" clip-rule="evenodd" d="M744.095 450.919L831.545 416.832L786.192 492.845L744.095 450.919Z" stroke="#181716" stroke-width="3" stroke-linejoin="round"/>
<path fill-rule="evenodd" clip-rule="evenodd" d="M837.171 389.563L843.819 369.623L886.266 402.346V444.372L837.171 389.563Z" stroke="#181716" stroke-width="3" stroke-linejoin="round"/>
<path fill-rule="evenodd" clip-rule="evenodd" d="M944.367 482.767L886.266 402.346V444.372L916.396 478.009L944.367 482.767Z" stroke="#181716" stroke-width="3" stroke-linejoin="round"/>
<path fill-rule="evenodd" clip-rule="evenodd" d="M657.412 473.927L691.42 425.354L744.095 450.919L657.412 473.927Z" stroke="#181716" stroke-width="3" stroke-linejoin="round"/>
<path fill-rule="evenodd" clip-rule="evenodd" d="M978.063 488.499L964.51 416.832L944.367 482.767L978.063 488.499Z" stroke="#181716" stroke-width="3" stroke-linejoin="round"/>
<path fill-rule="evenodd" clip-rule="evenodd" d="M886.266 402.346L964.511 416.832L944.367 482.767L886.266 402.346Z" stroke="#181716" stroke-width="3" stroke-linejoin="round"/>
<path fill-rule="evenodd" clip-rule="evenodd" d="M691.42 425.354L798.496 429.714L744.095 450.919L691.42 425.354Z" stroke="#181716" stroke-width="3" stroke-linejoin="round"/>
<path fill-rule="evenodd" clip-rule="evenodd" d="M843.819 369.623L787.82 396.721L798.496 429.714L831.545 416.833L837.171 389.563L843.819 369.623Z" stroke="#181716" stroke-width="3" stroke-linejoin="round"/>
<path fill-rule="evenodd" clip-rule="evenodd" d="M691.42 425.354L787.82 396.721L798.496 429.714L691.42 425.354Z" stroke="#181716" stroke-width="3" stroke-linejoin="round"/>
<path fill-rule="evenodd" clip-rule="evenodd" d="M491.589 5.57893L458.092 11.7143L447.608 22.4518L417.307 11.2031L447.608 2H472.283L491.589 5.57893Z" stroke="#181716" stroke-width="3" stroke-linejoin="round"/>
<path fill-rule="evenodd" clip-rule="evenodd" d="M548.354 37.2794L551.423 22.4517L534.067 18.8728L522.976 22.4517L503.223 15.8047L512.173 34.2117L548.354 37.2794Z" stroke="#181716" stroke-width="3" stroke-linejoin="round"/>
<path fill-rule="evenodd" clip-rule="evenodd" d="M447.608 22.4518L503.223 15.8048L512.173 34.2117L447.608 22.4518Z" stroke="#181716" stroke-width="3" stroke-linejoin="round"/>
<path fill-rule="evenodd" clip-rule="evenodd" d="M390.13 521.594L347.986 432.702L314.003 473.927L390.13 521.594Z" stroke="#181716" stroke-width="3" stroke-linejoin="round"/>
<path fill-rule="evenodd" clip-rule="evenodd" d="M375.116 399.789L390.13 521.594L347.986 432.702L375.116 399.789Z" stroke="#181716" stroke-width="3" stroke-linejoin="round"/>
<path fill-rule="evenodd" clip-rule="evenodd" d="M492.483 484.664L384.254 473.927L390.129 521.594L492.483 484.664Z" stroke="#181716" stroke-width="3" stroke-linejoin="round"/>
<path fill-rule="evenodd" clip-rule="evenodd" d="M375.116 399.789L455.321 480.978L384.254 473.927L375.116 399.789Z" stroke="#181716" stroke-width="3" stroke-linejoin="round"/>
<path fill-rule="evenodd" clip-rule="evenodd" d="M657.412 473.927L577.377 478.009L550.017 528.125H575.331L657.412 473.927Z" stroke="#181716" stroke-width="3" stroke-linejoin="round"/>
<path fill-rule="evenodd" clip-rule="evenodd" d="M524.702 528.125L577.377 478.009L550.017 528.125H524.702Z" stroke="#181716" stroke-width="3" stroke-linejoin="round"/>
<path fill-rule="evenodd" clip-rule="evenodd" d="M492.483 484.664L577.377 478.009L524.702 528.125L492.483 484.664Z" stroke="#181716" stroke-width="3" stroke-linejoin="round"/>
<path fill-rule="evenodd" clip-rule="evenodd" d="M455.321 480.978L466.21 409.504L375.116 399.789L455.321 480.978Z" stroke="#181716" stroke-width="3" stroke-linejoin="round"/>
<path fill-rule="evenodd" clip-rule="evenodd" d="M492.483 484.664L466.21 409.504L455.321 480.978L492.483 484.664Z" stroke="#181716" stroke-width="3" stroke-linejoin="round"/>
<path fill-rule="evenodd" clip-rule="evenodd" d="M518.565 425.354L472.474 427.422L466.21 409.504L518.565 425.354Z" stroke="#181716" stroke-width="3" stroke-linejoin="round"/>
<path fill-rule="evenodd" clip-rule="evenodd" d="M311.446 355.818L369.938 349.171L375.116 379.337L311.446 355.818Z" stroke="#181716" stroke-width="3" stroke-linejoin="round"/>
<path fill-rule="evenodd" clip-rule="evenodd" d="M466.21 409.504H538.51L518.565 425.354L466.21 409.504Z" stroke="#181716" stroke-width="3" stroke-linejoin="round"/>
<path fill-rule="evenodd" clip-rule="evenodd" d="M472.474 427.422L551.039 443.761L518.565 425.354L472.474 427.422Z" stroke="#181716" stroke-width="3" stroke-linejoin="round"/>
<path fill-rule="evenodd" clip-rule="evenodd" d="M964.511 416.832L933.826 348.659L886.266 402.346L964.511 416.832Z" stroke="#181716" stroke-width="3" stroke-linejoin="round"/>
<path fill-rule="evenodd" clip-rule="evenodd" d="M843.819 369.623L933.826 348.66L886.266 402.346L843.819 369.623Z" stroke="#181716" stroke-width="3" stroke-linejoin="round"/>
<path fill-rule="evenodd" clip-rule="evenodd" d="M787.82 396.721L815.819 333.832L843.819 369.622L787.82 396.721Z" stroke="#181716" stroke-width="3" stroke-linejoin="round"/>
<path fill-rule="evenodd" clip-rule="evenodd" d="M933.826 348.659L815.82 333.832L843.819 369.622L933.826 348.659Z" stroke="#181716" stroke-width="3" stroke-linejoin="round"/>
<path fill-rule="evenodd" clip-rule="evenodd" d="M787.82 396.721L764.04 337.411L815.819 333.832L787.82 396.721Z" stroke="#181716" stroke-width="3" stroke-linejoin="round"/>
<path fill-rule="evenodd" clip-rule="evenodd" d="M933.826 348.659L901.608 293.951L815.82 333.832L933.826 348.659Z" stroke="#181716" stroke-width="3" stroke-linejoin="round"/>
<path fill-rule="evenodd" clip-rule="evenodd" d="M764.04 337.411L744.958 409.452L787.82 396.721L764.04 337.411Z" stroke="#181716" stroke-width="3" stroke-linejoin="round"/>
<path fill-rule="evenodd" clip-rule="evenodd" d="M901.608 293.951L925.388 307.756L892.402 260.716L901.608 293.951Z" stroke="#181716" stroke-width="3" stroke-linejoin="round"/>
<path fill-rule="evenodd" clip-rule="evenodd" d="M866.904 310.084C873.358 285.958 879.812 261.833 886.266 237.708L892.402 260.716L901.608 293.951C890.04 299.328 878.472 304.706 866.904 310.084Z" stroke="#181716" stroke-width="3" stroke-linejoin="round"/>
<path fill-rule="evenodd" clip-rule="evenodd" d="M472.474 427.422L577.377 478.009L492.483 484.665L472.474 427.422Z" stroke="#181716" stroke-width="3" stroke-linejoin="round"/>
<path fill-rule="evenodd" clip-rule="evenodd" d="M551.039 443.761L657.412 473.927L577.377 478.009L472.474 427.422L551.039 443.761Z" stroke="#181716" stroke-width="3" stroke-linejoin="round"/>
<path fill-rule="evenodd" clip-rule="evenodd" d="M764.04 337.411L691.42 425.354L744.958 409.452L764.04 337.411Z" stroke="#181716" stroke-width="3" stroke-linejoin="round"/>
<path fill-rule="evenodd" clip-rule="evenodd" d="M369.938 349.171L437.379 342.51L375.116 379.337L369.938 349.171Z" stroke="#181716" stroke-width="3" stroke-linejoin="round"/>
<path fill-rule="evenodd" clip-rule="evenodd" d="M538.51 409.504L615.988 424.582L551.039 443.761L518.565 425.354L538.51 409.504Z" stroke="#181716" stroke-width="3" stroke-linejoin="round"/>
<path fill-rule="evenodd" clip-rule="evenodd" d="M886.266 237.708L853.28 193.097L866.904 310.083L886.266 237.708Z" stroke="#181716" stroke-width="3" stroke-linejoin="round"/>
<path fill-rule="evenodd" clip-rule="evenodd" d="M815.82 333.832L857.883 237.069L866.904 310.084L815.82 333.832Z" stroke="#181716" stroke-width="3" stroke-linejoin="round"/>
<path fill-rule="evenodd" clip-rule="evenodd" d="M615.988 424.582L657.412 473.927L551.039 443.761L615.988 424.582Z" stroke="#181716" stroke-width="3" stroke-linejoin="round"/>
<path fill-rule="evenodd" clip-rule="evenodd" d="M691.42 425.354L615.988 424.582L657.412 473.927L691.42 425.354Z" stroke="#181716" stroke-width="3" stroke-linejoin="round"/>
<path fill-rule="evenodd" clip-rule="evenodd" d="M538.51 409.504L615.988 364.254V424.582L538.51 409.504Z" stroke="#181716" stroke-width="3" stroke-linejoin="round"/>
<path fill-rule="evenodd" clip-rule="evenodd" d="M815.82 333.832L805.084 239.37C798.055 253.732 791.05 269.007 784.219 285.182C776.583 303.262 769.901 320.725 764.04 337.411C781.3 336.218 798.56 335.025 815.82 333.832Z" stroke="#181716" stroke-width="3" stroke-linejoin="round"/>
<path fill-rule="evenodd" clip-rule="evenodd" d="M857.883 237.069L805.084 239.37L815.82 333.832L857.883 237.069Z" stroke="#181716" stroke-width="3" stroke-linejoin="round"/>
<path fill-rule="evenodd" clip-rule="evenodd" d="M615.988 364.254L691.42 425.354L615.988 424.582V364.254Z" stroke="#181716" stroke-width="3" stroke-linejoin="round"/>
<path fill-rule="evenodd" clip-rule="evenodd" d="M764.04 337.411L700.753 268.727L782.757 288.39L764.04 337.411Z" stroke="#181716" stroke-width="3" stroke-linejoin="round"/>
<path fill-rule="evenodd" clip-rule="evenodd" d="M712.132 342.396L764.04 337.411L700.753 268.727L712.132 342.396Z" stroke="#181716" stroke-width="3" stroke-linejoin="round"/>
<path fill-rule="evenodd" clip-rule="evenodd" d="M853.28 193.097L805.084 239.369L857.883 237.069L853.28 193.097Z" stroke="#181716" stroke-width="3" stroke-linejoin="round"/>
<path fill-rule="evenodd" clip-rule="evenodd" d="M712.132 342.396L691.42 425.354L764.04 337.411L712.132 342.396Z" stroke="#181716" stroke-width="3" stroke-linejoin="round"/>
<path fill-rule="evenodd" clip-rule="evenodd" d="M615.988 364.254L712.132 342.396L691.42 425.354L615.988 364.254Z" stroke="#181716" stroke-width="3" stroke-linejoin="round"/>
<path fill-rule="evenodd" clip-rule="evenodd" d="M700.753 268.727L805.084 239.37L782.757 288.39L700.753 268.727Z" stroke="#181716" stroke-width="3" stroke-linejoin="round"/>
<path fill-rule="evenodd" clip-rule="evenodd" d="M712.132 342.396L700.753 268.727L649.485 303.069L712.132 342.396Z" stroke="#181716" stroke-width="3" stroke-linejoin="round"/>
<path fill-rule="evenodd" clip-rule="evenodd" d="M615.988 364.254L649.485 303.069L712.132 342.396L615.988 364.254Z" stroke="#181716" stroke-width="3" stroke-linejoin="round"/>
<path fill-rule="evenodd" clip-rule="evenodd" d="M437.379 342.51L466.21 409.504L375.116 379.337L437.379 342.51Z" stroke="#181716" stroke-width="3" stroke-linejoin="round"/>
<path fill-rule="evenodd" clip-rule="evenodd" d="M548.354 37.2794L625.96 46.8236L564.943 88.75L548.354 37.2794Z" stroke="#181716" stroke-width="3" stroke-linejoin="round"/>
<path fill-rule="evenodd" clip-rule="evenodd" d="M853.28 193.097L819.921 159.671L805.084 239.369L853.28 193.097Z" stroke="#181716" stroke-width="3" stroke-linejoin="round"/>
<path fill-rule="evenodd" clip-rule="evenodd" d="M625.96 46.8236L712.132 63.0147L644.712 109.202L625.96 46.8236Z" stroke="#181716" stroke-width="3" stroke-linejoin="round"/>
<path fill-rule="evenodd" clip-rule="evenodd" d="M564.943 88.75L644.712 109.202L625.96 46.8235L564.943 88.75Z" stroke="#181716" stroke-width="3" stroke-linejoin="round"/>
<path fill-rule="evenodd" clip-rule="evenodd" d="M712.132 63.0147L778.622 102.044L732.397 137.834L712.132 63.0147Z" stroke="#181716" stroke-width="3" stroke-linejoin="round"/>
<path fill-rule="evenodd" clip-rule="evenodd" d="M819.921 159.671H837.171L829.182 147.038L805.084 137.834H732.397L819.921 159.671Z" stroke="#181716" stroke-width="3" stroke-linejoin="round"/>
<path fill-rule="evenodd" clip-rule="evenodd" d="M778.622 102.044L819.921 132.721L805.084 137.834H732.396L778.622 102.044Z" stroke="#181716" stroke-width="3" stroke-linejoin="round"/>
<path fill-rule="evenodd" clip-rule="evenodd" d="M644.712 109.202L732.396 137.834L712.132 63.0147L644.712 109.202Z" stroke="#181716" stroke-width="3" stroke-linejoin="round"/>
<path fill-rule="evenodd" clip-rule="evenodd" d="M805.084 239.37L776.159 148.753L819.921 159.671L805.084 239.37Z" stroke="#181716" stroke-width="3" stroke-linejoin="round"/>
<path fill-rule="evenodd" clip-rule="evenodd" d="M700.753 268.727L789.09 189.263L805.084 239.37L700.753 268.727Z" stroke="#181716" stroke-width="3" stroke-linejoin="round"/>
<path fill-rule="evenodd" clip-rule="evenodd" d="M732.397 137.834L761.359 212.399L789.09 189.262L776.159 148.753L732.397 137.834Z" stroke="#181716" stroke-width="3" stroke-linejoin="round"/>
<path fill-rule="evenodd" clip-rule="evenodd" d="M700.753 268.727L712.132 224.159H750.297L700.753 268.727Z" stroke="#181716" stroke-width="3" stroke-linejoin="round"/>
<path fill-rule="evenodd" clip-rule="evenodd" d="M649.485 303.069L552.318 333.661L615.988 364.254L649.485 303.069Z" stroke="#181716" stroke-width="3" stroke-linejoin="round"/>
<path fill-rule="evenodd" clip-rule="evenodd" d="M437.38 342.51L538.51 409.504H466.21L437.38 342.51Z" stroke="#181716" stroke-width="3" stroke-linejoin="round"/>
<path fill-rule="evenodd" clip-rule="evenodd" d="M552.318 333.661L538.51 409.504L615.988 364.254L552.318 333.661Z" stroke="#181716" stroke-width="3" stroke-linejoin="round"/>
<path fill-rule="evenodd" clip-rule="evenodd" d="M437.38 342.51L552.318 333.661L538.51 409.504L437.38 342.51Z" stroke="#181716" stroke-width="3" stroke-linejoin="round"/>
<path fill-rule="evenodd" clip-rule="evenodd" d="M750.297 183.921H664.06L712.132 224.158H750.297L761.359 212.399L750.297 183.921Z" stroke="#181716" stroke-width="3" stroke-linejoin="round"/>
<path fill-rule="evenodd" clip-rule="evenodd" d="M514.151 336.6C538.487 315.698 562.822 294.797 587.157 273.896L552.318 333.661C539.596 334.641 526.873 335.62 514.151 336.6Z" stroke="#181716" stroke-width="3" stroke-linejoin="round"/>
<path fill-rule="evenodd" clip-rule="evenodd" d="M664.06 183.921L649.485 303.069L700.753 268.727L712.132 224.158L664.06 183.921Z" stroke="#181716" stroke-width="3" stroke-linejoin="round"/>
<path fill-rule="evenodd" clip-rule="evenodd" d="M587.157 273.896L655.17 256.594L649.485 303.069L552.318 333.662L587.157 273.896Z" stroke="#181716" stroke-width="3" stroke-linejoin="round"/>
<path fill-rule="evenodd" clip-rule="evenodd" d="M241.639 295.128L256.981 213.377L292.268 293.95L241.639 295.128Z" stroke="#181716" stroke-width="3" stroke-linejoin="round"/>
<path fill-rule="evenodd" clip-rule="evenodd" d="M524.925 327.346L473.902 295.128L553.191 303.069L524.925 327.346Z" stroke="#181716" stroke-width="3" stroke-linejoin="round"/>
<path fill-rule="evenodd" clip-rule="evenodd" d="M664.06 183.921L587.157 273.896L655.17 256.594L664.06 183.921Z" stroke="#181716" stroke-width="3" stroke-linejoin="round"/>
<path fill-rule="evenodd" clip-rule="evenodd" d="M473.902 295.128L587.157 273.896L553.191 303.069L473.902 295.128Z" stroke="#181716" stroke-width="3" stroke-linejoin="round"/>
<path fill-rule="evenodd" clip-rule="evenodd" d="M644.712 109.202L750.297 183.921L732.396 137.834L644.712 109.202Z" stroke="#181716" stroke-width="3" stroke-linejoin="round"/>
<path fill-rule="evenodd" clip-rule="evenodd" d="M664.06 183.921L644.712 109.202L750.298 183.921H664.06Z" stroke="#181716" stroke-width="3" stroke-linejoin="round"/>
<path fill-rule="evenodd" clip-rule="evenodd" d="M564.943 88.75L655.939 152.561L644.712 109.202L564.943 88.75Z" stroke="#181716" stroke-width="3" stroke-linejoin="round"/>
<path fill-rule="evenodd" clip-rule="evenodd" d="M655.939 152.561L587.157 159.671L664.06 183.921L655.939 152.561Z" stroke="#181716" stroke-width="3" stroke-linejoin="round"/>
<path fill-rule="evenodd" clip-rule="evenodd" d="M564.943 88.75L587.157 159.671L655.939 152.561L564.943 88.75Z" stroke="#181716" stroke-width="3" stroke-linejoin="round"/>
<path fill-rule="evenodd" clip-rule="evenodd" d="M512.173 34.2116L564.943 88.75L548.354 37.2793L512.173 34.2116Z" stroke="#181716" stroke-width="3" stroke-linejoin="round"/>
<path fill-rule="evenodd" clip-rule="evenodd" d="M623.496 231.381L513.547 287.696L587.157 273.896L623.496 231.381Z" stroke="#181716" stroke-width="3" stroke-linejoin="round"/>
<path fill-rule="evenodd" clip-rule="evenodd" d="M564.943 88.75L504.661 159.671L581.258 142.607L564.943 88.75Z" stroke="#181716" stroke-width="3" stroke-linejoin="round"/>
<path fill-rule="evenodd" clip-rule="evenodd" d="M484.301 159.671L519.524 118.448L536.777 121.887L504.661 159.671H484.301Z" stroke="#181716" stroke-width="3" stroke-linejoin="round"/>
<path fill-rule="evenodd" clip-rule="evenodd" d="M502.123 312.948L443.133 314.403L473.902 295.128L502.123 312.948Z" stroke="#181716" stroke-width="3" stroke-linejoin="round"/>
<path fill-rule="evenodd" clip-rule="evenodd" d="M443.133 314.402L414.622 311.237L440.704 292.928L473.903 295.128L443.133 314.402Z" stroke="#181716" stroke-width="3" stroke-linejoin="round"/>
<path fill-rule="evenodd" clip-rule="evenodd" d="M414.622 311.237L367.445 304.765L403.659 282.958L440.704 292.928L414.622 311.237Z" stroke="#181716" stroke-width="3" stroke-linejoin="round"/>
<path fill-rule="evenodd" clip-rule="evenodd" d="M519.524 118.448L532.757 55.4855L564.943 88.7502L536.777 121.887L519.524 118.448Z" stroke="#181716" stroke-width="3" stroke-linejoin="round"/>
<path fill-rule="evenodd" clip-rule="evenodd" d="M512.173 34.2116L495.36 95.0559L519.524 118.448L532.757 55.4856L512.173 34.2116Z" stroke="#181716" stroke-width="3" stroke-linejoin="round"/>
<path fill-rule="evenodd" clip-rule="evenodd" d="M417.307 11.2032L359.007 37.2792L447.608 22.4519L417.307 11.2032Z" stroke="#181716" stroke-width="3" stroke-linejoin="round"/>
<path fill-rule="evenodd" clip-rule="evenodd" d="M495.36 95.056L478.164 28.0172L512.173 34.2117L495.36 95.056Z" stroke="#181716" stroke-width="3" stroke-linejoin="round"/>
<path fill-rule="evenodd" clip-rule="evenodd" d="M447.608 22.4518L469.982 90.4542L495.36 95.056L478.164 28.0175L447.608 22.4518Z" stroke="#181716" stroke-width="3" stroke-linejoin="round"/>
<path fill-rule="evenodd" clip-rule="evenodd" d="M484.301 159.671L495.36 95.0561L519.524 118.448L484.301 159.671Z" stroke="#181716" stroke-width="3" stroke-linejoin="round"/>
<path fill-rule="evenodd" clip-rule="evenodd" d="M484.301 159.671L469.982 90.4543L495.36 95.0561L484.301 159.671Z" stroke="#181716" stroke-width="3" stroke-linejoin="round"/>
<path fill-rule="evenodd" clip-rule="evenodd" d="M434.95 174.051L474.822 113.85L484.301 159.671L434.95 174.051Z" stroke="#181716" stroke-width="3" stroke-linejoin="round"/>
<path fill-rule="evenodd" clip-rule="evenodd" d="M456.941 50.8186L391.305 31.8742L447.608 22.4518L456.941 50.8186Z" stroke="#181716" stroke-width="3" stroke-linejoin="round"/>
<path fill-rule="evenodd" clip-rule="evenodd" d="M469.982 90.4543L414.239 66.2954L391.305 31.8741L456.941 50.8186L469.982 90.4543Z" stroke="#181716" stroke-width="3" stroke-linejoin="round"/>
<path fill-rule="evenodd" clip-rule="evenodd" d="M444.474 159.671L443.133 106.56L474.822 113.85L444.474 159.671Z" stroke="#181716" stroke-width="3" stroke-linejoin="round"/>
<path fill-rule="evenodd" clip-rule="evenodd" d="M414.238 66.2955L443.133 106.56L469.982 90.4544L414.238 66.2955Z" stroke="#181716" stroke-width="3" stroke-linejoin="round"/>
<path fill-rule="evenodd" clip-rule="evenodd" d="M474.822 113.85L469.982 90.4543L443.133 106.56L474.822 113.85Z" stroke="#181716" stroke-width="3" stroke-linejoin="round"/>
<path fill-rule="evenodd" clip-rule="evenodd" d="M256.981 213.377L237.42 182.488L237.613 232.467L256.981 213.377Z" stroke="#181716" stroke-width="3" stroke-linejoin="round"/>
<path fill-rule="evenodd" clip-rule="evenodd" d="M183.083 172.901L200.471 129.185V154.878L205.074 167.532L183.083 172.901Z" stroke="#181716" stroke-width="3" stroke-linejoin="round"/>
<path fill-rule="evenodd" clip-rule="evenodd" d="M403.659 282.958L282.278 271.138L292.268 293.95L367.445 304.765L403.659 282.958Z" stroke="#181716" stroke-width="3" stroke-linejoin="round"/>
<path fill-rule="evenodd" clip-rule="evenodd" d="M403.659 282.958L367.445 241.671L310.597 273.896L403.659 282.958Z" stroke="#181716" stroke-width="3" stroke-linejoin="round"/>
<path fill-rule="evenodd" clip-rule="evenodd" d="M310.597 273.896L295.081 232.467L275.742 256.214L282.278 271.138L310.597 273.896Z" stroke="#181716" stroke-width="3" stroke-linejoin="round"/>
<path fill-rule="evenodd" clip-rule="evenodd" d="M200.471 154.878L237.613 116.019L221.055 167.532H205.074L200.471 154.878Z" stroke="#181716" stroke-width="3" stroke-linejoin="round"/>
<path fill-rule="evenodd" clip-rule="evenodd" d="M443.133 106.56L397.873 151.043L444.474 146.697L443.133 106.56Z" stroke="#181716" stroke-width="3" stroke-linejoin="round"/>
<path fill-rule="evenodd" clip-rule="evenodd" d="M393.527 171.796L397.874 151.043L444.474 146.697V159.671L393.527 171.796Z" stroke="#181716" stroke-width="3" stroke-linejoin="round"/>
<path fill-rule="evenodd" clip-rule="evenodd" d="M237.42 182.488L253.146 129.185L237.613 116.019L221.055 167.532L237.42 182.488Z" stroke="#181716" stroke-width="3" stroke-linejoin="round"/>
<path fill-rule="evenodd" clip-rule="evenodd" d="M397.873 41.7333L352.87 63.0147L323.719 71.0252L329.857 55.4853L359.007 37.2794L391.305 31.8744L397.873 41.7333Z" stroke="#181716" stroke-width="3" stroke-linejoin="round"/>
<path fill-rule="evenodd" clip-rule="evenodd" d="M237.613 116.019L272.068 88.686L253.146 129.185L237.613 116.019Z" stroke="#181716" stroke-width="3" stroke-linejoin="round"/>
<path fill-rule="evenodd" clip-rule="evenodd" d="M414.238 66.2955L352.87 63.0149L397.874 41.7335L414.238 66.2955Z" stroke="#181716" stroke-width="3" stroke-linejoin="round"/>
<path fill-rule="evenodd" clip-rule="evenodd" d="M295.081 232.467L293.169 198.849L256.981 213.377L275.742 256.214L295.081 232.467Z" stroke="#181716" stroke-width="3" stroke-linejoin="round"/>
<path fill-rule="evenodd" clip-rule="evenodd" d="M272.068 88.6861L303.264 68.4685L293.169 118.448L272.068 88.6861Z" stroke="#181716" stroke-width="3" stroke-linejoin="round"/>
<path fill-rule="evenodd" clip-rule="evenodd" d="M329.857 55.4855L303.263 68.4685L293.169 118.448L323.72 71.025L329.857 55.4855Z" stroke="#181716" stroke-width="3" stroke-linejoin="round"/>
<path fill-rule="evenodd" clip-rule="evenodd" d="M414.238 66.2955L414.622 134.582L443.133 106.56L414.238 66.2955Z" stroke="#181716" stroke-width="3" stroke-linejoin="round"/>
<path fill-rule="evenodd" clip-rule="evenodd" d="M397.873 151.043L346.733 149.253L357.128 172.901L393.526 171.796L397.873 151.043Z" stroke="#181716" stroke-width="3" stroke-linejoin="round"/>
<path fill-rule="evenodd" clip-rule="evenodd" d="M293.169 118.448L261.84 152.561L253.146 129.185L272.068 88.6861L293.169 118.448Z" stroke="#181716" stroke-width="3" stroke-linejoin="round"/>
<path fill-rule="evenodd" clip-rule="evenodd" d="M352.87 63.0147L414.238 106.56V66.2953L352.87 63.0147Z" stroke="#181716" stroke-width="3" stroke-linejoin="round"/>
<path fill-rule="evenodd" clip-rule="evenodd" d="M293.169 118.448L371.635 76.3298L352.87 63.0148L323.72 71.025L293.169 118.448Z" stroke="#181716" stroke-width="3" stroke-linejoin="round"/>
<path fill-rule="evenodd" clip-rule="evenodd" d="M256.981 213.377L261.84 152.561L253.146 129.185L237.42 182.488L256.981 213.377Z" stroke="#181716" stroke-width="3" stroke-linejoin="round"/>
<path fill-rule="evenodd" clip-rule="evenodd" d="M371.635 76.3297L414.622 134.582L414.238 106.56L371.635 76.3297Z" stroke="#181716" stroke-width="3" stroke-linejoin="round"/>
<path fill-rule="evenodd" clip-rule="evenodd" d="M346.733 149.253L293.169 198.849L357.128 172.901L346.733 149.253Z" stroke="#181716" stroke-width="3" stroke-linejoin="round"/>
<path fill-rule="evenodd" clip-rule="evenodd" d="M261.84 152.561L293.169 198.849L256.981 213.377L261.84 152.561Z" stroke="#181716" stroke-width="3" stroke-linejoin="round"/>
<path fill-rule="evenodd" clip-rule="evenodd" d="M371.635 76.3297L397.873 151.043L414.622 134.582L371.635 76.3297Z" stroke="#181716" stroke-width="3" stroke-linejoin="round"/>
<path fill-rule="evenodd" clip-rule="evenodd" d="M293.169 198.849L303.263 146.697L321.194 172.901L293.169 198.849Z" stroke="#181716" stroke-width="3" stroke-linejoin="round"/>
<path fill-rule="evenodd" clip-rule="evenodd" d="M261.84 152.561L303.264 146.697L293.169 198.849L261.84 152.561Z" stroke="#181716" stroke-width="3" stroke-linejoin="round"/>
<path fill-rule="evenodd" clip-rule="evenodd" d="M346.733 149.253L384.754 113.687L397.873 151.043L346.733 149.253Z" stroke="#181716" stroke-width="3" stroke-linejoin="round"/>
<path fill-rule="evenodd" clip-rule="evenodd" d="M293.169 118.448L303.263 146.697L261.84 152.561L293.169 118.448Z" stroke="#181716" stroke-width="3" stroke-linejoin="round"/>
<path fill-rule="evenodd" clip-rule="evenodd" d="M384.754 113.686L332.402 97.3887L371.635 76.3297L384.754 113.686Z" stroke="#181716" stroke-width="3" stroke-linejoin="round"/>
<path fill-rule="evenodd" clip-rule="evenodd" d="M346.733 149.253L332.402 97.3889L384.754 113.687L346.733 149.253Z" stroke="#181716" stroke-width="3" stroke-linejoin="round"/>
<path fill-rule="evenodd" clip-rule="evenodd" d="M293.169 118.448L346.733 149.253L332.402 97.3888L293.169 118.448Z" stroke="#181716" stroke-width="3" stroke-linejoin="round"/>
<path fill-rule="evenodd" clip-rule="evenodd" d="M321.194 172.901L346.733 149.253L293.169 118.448L303.264 146.697L321.194 172.901Z" stroke="#181716" stroke-width="3" stroke-linejoin="round"/>
<path fill-rule="evenodd" clip-rule="evenodd" d="M486.347 195.27L469.982 205.752L485.068 212.399L486.347 195.27Z" fill="#0A151D"/>
<path fill-rule="evenodd" clip-rule="evenodd" d="M484.301 229.016L485.068 212.399L469.982 205.752L472.283 221.602L484.301 229.016Z" fill="#0A1320"/>
<path fill-rule="evenodd" clip-rule="evenodd" d="M486.347 195.27L498.876 200.639L485.068 212.399L486.347 195.27Z" fill="#121922"/>
<path fill-rule="evenodd" clip-rule="evenodd" d="M498.876 220.068L484.301 229.016L485.068 212.399L498.876 220.068Z" fill="#04090C"/>
<path fill-rule="evenodd" clip-rule="evenodd" d="M498.876 200.639V220.068L485.068 212.399L498.876 200.639Z" fill="#090C12"/>
<path fill-rule="evenodd" clip-rule="evenodd" d="M462.055 180.443L443.133 203.834L433.161 192.138L462.055 180.443Z" fill="#110D0D"/>
<path fill-rule="evenodd" clip-rule="evenodd" d="M456.941 245.377L430.859 229.016L443.9 224.158L456.941 245.377Z" fill="#251403"/>
<path fill-rule="evenodd" clip-rule="evenodd" d="M433.16 192.139L420.887 210.354L443.133 203.834L433.16 192.139Z" fill="#100C0C"/>
<path fill-rule="evenodd" clip-rule="evenodd" d="M443.9 224.159L443.133 203.835L430.859 229.016L443.9 224.159Z" fill="#1B0D0E"/>
<path fill-rule="evenodd" clip-rule="evenodd" d="M420.887 210.354L430.859 229.016L443.133 203.834L420.887 210.354Z" fill="#241513"/>
<path fill-rule="evenodd" clip-rule="evenodd" d="M527.259 177.886L555.642 198.849L557.688 217.384L527.259 177.886Z" fill="#937444"/>
<path fill-rule="evenodd" clip-rule="evenodd" d="M545.158 224.159L546.295 202.596L557.688 217.384L545.158 224.159Z" fill="#916E3F"/>
<path fill-rule="evenodd" clip-rule="evenodd" d="M555.642 198.849L535.442 174.051L527.259 177.886L555.642 198.849Z" fill="#6A553B"/>
<path fill-rule="evenodd" clip-rule="evenodd" d="M557.688 217.384L553.852 231.061L539.021 245.377L545.158 224.159L557.688 217.384Z" fill="#9A8459"/>
<path fill-rule="evenodd" clip-rule="evenodd" d="M503.223 252.28L529.304 229.016L545.158 224.159L535.825 238.219L503.223 252.28Z" fill="#19110B"/>
<path fill-rule="evenodd" clip-rule="evenodd" d="M539.021 245.377L545.158 224.158L535.825 238.219L522.976 254.581L539.021 245.377Z" fill="#7C6943"/>
<path fill-rule="evenodd" clip-rule="evenodd" d="M527.259 177.886L532.757 213.377L546.295 202.596L527.259 177.886Z" fill="#3A373D"/>
<path fill-rule="evenodd" clip-rule="evenodd" d="M545.158 224.159L529.305 229.016L532.757 213.377L546.295 202.596L545.158 224.159Z" fill="#301611"/>
<path fill-rule="evenodd" clip-rule="evenodd" d="M522.976 254.581L535.825 238.219L503.223 252.28L522.976 254.581Z" fill="#6F5D41"/>
<path fill-rule="evenodd" clip-rule="evenodd" d="M456.941 245.377L477.525 252.28H446.073L456.941 245.377Z" fill="#736437"/>
<path fill-rule="evenodd" clip-rule="evenodd" d="M522.976 254.581L504.182 260.908H486.347L503.223 252.28L522.976 254.581Z" fill="#6E6231"/>
<path fill-rule="evenodd" clip-rule="evenodd" d="M477.525 252.28H503.223L486.346 260.908L477.525 252.28Z" fill="#5D4D1F"/>
<path fill-rule="evenodd" clip-rule="evenodd" d="M446.073 252.28L465.251 260.908H486.347L477.525 252.28H446.073Z" fill="#776847"/>
<path fill-rule="evenodd" clip-rule="evenodd" d="M484.301 229.016L503.223 252.28L498.876 220.068L484.301 229.016Z" fill="#9A9676"/>
<path fill-rule="evenodd" clip-rule="evenodd" d="M529.305 229.016L503.223 252.28L498.876 220.068L529.305 229.016Z" fill="#A39C85"/>
<path fill-rule="evenodd" clip-rule="evenodd" d="M532.757 213.377L498.876 220.068L529.305 229.016L532.757 213.377Z" fill="#A3977E"/>
<path fill-rule="evenodd" clip-rule="evenodd" d="M484.301 229.016L477.525 252.28H503.223L484.301 229.016Z" fill="#A3A17F"/>
<path fill-rule="evenodd" clip-rule="evenodd" d="M498.876 220.068L532.757 213.377L529.467 192.138L498.876 220.068Z" fill="#968D7C"/>
<path fill-rule="evenodd" clip-rule="evenodd" d="M484.301 229.016L456.941 245.378L477.525 252.28L484.301 229.016Z" fill="#9F937D"/>
<path fill-rule="evenodd" clip-rule="evenodd" d="M498.876 200.639L529.467 192.138L498.876 220.068V200.639Z" fill="#928D77"/>
<path fill-rule="evenodd" clip-rule="evenodd" d="M472.283 221.602L456.941 245.378L484.301 229.016L472.283 221.602Z" fill="#A0967B"/>
<path fill-rule="evenodd" clip-rule="evenodd" d="M443.9 224.159L472.283 221.602L456.941 245.378L443.9 224.159Z" fill="#988C71"/>
<path fill-rule="evenodd" clip-rule="evenodd" d="M469.982 205.752L443.133 203.834L443.9 224.158L469.982 205.752Z" fill="#72684D"/>
<path fill-rule="evenodd" clip-rule="evenodd" d="M472.283 221.602L469.982 205.752L443.9 224.159L472.283 221.602Z" fill="#877A63"/>
<path fill-rule="evenodd" clip-rule="evenodd" d="M527.259 177.886L498.876 200.639L529.467 192.139L527.259 177.886Z" fill="#848073"/>
<path fill-rule="evenodd" clip-rule="evenodd" d="M469.982 205.752L462.055 180.443L443.133 203.834L469.982 205.752Z" fill="#645742"/>
<path fill-rule="evenodd" clip-rule="evenodd" d="M535.442 174.051L504.661 159.671L485.068 170.216L527.259 177.886L535.442 174.051Z" fill="#42372D"/>
<path fill-rule="evenodd" clip-rule="evenodd" d="M462.055 180.443L485.068 170.217L504.661 159.671H484.301L462.055 180.443Z" fill="#786031"/>
<path fill-rule="evenodd" clip-rule="evenodd" d="M486.347 195.27L462.055 180.443L469.982 205.752L486.347 195.27Z" fill="#675C44"/>
<path fill-rule="evenodd" clip-rule="evenodd" d="M527.259 177.886L495.36 180.443L498.876 200.639L527.259 177.886Z" fill="#737465"/>
<path fill-rule="evenodd" clip-rule="evenodd" d="M474.201 187.856L495.36 180.443L485.068 170.217L462.055 180.443L474.201 187.856Z" fill="#4C4131"/>
<path fill-rule="evenodd" clip-rule="evenodd" d="M498.876 200.639L486.347 195.27L474.201 187.856L495.36 180.443L498.876 200.639Z" fill="#675845"/>
<path fill-rule="evenodd" clip-rule="evenodd" d="M485.068 170.217L495.36 180.443L527.259 177.886L485.068 170.217Z" fill="#312E23"/>
<path fill-rule="evenodd" clip-rule="evenodd" d="M664.06 183.921L588.756 180.443L596.427 200.639L664.06 183.921Z" fill="#71665D"/>
<path fill-rule="evenodd" clip-rule="evenodd" d="M587.157 159.671L588.756 180.443L664.06 183.921L587.157 159.671Z" fill="#ADA399"/>
<path fill-rule="evenodd" clip-rule="evenodd" d="M596.427 200.639L623.496 231.381L664.06 183.921L596.427 200.639Z" fill="#928B84"/>
<path fill-rule="evenodd" clip-rule="evenodd" d="M587.157 159.671L535.442 174.051L555.642 198.849L587.157 159.671Z" fill="#827872"/>
<path fill-rule="evenodd" clip-rule="evenodd" d="M588.755 180.443L557.688 217.384L555.642 198.849L587.157 159.671L588.755 180.443Z" fill="#877777"/>
<path fill-rule="evenodd" clip-rule="evenodd" d="M596.427 200.639L553.852 231.061L557.688 217.384L588.756 180.443L596.427 200.639Z" fill="#837D72"/>
<path fill-rule="evenodd" clip-rule="evenodd" d="M623.496 231.381L553.852 231.061L596.426 200.639L623.496 231.381Z" fill="#AFA6A2"/>
<path fill-rule="evenodd" clip-rule="evenodd" d="M539.021 245.377L582.692 252.28L623.496 231.381L553.852 231.061L539.021 245.377Z" fill="#A6A09A"/>
<path fill-rule="evenodd" clip-rule="evenodd" d="M581.259 142.607L504.661 159.671L535.442 174.052L587.157 159.671L581.259 142.607Z" fill="#867267"/>
<path fill-rule="evenodd" clip-rule="evenodd" d="M522.976 254.581L553.852 267.051L582.692 252.28L539.021 245.377L522.976 254.581Z" fill="#9B968F"/>
<path fill-rule="evenodd" clip-rule="evenodd" d="M504.182 260.908L513.547 287.696L553.852 267.051L522.976 254.581L504.182 260.908Z" fill="#99938C"/>
<path fill-rule="evenodd" clip-rule="evenodd" d="M465.251 260.908L473.902 295.128L513.547 287.696L504.182 260.908H465.251Z" fill="#8D827A"/>
<path fill-rule="evenodd" clip-rule="evenodd" d="M446.073 252.28L403.659 228.908L430.859 229.016L456.941 245.377L446.073 252.28Z" fill="#685738"/>
<path fill-rule="evenodd" clip-rule="evenodd" d="M403.659 228.908L406.951 192.139L420.887 210.353L430.859 229.016L403.659 228.908Z" fill="#65542B"/>
<path fill-rule="evenodd" clip-rule="evenodd" d="M484.301 159.671L434.95 174.051L462.055 180.443L484.301 159.671Z" fill="#73562A"/>
<path fill-rule="evenodd" clip-rule="evenodd" d="M406.951 192.139H433.161L420.887 210.354L406.951 192.139Z" fill="#392C14"/>
<path fill-rule="evenodd" clip-rule="evenodd" d="M434.95 174.051L406.951 192.139H433.16L462.055 180.443L434.95 174.051Z" fill="#271D09"/>
<path fill-rule="evenodd" clip-rule="evenodd" d="M406.951 192.139L393.527 171.796L434.95 174.051L406.951 192.139Z" fill="#423624"/>
<path fill-rule="evenodd" clip-rule="evenodd" d="M446.073 252.28L440.704 292.928L473.902 295.128L465.251 260.908L446.073 252.28Z" fill="#77706C"/>
<path fill-rule="evenodd" clip-rule="evenodd" d="M403.659 282.958V228.909L446.074 252.28L440.704 292.928L403.659 282.958Z" fill="#5B534F"/>
<path fill-rule="evenodd" clip-rule="evenodd" d="M444.474 159.671L393.527 171.796L434.95 174.051L444.474 159.671Z" fill="#AAA296"/>
<path fill-rule="evenodd" clip-rule="evenodd" d="M393.527 171.796L355.938 193.097L406.951 192.138L393.527 171.796Z" fill="#6B5E4C"/>
<path fill-rule="evenodd" clip-rule="evenodd" d="M403.659 228.908L355.938 193.097L406.951 192.139L403.659 228.908Z" fill="#5D5243"/>
<path fill-rule="evenodd" clip-rule="evenodd" d="M403.659 228.908L367.445 241.671L403.659 282.958V228.908Z" fill="#655C54"/>
<path fill-rule="evenodd" clip-rule="evenodd" d="M355.938 193.097L367.445 241.67L403.659 228.908L355.938 193.097Z" fill="#554C3E"/>
<path fill-rule="evenodd" clip-rule="evenodd" d="M367.445 241.67L319.117 224.159L355.938 193.097L367.445 241.67Z" fill="#696053"/>
<path fill-rule="evenodd" clip-rule="evenodd" d="M393.527 171.796L357.128 172.901L355.938 193.097L393.527 171.796Z" fill="#746A5F"/>
<path fill-rule="evenodd" clip-rule="evenodd" d="M319.117 224.159L310.597 273.896L367.445 241.67L319.117 224.159Z" fill="#7D756D"/>
<path fill-rule="evenodd" clip-rule="evenodd" d="M295.081 232.467L319.117 224.159L310.597 273.896L295.081 232.467Z" fill="#8A8374"/>
<path fill-rule="evenodd" clip-rule="evenodd" d="M293.169 198.849L333.058 212.399L319.117 224.158L295.081 232.467L293.169 198.849Z" fill="#81725E"/>
<path fill-rule="evenodd" clip-rule="evenodd" d="M357.128 172.901L314.525 206.103L333.058 212.399L355.938 193.097L357.128 172.901Z" fill="#4C4037"/>
<path fill-rule="evenodd" clip-rule="evenodd" d="M293.169 198.849L357.128 172.901L314.525 206.103L293.169 198.849Z" fill="#6B5E56"/>
<path fill-rule="evenodd" clip-rule="evenodd" d="M52.9304 516.109L50.6291 453.987L34.1361 502.688L52.9304 516.109Z" fill="#C6B78C"/>
<path fill-rule="evenodd" clip-rule="evenodd" d="M40.6567 518.027L34.1362 502.688L52.9305 516.109L45.6429 520.136L40.6567 518.027Z" fill="#CBC2A2"/>
<path fill-rule="evenodd" clip-rule="evenodd" d="M50.6291 453.987L9.7168 445.806L34.1361 502.688L50.6291 453.987Z" fill="#B99138"/>
<mask id="mask0_43_4430" style="mask-type:alpha" maskUnits="userSpaceOnUse" x="0" y="403" width="44" height="50">
<path fill-rule="evenodd" clip-rule="evenodd" d="M0 403.368H43.5334V452.568H0V403.368Z" fill="white"/>
</mask>
<g mask="url(#mask0_43_4430)">
<path fill-rule="evenodd" clip-rule="evenodd" d="M9.71669 445.806L-6.10352e-05 403.368L43.5334 452.568L9.71669 445.806Z" fill="#A77017"/>
</g>
<path fill-rule="evenodd" clip-rule="evenodd" d="M50.6291 453.987L66.4826 410.527L58.5559 400.301L43.5335 452.568L50.6291 453.987Z" fill="#A79069"/>
<path fill-rule="evenodd" clip-rule="evenodd" d="M0 403.368V354.795L30.1729 388.029L0 403.368Z" fill="#AC6A19"/>
<path fill-rule="evenodd" clip-rule="evenodd" d="M58.5559 400.3L0.00012207 403.368L43.5332 452.568L58.5559 400.3Z" fill="#AB7E34"/>
<mask id="mask1_43_4430" style="mask-type:alpha" maskUnits="userSpaceOnUse" x="0" y="301" width="31" height="69">
<path fill-rule="evenodd" clip-rule="evenodd" d="M0 301.109H30.1728V369.006H0V301.109Z" fill="white"/>
</mask>
<g mask="url(#mask1_43_4430)">
<path fill-rule="evenodd" clip-rule="evenodd" d="M12.9016 369.006L30.1728 318.493L12.9016 301.109L-0.00012207 354.795L12.9016 369.006Z" fill="#B06C2C"/>
</g>
<path fill-rule="evenodd" clip-rule="evenodd" d="M58.5559 400.3L30.173 388.029L0.00012207 403.368L58.5559 400.3Z" fill="#A97219"/>
<path fill-rule="evenodd" clip-rule="evenodd" d="M30.1729 318.493V388.029L12.9017 369.005L30.1729 318.493Z" fill="#AE7834"/>
<path fill-rule="evenodd" clip-rule="evenodd" d="M61.3554 424.582H66.4828L68.7841 414.872L83.8706 397.744L80.0349 395.699L66.4828 410.526L61.3554 424.582Z" fill="#846336"/>
<path fill-rule="evenodd" clip-rule="evenodd" d="M86.4276 424.582H66.4827L68.7841 414.872L83.8705 397.744L86.4276 424.582Z" fill="#7F4F19"/>
<path fill-rule="evenodd" clip-rule="evenodd" d="M66.4827 410.526L80.0348 395.699L73.2589 388.029L58.556 400.3L66.4827 410.526Z" fill="#A78D65"/>
<path fill-rule="evenodd" clip-rule="evenodd" d="M30.1729 388.029H73.2588L58.5558 400.3L30.1729 388.029Z" fill="#9A6F23"/>
<path fill-rule="evenodd" clip-rule="evenodd" d="M30.1729 318.493H55.008L30.1729 388.029V318.493Z" fill="#B88645"/>
<path fill-rule="evenodd" clip-rule="evenodd" d="M55.0081 318.493L51.7159 388.029H30.173L55.0081 318.493Z" fill="#B4843A"/>
<path fill-rule="evenodd" clip-rule="evenodd" d="M83.8705 397.744L93.2037 391.097L110.08 388.029V385.345L92.4364 388.029L80.0348 395.699L83.8705 397.744Z" fill="#85581F"/>
<path fill-rule="evenodd" clip-rule="evenodd" d="M73.2588 388.029L55.008 318.493L51.7159 388.029H73.2588Z" fill="#AA7C2D"/>
<path fill-rule="evenodd" clip-rule="evenodd" d="M30.1729 318.493L33.7526 264.167L12.9017 301.109L30.1729 318.493Z" fill="#B67635"/>
<path fill-rule="evenodd" clip-rule="evenodd" d="M55.0081 318.493L33.7527 264.167L30.173 318.493H55.0081Z" fill="#BD8546"/>
<path fill-rule="evenodd" clip-rule="evenodd" d="M73.2589 388.029L98.1899 353.261L92.4367 388.029L80.0351 395.699L73.2589 388.029Z" fill="#A67C30"/>
<path fill-rule="evenodd" clip-rule="evenodd" d="M110.08 385.345L98.1897 353.261L92.4365 388.029L110.08 385.345Z" fill="#A97844"/>
<path fill-rule="evenodd" clip-rule="evenodd" d="M86.4275 424.582L110.08 388.029L93.2037 391.097L83.8705 397.744L86.4275 424.582Z" fill="#885D22"/>
<path fill-rule="evenodd" clip-rule="evenodd" d="M55.0081 318.493L98.1899 353.261L73.2588 388.029L55.0081 318.493Z" fill="#B58839"/>
<path fill-rule="evenodd" clip-rule="evenodd" d="M86.4276 424.582L142.298 416.832L110.08 388.029L86.4276 424.582Z" fill="#835A1C"/>
<path fill-rule="evenodd" clip-rule="evenodd" d="M33.7527 264.168L62.4873 234.64L55.0081 318.493L33.7527 264.168Z" fill="#C29054"/>
<path fill-rule="evenodd" clip-rule="evenodd" d="M98.1899 353.261L58.2095 282.6L55.0081 318.493L98.1899 353.261Z" fill="#C09045"/>
<path fill-rule="evenodd" clip-rule="evenodd" d="M142.299 416.832V391.545L186.663 394.165L192.8 404.188L142.299 416.832Z" fill="#633C0C"/>
<path fill-rule="evenodd" clip-rule="evenodd" d="M110.08 388.029L142.299 391.545V416.832L110.08 388.029Z" fill="#764E13"/>
<path fill-rule="evenodd" clip-rule="evenodd" d="M110.08 385.345L149.011 373.457V378.059L110.08 388.029V385.345Z" fill="#84561F"/>
<path fill-rule="evenodd" clip-rule="evenodd" d="M186.663 394.165L149.011 378.059L110.08 388.029L142.298 391.544L186.663 394.165Z" fill="#875C19"/>
<path fill-rule="evenodd" clip-rule="evenodd" d="M98.1899 353.261L149.011 373.457L110.08 385.345L98.1899 353.261Z" fill="#AB814D"/>
<path fill-rule="evenodd" clip-rule="evenodd" d="M181.293 224.031L173.75 230.294L183.083 244.61L181.293 224.031Z" fill="#833A0C"/>
<path fill-rule="evenodd" clip-rule="evenodd" d="M62.4874 234.64L93.5873 206.103L91.5416 254.581L62.4874 234.64Z" fill="#E3D5A9"/>
<path fill-rule="evenodd" clip-rule="evenodd" d="M58.2095 282.6L91.5414 254.581L62.4875 234.64L58.2095 282.6Z" fill="#D6B16E"/>
<path fill-rule="evenodd" clip-rule="evenodd" d="M149.011 373.457L171.449 365.596L176.051 369.005L163.586 373.457L149.011 378.059V373.457Z" fill="#7C4F11"/>
<path fill-rule="evenodd" clip-rule="evenodd" d="M196.891 369.006H176.051L163.586 373.457L149.011 378.059L186.663 394.165L196.891 369.006Z" fill="#865916"/>
<path fill-rule="evenodd" clip-rule="evenodd" d="M91.5416 254.581L81.573 323.893L58.2096 282.6L91.5416 254.581Z" fill="#CEA257"/>
<path fill-rule="evenodd" clip-rule="evenodd" d="M98.1899 353.261L123.6 318.493L131.57 366.526L98.1899 353.261Z" fill="#B88538"/>
<path fill-rule="evenodd" clip-rule="evenodd" d="M81.5731 323.893L114.88 282.6L91.5417 254.581L81.5731 323.893Z" fill="#CFA65A"/>
<path fill-rule="evenodd" clip-rule="evenodd" d="M123.6 318.493L114.88 282.6L98.1898 353.261L123.6 318.493Z" fill="#B58645"/>
<path fill-rule="evenodd" clip-rule="evenodd" d="M81.5731 323.893L98.1897 353.261L114.88 282.6L81.5731 323.893Z" fill="#BE883F"/>
<path fill-rule="evenodd" clip-rule="evenodd" d="M171.449 365.596L153.038 311.335L131.57 366.526L149.011 373.457L171.449 365.596Z" fill="#B37F2F"/>
<path fill-rule="evenodd" clip-rule="evenodd" d="M123.6 318.493L153.038 311.335L131.57 366.526L123.6 318.493Z" fill="#BC8743"/>
<path fill-rule="evenodd" clip-rule="evenodd" d="M114.88 282.6L93.5873 206.103L91.5416 254.581L114.88 282.6Z" fill="#E3C583"/>
<path fill-rule="evenodd" clip-rule="evenodd" d="M158.723 328.089H225.53L171.449 365.596L158.723 328.089Z" fill="#A56E2A"/>
<path fill-rule="evenodd" clip-rule="evenodd" d="M93.5872 206.103L131.57 190.541L110.895 268.284L93.5872 206.103Z" fill="#F5E5BA"/>
<path fill-rule="evenodd" clip-rule="evenodd" d="M176.051 369.006L202.005 357.351L192.8 350.788L171.449 365.596L176.051 369.006Z" fill="#7D5016"/>
<path fill-rule="evenodd" clip-rule="evenodd" d="M153.038 311.335L223.612 315.936L225.53 328.089H158.723L153.038 311.335Z" fill="#C09042"/>
<path fill-rule="evenodd" clip-rule="evenodd" d="M228.215 364.254L244.412 386.597L196.891 369.006H176.051L202.005 357.351L228.215 364.254Z" fill="#9B701A"/>
<path fill-rule="evenodd" clip-rule="evenodd" d="M153.038 311.335L116.492 289.237L123.6 318.493L153.038 311.335Z" fill="#C39755"/>
<path fill-rule="evenodd" clip-rule="evenodd" d="M131.57 190.541L145.751 206.103L151.51 232.467L120.985 230.342L131.57 190.541Z" fill="#F3E4C1"/>
<path fill-rule="evenodd" clip-rule="evenodd" d="M200.471 274.69L176.051 264.168L183.083 244.61L205.074 256.754L200.471 274.69Z" fill="#C9AF58"/>
<path fill-rule="evenodd" clip-rule="evenodd" d="M151.51 232.467L176.051 264.168L168.38 276.567L140.381 255.603L133.12 231.187L151.51 232.467Z" fill="#E1CC97"/>
<path fill-rule="evenodd" clip-rule="evenodd" d="M110.895 268.284L140.381 255.603L133.12 231.187L120.986 230.342L110.895 268.284Z" fill="#E2CF8C"/>
<path fill-rule="evenodd" clip-rule="evenodd" d="M168.38 276.567L223.612 315.937L235.074 302.706L213.64 282.958L200.471 274.69L176.051 264.168L168.38 276.567Z" fill="#D4B564"/>
<path fill-rule="evenodd" clip-rule="evenodd" d="M140.381 255.603L131.57 298.354L116.492 289.237L110.895 268.284L140.381 255.603Z" fill="#D4B164"/>
<path fill-rule="evenodd" clip-rule="evenodd" d="M168.38 276.567L153.038 311.335L223.612 315.937L168.38 276.567Z" fill="#D8BD65"/>
<path fill-rule="evenodd" clip-rule="evenodd" d="M140.381 255.603L131.57 298.354L153.038 311.335L168.38 276.566L140.381 255.603Z" fill="#DABC6D"/>
<path fill-rule="evenodd" clip-rule="evenodd" d="M145.751 206.103L178.417 196.293L162.083 177.503L131.57 190.541L145.751 206.103Z" fill="#F9ECB3"/>
<path fill-rule="evenodd" clip-rule="evenodd" d="M173.75 230.294L145.751 206.103L151.509 232.467L176.051 264.168L183.083 244.611L173.75 230.294Z" fill="#C5992C"/>
<path fill-rule="evenodd" clip-rule="evenodd" d="M178.417 196.293L181.293 224.031L173.75 230.294L145.75 206.103L178.417 196.293Z" fill="#E0CE78"/>
<path fill-rule="evenodd" clip-rule="evenodd" d="M162.084 177.503L183.083 172.901L178.416 196.293L162.084 177.503Z" fill="#FFFAD2"/>
<path fill-rule="evenodd" clip-rule="evenodd" d="M178.417 196.293L221.247 185.556L205.074 167.533L183.083 172.901L178.417 196.293Z" fill="#FDF3BB"/>
<path fill-rule="evenodd" clip-rule="evenodd" d="M178.417 196.293L181.293 224.031L214.966 210.162L196.326 191.803L178.417 196.293Z" fill="#F8EDB2"/>
<path fill-rule="evenodd" clip-rule="evenodd" d="M225.53 255.603C225.53 255.22 223.996 245.889 223.996 245.889L207.503 237.069L217.859 256.754L225.53 255.603Z" fill="#570B08"/>
<path fill-rule="evenodd" clip-rule="evenodd" d="M181.293 224.031L196.891 232.467L200.982 244.61H183.083L181.293 224.031Z" fill="#59010E"/>
<path fill-rule="evenodd" clip-rule="evenodd" d="M207.503 237.069L196.891 232.467L200.982 244.61L217.859 256.754L207.503 237.069Z" fill="#773011"/>
<path fill-rule="evenodd" clip-rule="evenodd" d="M183.083 244.61L205.074 256.754H217.859L200.982 244.61H183.083Z" fill="#540900"/>
<path fill-rule="evenodd" clip-rule="evenodd" d="M192.8 404.188L217.347 401.834L196.891 369.006L186.663 394.165L192.8 404.188Z" fill="#66470D"/>
<path fill-rule="evenodd" clip-rule="evenodd" d="M196.891 369.006L268.999 395.699L217.347 401.834L196.891 369.006Z" fill="#79571F"/>
<path fill-rule="evenodd" clip-rule="evenodd" d="M311.446 355.818L228.215 364.254L244.412 386.597L268.999 395.699L311.446 355.818Z" fill="#826224"/>
<path fill-rule="evenodd" clip-rule="evenodd" d="M202.005 357.351L302.241 338.93L299.939 329.997L192.8 350.788L202.005 357.351Z" fill="#7C5406"/>
<path fill-rule="evenodd" clip-rule="evenodd" d="M225.53 328.089L299.939 329.997L192.8 350.788L225.53 328.089Z" fill="#AE832D"/>
<path fill-rule="evenodd" clip-rule="evenodd" d="M302.241 338.931L311.446 355.818L228.215 364.254L202.005 357.352L302.241 338.931Z" fill="#A58523"/>
<path fill-rule="evenodd" clip-rule="evenodd" d="M241.639 295.128L225.53 255.603L249.31 254.252L241.639 295.128Z" fill="#C0A04C"/>
<path fill-rule="evenodd" clip-rule="evenodd" d="M256.981 213.377L223.996 245.889L225.53 255.604L249.31 254.253L256.981 213.377Z" fill="#BCA34B"/>
<path fill-rule="evenodd" clip-rule="evenodd" d="M223.612 315.936L241.639 295.128L256.726 328.889L225.53 328.089L223.612 315.936Z" fill="#D1AF57"/>
<path fill-rule="evenodd" clip-rule="evenodd" d="M235.074 302.706L213.64 282.958L200.471 274.69H233.309L241.639 295.128L235.074 302.706Z" fill="#C1A126"/>
<path fill-rule="evenodd" clip-rule="evenodd" d="M225.53 255.603L217.859 256.754H205.074L200.471 274.69H233.309L225.53 255.603Z" fill="#CFB460"/>
<path fill-rule="evenodd" clip-rule="evenodd" d="M237.42 182.488L221.055 167.532H205.074L237.42 203.579V182.488Z" fill="#FCECAC"/>
<path fill-rule="evenodd" clip-rule="evenodd" d="M237.613 232.467L196.326 191.803L221.247 185.555L237.42 203.579L237.613 232.467Z" fill="#DFC672"/>
<path fill-rule="evenodd" clip-rule="evenodd" d="M237.613 232.467L223.996 245.889L181.293 224.031L214.966 210.162L237.613 232.467Z" fill="#E2C25D"/>
<path fill-rule="evenodd" clip-rule="evenodd" d="M510.539 318.262L494.849 324.756L437.379 327.346V342.51L514.151 336.6L524.925 327.346L510.539 318.262Z" fill="#B59938"/>
<path fill-rule="evenodd" clip-rule="evenodd" d="M443.133 314.402L437.38 327.346L494.849 324.756L510.539 318.262L502.123 312.948L443.133 314.402Z" fill="#9D883E"/>
<path fill-rule="evenodd" clip-rule="evenodd" d="M292.268 293.951L256.726 328.889L241.639 295.128L292.268 293.951Z" fill="#C5AA46"/>
<path fill-rule="evenodd" clip-rule="evenodd" d="M256.726 328.889L292.268 293.951L367.445 304.765L364.376 322.072L299.939 329.997L256.726 328.889Z" fill="#BA962F"/>
<path fill-rule="evenodd" clip-rule="evenodd" d="M443.133 314.402L364.377 322.072L367.445 304.765L443.133 314.402Z" fill="#A08839"/>
<path fill-rule="evenodd" clip-rule="evenodd" d="M302.241 338.931L369.938 333.662L364.376 322.072L299.939 329.997L302.241 338.931Z" fill="#946A1E"/>
<path fill-rule="evenodd" clip-rule="evenodd" d="M440.217 320.961L366.907 327.346L369.938 333.661L437.38 327.346L440.217 320.961Z" fill="#8D6E30"/>
<path fill-rule="evenodd" clip-rule="evenodd" d="M443.133 314.402L440.218 320.961L366.907 327.346L364.377 322.072L443.133 314.402Z" fill="#806E2F"/>
<path fill-rule="evenodd" clip-rule="evenodd" d="M302.241 338.931L437.38 327.346V342.51L311.446 355.818L302.241 338.931Z" fill="#B88F2A"/>
<path fill-rule="evenodd" clip-rule="evenodd" d="M375.116 399.789L466.21 409.504L375.116 379.337V399.789Z" fill="#7A6138"/>
<path fill-rule="evenodd" clip-rule="evenodd" d="M311.446 355.818L268.999 395.699H328.834L375.116 399.789V379.337L311.446 355.818Z" fill="#83673D"/>
<path fill-rule="evenodd" clip-rule="evenodd" d="M138.721 821.338L102.573 744.321L101.537 744.81L137.685 821.827L138.721 821.338Z" fill="#181716" stroke="black" stroke-width="2"/>
<path fill-rule="evenodd" clip-rule="evenodd" d="M132.203 684.607L131.068 684.662L137.671 821.783L138.807 821.729L132.203 684.607Z" fill="#181716" stroke="black" stroke-width="2"/>
<path fill-rule="evenodd" clip-rule="evenodd" d="M256.574 687.316L256.169 686.239L102.041 744.344L102.446 745.421L256.574 687.316Z" fill="#181716" stroke="black" stroke-width="2"/>
<path fill-rule="evenodd" clip-rule="evenodd" d="M257.09 686.99L256.23 686.234L138.143 820.955L139.003 821.712L257.09 686.99Z" fill="#181716" stroke="black" stroke-width="2"/>
<path fill-rule="evenodd" clip-rule="evenodd" d="M256.472 686.148L131.687 683.518L131.665 684.673L256.449 687.303L256.472 686.148Z" fill="#181716" stroke="black" stroke-width="2"/>
</svg>
