<svg width="51" height="50" viewBox="0 0 51 50" fill="none" xmlns="http://www.w3.org/2000/svg">
<path fill-rule="evenodd" clip-rule="evenodd" d="M0.622437 25C0.622437 11.1895 11.812 0 25.6224 0C39.4329 0 50.6224 11.1895 50.6224 25C50.6224 38.8105 39.4329 50 25.6224 50C11.812 50 0.622437 38.8105 0.622437 25ZM33.7978 36.4617L37.9007 17.127C38.2636 15.4335 37.2857 14.7581 36.1668 15.1613L12.064 24.4556C10.4107 25.1008 10.441 26.0181 11.7817 26.4415L17.9511 28.3669L32.2656 19.3548C32.9309 18.9113 33.5458 19.1633 33.0418 19.6069L21.4591 30.0706L21.0156 36.4314C21.6607 36.4314 21.943 36.1492 22.2757 35.8165L25.2898 32.9133L31.5398 37.5202C32.6789 38.1653 33.4954 37.8327 33.7978 36.4617Z" fill="white"/>
</svg>
