<svg width="128" height="128" viewBox="0 0 128 128" fill="none" xmlns="http://www.w3.org/2000/svg">
<path d="M64 11H58.7143V5.5H32.2857V11H27V0H64V11Z" fill="#353535"/>
<path d="M72.2647 128H0V5H32.1176V15.6957H58.8824V5H91V45.1087C91 46.713 89.9294 47.7826 88.3235 47.7826C86.7177 47.7826 85.6471 46.713 85.6471 45.1087V10.3478H64.2353V21.0435H26.7647V10.3478H5.35294V122.652H72.2647C73.8706 122.652 74.9412 123.722 74.9412 125.326C74.9412 126.93 73.8706 128 72.2647 128Z" fill="#353535"/>
<path d="M77.375 85C75.8 85 74.75 83.9385 74.75 82.3462V21.3077H61.625C60.05 21.3077 59 20.2462 59 18.6538C59 17.0615 60.05 16 61.625 16H80V82.3462C80 83.9385 78.95 85 77.375 85Z" fill="#353535"/>
<path fill-rule="evenodd" clip-rule="evenodd" d="M85.0909 71.75C85.0909 79.25 90.9909 85.1429 98.5 85.1429C106.009 85.1429 111.909 79.25 111.909 71.75V66.3929C111.909 58.8929 106.009 53 98.5 53C90.9909 53 85.0909 58.8929 85.0909 66.3929V71.75ZM90.4545 66.3929C90.4545 61.8393 93.9409 58.3571 98.5 58.3571C103.059 58.3571 106.545 61.8393 106.545 66.3929V71.75C106.545 76.3036 103.059 79.7857 98.5 79.7857C93.9409 79.7857 90.4545 76.3036 90.4545 71.75V66.3929Z" fill="#353535"/>
<path d="M125.318 128C123.709 128 122.636 126.929 122.636 125.321V102.821C122.636 99.6071 120.759 96.6606 117.809 95.3214L101.182 89.6964V82.4642C101.182 80.8571 102.255 79.7856 103.864 79.7856C105.473 79.7856 106.545 80.8571 106.545 82.4642V85.9464L119.686 90.4999C124.782 92.6428 128 97.4642 128 102.821V125.321C128 126.929 126.927 128 125.318 128Z" fill="#353535"/>
<path d="M71.6818 128C70.0727 128 69 126.929 69 125.321V102.821C69 97.4642 72.2182 92.6428 77.0455 90.4999L90.4545 85.6785V82.4642C90.4545 80.8571 91.5273 79.7856 93.1364 79.7856C94.7455 79.7856 95.8182 80.8571 95.8182 82.4642V89.6964L79.1909 95.5892C76.5091 96.6606 74.3636 99.6071 74.3636 102.821V125.321C74.3636 126.929 73.2909 128 71.6818 128Z" fill="#353535"/>
<path d="M114.591 128C112.982 128 111.909 126.928 111.909 125.321V109.25C111.909 107.643 112.982 106.571 114.591 106.571C116.2 106.571 117.273 107.643 117.273 109.25V125.321C117.273 126.928 116.2 128 114.591 128Z" fill="#353535"/>
<path d="M82.4091 128C80.8 128 79.7273 126.928 79.7273 125.321V109.25C79.7273 107.643 80.8 106.571 82.4091 106.571C84.0182 106.571 85.0909 107.643 85.0909 109.25V125.321C85.0909 126.928 84.0182 128 82.4091 128Z" fill="#353535"/>
<path d="M64 117H11V16H21.6V21.3158H16.3V111.684H64V117Z" fill="#353535"/>
<path d="M45.0806 54.41L37.8594 47.2175L41.6037 43.4881L45.0806 46.9511L59.2557 32.8325L63 36.562L45.0806 54.41Z" fill="#353535"/>
<path d="M45.0806 64C44.0108 64 42.941 64 41.8712 63.7336C37.5919 62.9344 34.115 60.5369 31.708 56.8075C29.3009 53.3444 28.4985 49.0822 29.3009 44.82C30.1032 40.5578 32.5103 37.0947 36.2547 34.6972C39.7316 32.2997 44.0108 31.5005 48.2901 32.2997C49.6273 32.5661 50.6971 33.898 50.4297 35.4964C50.1622 37.0947 48.825 37.8939 47.2203 37.6275C44.5457 37.0947 41.6037 37.6275 39.1967 39.2258C36.7896 40.8241 35.1849 43.2216 34.65 45.8855C34.115 48.5494 34.65 51.4797 36.2547 53.8772C37.8594 56.2747 40.2665 57.873 42.941 58.4058C48.825 59.4714 54.4415 55.7419 55.5113 50.1478C55.7788 48.8158 57.116 47.7503 58.7207 48.0166C60.058 48.283 61.1278 49.615 60.8604 51.2133C59.2557 58.6722 52.5693 64 45.0806 64Z" fill="#353535"/>
<path d="M45.0806 91.402L37.8594 84.2034L41.6037 80.4708L45.0806 83.9368L59.2557 69.8062L63 73.5388L45.0806 91.402Z" fill="#353535"/>
<path d="M45.0806 101C44.0108 101 42.941 101 41.8712 100.733C37.5919 99.9335 34.115 97.534 31.708 93.8014C29.3009 90.3354 28.4985 86.0695 29.3009 81.8037C31.1731 73.272 39.4641 67.6731 48.2901 69.2728C49.6273 69.5394 50.6971 70.8725 50.4297 72.4722C50.1622 73.8052 48.825 74.8717 47.2203 74.6051C41.3363 73.5386 35.7198 77.2712 34.65 82.8702C34.115 85.5363 34.65 88.4691 36.2547 90.8686C37.8594 93.2682 40.2665 94.8678 42.941 95.4011C45.6155 95.9343 48.5575 95.4011 50.9646 93.8014C53.3717 92.2017 54.9764 89.8022 55.5113 87.136C55.7788 85.8029 57.116 84.7365 58.7207 85.0031C60.058 85.2697 61.1278 86.6028 60.8604 88.2025C60.058 92.4683 57.6509 95.9343 53.9066 98.3338C51.2321 100.2 48.2901 101 45.0806 101Z" fill="#353535"/>
</svg>
