<svg width="111" height="111" viewBox="0 0 111 111" fill="none" xmlns="http://www.w3.org/2000/svg">
<path d="M4.6473 55H0V46.2917L12.3154 42.1667L15.8008 33.6875L10.2241 22.2292L22.5394 10.0833L34.1577 15.5833L42.5228 12.1458L44.3817 0H56V4.58333H48.332L46.7054 15.3542L34.1577 20.625L23.4689 15.5833L15.8008 23.1458L20.9129 33.6875L15.8008 45.8333L4.6473 49.5V55Z" fill="#353535"/>
<path d="M64.0622 111H55V106.417H60.8091L64.527 95.4167L76.8423 90.375L87.5311 95.4167L95.1992 87.8542L90.0871 77.3125L95.1992 65.1667L106.353 61.2708V56H111V64.7083L98.6846 68.8333L95.1992 77.3125L100.776 88.7708L88.4606 100.917L76.8423 95.4167L68.2448 98.8542L64.0622 111Z" fill="#353535"/>
<path fill-rule="evenodd" clip-rule="evenodd" d="M51.872 64.2963C53.0464 64.7654 54.2208 65 55.3952 65C56.5696 65 57.744 64.7654 59.1533 64.0617C64.0858 62.1852 66.1997 56.5556 64.3207 51.8642C63.3811 49.5185 61.5021 47.642 59.1533 46.7037C56.8045 45.7654 54.2208 45.7654 51.872 46.7037C49.5232 47.642 47.6442 49.5185 46.7046 51.8642C45.7651 54.2099 45.7651 56.7901 46.7046 59.1358C47.6442 61.4815 49.5232 63.358 51.872 64.2963ZM53.9309 51.2503C54.4271 51.0728 54.8376 50.9259 55.3952 50.9259C56.0998 50.9259 56.5696 51.1605 57.0394 51.3951C58.2138 51.8642 59.1533 52.8025 59.6231 53.9753C60.5626 56.321 59.3882 59.1358 57.0394 60.0741C55.865 60.5432 54.6906 60.5432 53.5162 60.0741C52.3418 59.6049 51.4022 58.6667 50.9325 57.4938C50.4627 56.321 50.4627 55.1481 50.9325 53.9753C51.4022 52.8025 52.3418 51.8642 53.5162 51.3951C53.6632 51.3461 53.8001 51.2971 53.9309 51.2503Z" fill="#353535"/>
<path fill-rule="evenodd" clip-rule="evenodd" d="M35 55.5C35 66.8889 44.1111 76 55.5 76C66.8889 76 76 66.8889 76 55.5C76 44.1111 66.8889 35 55.5 35C44.1111 35 35 44.1111 35 55.5ZM39.5556 55.5C39.5556 46.6167 46.6167 39.5556 55.5 39.5556C64.3833 39.5556 71.4444 46.6167 71.4444 55.5C71.4444 64.3833 64.3833 71.4444 55.5 71.4444C46.6167 71.4444 39.5556 64.3833 39.5556 55.5Z" fill="#353535"/>
<path d="M55.2083 85C50.1667 85 45.3542 83.855 41 81.3359L43.2917 77.2137C46.9583 79.2748 51.0833 80.1908 55.2083 80.1908C61.8542 80.1908 68.2708 77.6718 73.0833 72.8626C77.8958 68.0534 80.4167 61.8702 80.4167 55H85C85 63.0153 81.7917 70.3435 76.2917 76.0687C70.5625 81.7939 63.2292 85 55.2083 85Z" fill="#353535"/>
<path d="M29.5833 56H25C25 39.3846 38.2917 26 54.7917 26C59.8333 26 64.6458 27.1538 69 29.6923L66.7083 33.8462C63.0417 31.7692 58.9167 30.6154 54.7917 30.6154C40.8125 30.6154 29.5833 41.9231 29.5833 56Z" fill="#353535"/>
<path d="M111 51H104.031C100.083 51 97.063 47.7982 97.063 44.139V34.7623L84.5197 23.5561H77.5512L85.4488 31.1031C88.4685 34.0762 88.4685 38.4215 85.4488 41.1659C82.6614 43.9103 78.248 43.9103 75.4606 41.1659L52 18.296V0.686099H56.6457V16.4664L78.7126 37.9641C79.6417 38.8789 81.2677 38.8789 82.1968 37.9641C83.126 37.0493 83.126 35.4484 82.1968 34.5336L71.5118 24.2422V18.9821H86.1457L101.709 32.704V44.139C101.709 45.5112 102.638 46.426 104.031 46.426H106.354V28.5874L78.4803 2.74439V0.686099H81.7323L82.1968 0L111 26.7578V51Z" fill="#353535"/>
<path d="M28.1976 111L0 84.2422V60H6.87747C10.7747 60 13.7549 63.2018 13.7549 66.861V76.2377L26.3636 87.4439H33.2411L25.2174 79.8969C23.8419 78.5247 22.9249 76.6951 22.9249 74.8655C22.9249 73.0359 23.6126 71.2063 24.9881 69.8341C27.7391 67.0897 32.0949 67.0897 34.8458 69.8341L58 92.704V110.314H53.415V94.5336L31.6364 73.0359C30.7194 72.1211 29.1146 72.1211 28.1976 73.0359C27.2806 73.9507 27.2806 75.5516 28.1976 76.4664L38.7431 86.5291V92.0179H24.3004L9.16996 78.296V66.861C9.16996 65.4888 8.25296 64.574 6.87747 64.574H4.58498V82.4126L32.0949 108.256V110.314H28.8854L28.1976 111Z" fill="#353535"/>
<circle cx="82.5" cy="48.5" r="2.5" fill="#353535"/>
<circle cx="27.5" cy="62.5" r="2.5" fill="#353535"/>
</svg>
