<svg width="117" height="117" viewBox="0 0 117 117" fill="none" xmlns="http://www.w3.org/2000/svg">
<path d="M71.5556 27C70.0889 27 69.1111 26.0182 69.1111 24.5455V9.81818C69.1111 7.11818 66.9111 4.90909 64.2222 4.90909H10.4444C8.97778 4.90909 8 3.92727 8 2.45455C8 0.981818 8.97778 0 10.4444 0H64.2222C69.6 0 74 4.41818 74 9.81818V24.5455C74 26.0182 73.0222 27 71.5556 27Z" fill="#353535"/>
<path fill-rule="evenodd" clip-rule="evenodd" d="M65.8125 117H107.25C112.613 117 117 112.613 117 107.25V104.812C117 103.35 116.025 102.375 114.562 102.375H60.9375C59.475 102.375 58.5 103.35 58.5 104.812V107.25C58.5 109.931 56.3063 112.125 53.625 112.125C50.9437 112.125 48.75 109.931 48.75 107.25V39C48.75 33.6375 44.3625 29.25 39 29.25C33.6375 29.25 29.25 33.6375 29.25 39V73.125C29.25 75.8063 27.0562 78 24.375 78C21.6938 78 19.5 75.8063 19.5 73.125V9.75C19.5 4.3875 15.1125 0 9.75 0C4.3875 0 0 4.3875 0 9.75V12.1875C0 13.65 0.975 14.625 2.4375 14.625H14.625V73.125C14.625 78.4875 19.0125 82.875 24.375 82.875C29.7375 82.875 34.125 78.4875 34.125 73.125V39C34.125 36.3187 36.3187 34.125 39 34.125C41.6813 34.125 43.875 36.3187 43.875 39V107.25C43.875 112.613 48.2625 117 53.625 117C58.9875 117 63.375 112.613 63.375 107.25H112.125C112.125 109.931 109.931 112.125 107.25 112.125H65.8125C64.35 112.125 63.375 113.1 63.375 114.562C63.375 116.025 64.35 117 65.8125 117ZM9.75 4.875C12.4312 4.875 14.625 7.06875 14.625 9.75H4.875C4.875 7.06875 7.06875 4.875 9.75 4.875Z" fill="#353535"/>
<path d="M100.556 100C99.0889 100 98.1111 99.0207 98.1111 97.5517V38.7931C98.1111 36.1 95.9111 33.8966 93.2222 33.8966H39.4444C37.9778 33.8966 37 32.9172 37 31.4483C37 29.9793 37.9778 29 39.4444 29H93.2222C98.6 29 103 33.4069 103 38.7931V97.5517C103 99.0207 102.022 100 100.556 100Z" fill="#353535"/>
<path d="M44.619 83H24.381C22.9524 83 22 82 22 80.5C22 79 22.9524 78 24.381 78H44.619C46.0476 78 47 79 47 80.5C47 82 46.0476 83 44.619 83Z" fill="#353535"/>
<rect x="59" y="59" width="29" height="5" fill="#353535"/>
<rect x="59" y="69" width="29" height="5" fill="#353535"/>
<rect x="59" y="78" width="29" height="5" fill="#353535"/>
</svg>
